ISO-10303-21;
HEADER;
/* Generated by software containing ST-Developer
 * from STEP Tools, Inc. (www.steptools.com) 
 */
/* OPTION: using custom renumber hook */

FILE_DESCRIPTION(
/* description */ ('STEP AP242 Edition 2',
'CAx-IF Rec.Pracs.---Representation and Presentation of Product Manufa
cturing Information (PMI)---4.0---2014-10-13',
'CAx-IF Rec.Pracs.---3D Tessellated Geometry---0.4---2014-09-14','2;1',
'CAx-IF Rec.Pracs.---User Defined Attributes---1.5---2016-08-15'),
/* implementation_level */ '2;1');

FILE_NAME(
/* name */ 'Assembly 1 - bearing_dc_connector',
/* time_stamp */ '2026-08-18T11:49:09Z',
/* author */ (''),
/* organization */ (''),
/* preprocessor_version */ 'ST-DEVELOPER v20',
/* originating_system */ 'ONSHAPE BY PTC INC, 1.219',
/* authorisation */ '  ');

FILE_SCHEMA (('AP242_MANAGED_MODEL_BASED_3D_ENGINEERING_MIM_LF { 1 0 10303 442 3 1 4 }'));
ENDSEC;

DATA;
#10=SHAPE_REPRESENTATION_RELATIONSHIP('','',#285,#11);
#11=ADVANCED_BREP_SHAPE_REPRESENTATION('',(#283),#629);
#12=B_SPLINE_SURFACE_WITH_KNOTS('',5,1,((#564,#565),(#566,#567),(#568,#569),
(#570,#571),(#572,#573),(#574,#575),(#576,#577),(#578,#579)),
 .SURF_OF_LINEAR_EXTRUSION.,.F.,.F.,.F.,(6,2,6),(2,2),(0.,0.5,1.),(0.,1.),
 .UNSPECIFIED.);
#13=B_SPLINE_SURFACE_WITH_KNOTS('',5,1,((#580,#581),(#582,#583),(#584,#585),
(#586,#587),(#588,#589),(#590,#591),(#592,#593),(#594,#595)),
 .SURF_OF_LINEAR_EXTRUSION.,.F.,.F.,.F.,(6,2,6),(2,2),(0.,0.5,1.),(0.,1.),
 .UNSPECIFIED.);
#14=B_SPLINE_SURFACE_WITH_KNOTS('',5,1,((#596,#597),(#598,#599),(#600,#601),
(#602,#603),(#604,#605),(#606,#607),(#608,#609),(#610,#611)),
 .SURF_OF_LINEAR_EXTRUSION.,.F.,.F.,.F.,(6,2,6),(2,2),(0.,0.5,1.),(0.,1.),
 .UNSPECIFIED.);
#15=B_SPLINE_SURFACE_WITH_KNOTS('',5,1,((#612,#613),(#614,#615),(#616,#617),
(#618,#619),(#620,#621),(#622,#623),(#624,#625),(#626,#627)),
 .SURF_OF_LINEAR_EXTRUSION.,.F.,.F.,.F.,(6,2,6),(2,2),(0.,0.5,1.),(0.,1.),
 .UNSPECIFIED.);
#16=CYLINDRICAL_SURFACE('',#298,0.0015);
#17=CIRCLE('',#292,0.0015);
#18=CIRCLE('',#299,0.0015);
#19=B_SPLINE_CURVE_WITH_KNOTS('',3,(#352,#353,#354,#355),.UNSPECIFIED.,
 .F.,.F.,(4,4),(0.,1.),.UNSPECIFIED.);
#20=B_SPLINE_CURVE_WITH_KNOTS('',3,(#359,#360,#361,#362),.UNSPECIFIED.,
 .F.,.F.,(4,4),(0.,1.),.UNSPECIFIED.);
#21=B_SPLINE_CURVE_WITH_KNOTS('',3,(#367,#368,#369,#370),.UNSPECIFIED.,
 .F.,.F.,(4,4),(0.,1.),.UNSPECIFIED.);
#22=B_SPLINE_CURVE_WITH_KNOTS('',3,(#374,#375,#376,#377),.UNSPECIFIED.,
 .F.,.F.,(4,4),(0.,1.),.UNSPECIFIED.);
#23=B_SPLINE_CURVE_WITH_KNOTS('',3,(#382,#383,#384,#385),.UNSPECIFIED.,
 .F.,.F.,(4,4),(0.,1.),.UNSPECIFIED.);
#24=B_SPLINE_CURVE_WITH_KNOTS('',3,(#389,#390,#391,#392),.UNSPECIFIED.,
 .F.,.F.,(4,4),(0.,1.),.UNSPECIFIED.);
#25=B_SPLINE_CURVE_WITH_KNOTS('',3,(#397,#398,#399,#400),.UNSPECIFIED.,
 .F.,.F.,(4,4),(0.,1.),.UNSPECIFIED.);
#26=B_SPLINE_CURVE_WITH_KNOTS('',3,(#404,#405,#406,#407),.UNSPECIFIED.,
 .F.,.F.,(4,4),(0.,1.),.UNSPECIFIED.);
#27=B_SPLINE_CURVE_WITH_KNOTS('',3,(#411,#412,#413,#414,#415,#416,#417,
#418,#419,#420,#421,#422,#423,#424),.UNSPECIFIED.,.F.,.F.,(4,1,1,1,1,1,
1,1,1,1,1,4),(0.,0.125,0.1875,0.25,0.375,0.5,0.625,0.75,0.78125,0.8125,
0.875,1.),.UNSPECIFIED.);
#28=B_SPLINE_CURVE_WITH_KNOTS('',3,(#425,#426,#427,#428,#429,#430,#431,
#432,#433,#434,#435,#436,#437,#438),.UNSPECIFIED.,.F.,.F.,(4,1,1,1,1,1,
1,1,1,1,1,4),(0.,0.125,0.1875,0.25,0.375,0.5,0.625,0.75,0.78125,0.8125,
0.875,1.),.UNSPECIFIED.);
#29=B_SPLINE_CURVE_WITH_KNOTS('',3,(#439,#440,#441,#442,#443,#444,#445,
#446,#447,#448,#449,#450,#451,#452),.UNSPECIFIED.,.F.,.F.,(4,1,1,1,1,1,
1,1,1,1,1,4),(0.,0.125,0.1875,0.25,0.375,0.5,0.625,0.75,0.78125,0.8125,
0.875,1.),.UNSPECIFIED.);
#30=B_SPLINE_CURVE_WITH_KNOTS('',3,(#453,#454,#455,#456,#457,#458,#459,
#460,#461,#462,#463,#464,#465,#466),.UNSPECIFIED.,.F.,.F.,(4,1,1,1,1,1,
1,1,1,1,1,4),(0.,0.125,0.1875,0.25,0.375,0.5,0.625,0.75,0.78125,0.8125,
0.875,1.),.UNSPECIFIED.);
#31=B_SPLINE_CURVE_WITH_KNOTS('',3,(#479,#480,#481,#482,#483,#484,#485,
#486,#487),.UNSPECIFIED.,.F.,.F.,(4,1,1,1,1,1,4),(0.,0.25,0.5,0.625,0.75,
0.875,1.),.UNSPECIFIED.);
#32=B_SPLINE_CURVE_WITH_KNOTS('',3,(#488,#489,#490,#491,#492,#493,#494,
#495,#496),.UNSPECIFIED.,.F.,.F.,(4,1,1,1,1,1,4),(0.,0.125,0.25,0.375,0.5,
0.75,1.),.UNSPECIFIED.);
#33=B_SPLINE_CURVE_WITH_KNOTS('',3,(#500,#501,#502,#503,#504,#505,#506,
#507,#508),.UNSPECIFIED.,.F.,.F.,(4,1,1,1,1,1,4),(0.,0.125,0.25,0.375,0.5,
0.75,1.),.UNSPECIFIED.);
#34=B_SPLINE_CURVE_WITH_KNOTS('',3,(#511,#512,#513,#514,#515,#516,#517,
#518,#519),.UNSPECIFIED.,.F.,.F.,(4,1,1,1,1,1,4),(0.,0.25,0.5,0.625,0.75,
0.875,1.),.UNSPECIFIED.);
#35=B_SPLINE_CURVE_WITH_KNOTS('',3,(#523,#524,#525,#526,#527,#528,#529,
#530,#531),.UNSPECIFIED.,.F.,.F.,(4,1,1,1,1,1,4),(0.,0.25,0.5,0.625,0.75,
0.875,1.),.UNSPECIFIED.);
#36=B_SPLINE_CURVE_WITH_KNOTS('',3,(#532,#533,#534,#535,#536,#537,#538,
#539,#540),.UNSPECIFIED.,.F.,.F.,(4,1,1,1,1,1,4),(0.,0.125,0.25,0.375,0.5,
0.75,1.),.UNSPECIFIED.);
#37=B_SPLINE_CURVE_WITH_KNOTS('',3,(#542,#543,#544,#545,#546,#547,#548,
#549,#550),.UNSPECIFIED.,.F.,.F.,(4,1,1,1,1,1,4),(0.,0.125,0.25,0.375,0.5,
0.75,1.),.UNSPECIFIED.);
#38=B_SPLINE_CURVE_WITH_KNOTS('',3,(#551,#552,#553,#554,#555,#556,#557,
#558,#559),.UNSPECIFIED.,.F.,.F.,(4,1,1,1,1,1,4),(0.,0.25,0.5,0.625,0.75,
0.875,1.),.UNSPECIFIED.);
#39=ORIENTED_EDGE('',*,*,#115,.T.);
#40=ORIENTED_EDGE('',*,*,#116,.T.);
#41=ORIENTED_EDGE('',*,*,#117,.T.);
#42=ORIENTED_EDGE('',*,*,#118,.T.);
#43=ORIENTED_EDGE('',*,*,#119,.T.);
#44=ORIENTED_EDGE('',*,*,#120,.T.);
#45=ORIENTED_EDGE('',*,*,#121,.F.);
#46=ORIENTED_EDGE('',*,*,#122,.T.);
#47=ORIENTED_EDGE('',*,*,#123,.T.);
#48=ORIENTED_EDGE('',*,*,#124,.T.);
#49=ORIENTED_EDGE('',*,*,#125,.F.);
#50=ORIENTED_EDGE('',*,*,#126,.T.);
#51=ORIENTED_EDGE('',*,*,#127,.T.);
#52=ORIENTED_EDGE('',*,*,#128,.T.);
#53=ORIENTED_EDGE('',*,*,#129,.T.);
#54=ORIENTED_EDGE('',*,*,#130,.T.);
#55=ORIENTED_EDGE('',*,*,#131,.F.);
#56=ORIENTED_EDGE('',*,*,#125,.T.);
#57=ORIENTED_EDGE('',*,*,#132,.T.);
#58=ORIENTED_EDGE('',*,*,#127,.F.);
#59=ORIENTED_EDGE('',*,*,#133,.T.);
#60=ORIENTED_EDGE('',*,*,#115,.F.);
#61=ORIENTED_EDGE('',*,*,#134,.T.);
#62=ORIENTED_EDGE('',*,*,#121,.T.);
#63=ORIENTED_EDGE('',*,*,#135,.T.);
#64=ORIENTED_EDGE('',*,*,#136,.T.);
#65=ORIENTED_EDGE('',*,*,#137,.T.);
#66=ORIENTED_EDGE('',*,*,#138,.T.);
#67=ORIENTED_EDGE('',*,*,#139,.T.);
#68=ORIENTED_EDGE('',*,*,#140,.F.);
#69=ORIENTED_EDGE('',*,*,#141,.T.);
#70=ORIENTED_EDGE('',*,*,#119,.F.);
#71=ORIENTED_EDGE('',*,*,#142,.T.);
#72=ORIENTED_EDGE('',*,*,#143,.F.);
#73=ORIENTED_EDGE('',*,*,#139,.F.);
#74=ORIENTED_EDGE('',*,*,#117,.F.);
#75=ORIENTED_EDGE('',*,*,#144,.T.);
#76=ORIENTED_EDGE('',*,*,#145,.F.);
#77=ORIENTED_EDGE('',*,*,#136,.F.);
#78=ORIENTED_EDGE('',*,*,#143,.T.);
#79=ORIENTED_EDGE('',*,*,#146,.T.);
#80=ORIENTED_EDGE('',*,*,#147,.F.);
#81=ORIENTED_EDGE('',*,*,#148,.T.);
#82=ORIENTED_EDGE('',*,*,#123,.F.);
#83=ORIENTED_EDGE('',*,*,#149,.T.);
#84=ORIENTED_EDGE('',*,*,#140,.T.);
#85=ORIENTED_EDGE('',*,*,#138,.F.);
#86=ORIENTED_EDGE('',*,*,#129,.F.);
#87=ORIENTED_EDGE('',*,*,#150,.T.);
#88=ORIENTED_EDGE('',*,*,#147,.T.);
#89=ORIENTED_EDGE('',*,*,#137,.F.);
#90=ORIENTED_EDGE('',*,*,#145,.T.);
#91=ORIENTED_EDGE('',*,*,#151,.T.);
#92=ORIENTED_EDGE('',*,*,#152,.F.);
#93=ORIENTED_EDGE('',*,*,#131,.T.);
#94=ORIENTED_EDGE('',*,*,#152,.T.);
#95=ORIENTED_EDGE('',*,*,#132,.F.);
#96=ORIENTED_EDGE('',*,*,#124,.F.);
#97=ORIENTED_EDGE('',*,*,#148,.F.);
#98=ORIENTED_EDGE('',*,*,#150,.F.);
#99=ORIENTED_EDGE('',*,*,#128,.F.);
#100=ORIENTED_EDGE('',*,*,#135,.F.);
#101=ORIENTED_EDGE('',*,*,#120,.F.);
#102=ORIENTED_EDGE('',*,*,#141,.F.);
#103=ORIENTED_EDGE('',*,*,#149,.F.);
#104=ORIENTED_EDGE('',*,*,#126,.F.);
#105=ORIENTED_EDGE('',*,*,#133,.F.);
#106=ORIENTED_EDGE('',*,*,#130,.F.);
#107=ORIENTED_EDGE('',*,*,#151,.F.);
#108=ORIENTED_EDGE('',*,*,#144,.F.);
#109=ORIENTED_EDGE('',*,*,#116,.F.);
#110=ORIENTED_EDGE('',*,*,#134,.F.);
#111=ORIENTED_EDGE('',*,*,#118,.F.);
#112=ORIENTED_EDGE('',*,*,#146,.F.);
#113=ORIENTED_EDGE('',*,*,#142,.F.);
#114=ORIENTED_EDGE('',*,*,#122,.F.);
#115=EDGE_CURVE('',#153,#154,#179,.T.);
#116=EDGE_CURVE('',#154,#155,#19,.T.);
#117=EDGE_CURVE('',#155,#156,#180,.T.);
#118=EDGE_CURVE('',#156,#153,#20,.T.);
#119=EDGE_CURVE('',#157,#158,#181,.T.);
#120=EDGE_CURVE('',#158,#159,#21,.T.);
#121=EDGE_CURVE('',#160,#159,#182,.T.);
#122=EDGE_CURVE('',#160,#157,#22,.T.);
#123=EDGE_CURVE('',#161,#162,#183,.T.);
#124=EDGE_CURVE('',#162,#163,#23,.T.);
#125=EDGE_CURVE('',#164,#163,#184,.T.);
#126=EDGE_CURVE('',#164,#161,#24,.T.);
#127=EDGE_CURVE('',#165,#166,#185,.T.);
#128=EDGE_CURVE('',#166,#167,#25,.T.);
#129=EDGE_CURVE('',#167,#168,#186,.T.);
#130=EDGE_CURVE('',#168,#165,#26,.T.);
#131=EDGE_CURVE('',#169,#169,#17,.T.);
#132=EDGE_CURVE('',#163,#166,#27,.T.);
#133=EDGE_CURVE('',#165,#154,#28,.T.);
#134=EDGE_CURVE('',#153,#160,#29,.T.);
#135=EDGE_CURVE('',#159,#164,#30,.T.);
#136=EDGE_CURVE('',#170,#171,#187,.T.);
#137=EDGE_CURVE('',#171,#172,#188,.T.);
#138=EDGE_CURVE('',#172,#173,#189,.T.);
#139=EDGE_CURVE('',#173,#170,#190,.T.);
#140=EDGE_CURVE('',#174,#173,#191,.T.);
#141=EDGE_CURVE('',#174,#158,#31,.T.);
#142=EDGE_CURVE('',#157,#175,#32,.T.);
#143=EDGE_CURVE('',#170,#175,#192,.T.);
#144=EDGE_CURVE('',#155,#176,#33,.T.);
#145=EDGE_CURVE('',#171,#176,#193,.F.);
#146=EDGE_CURVE('',#175,#156,#34,.T.);
#147=EDGE_CURVE('',#177,#172,#194,.T.);
#148=EDGE_CURVE('',#177,#162,#35,.T.);
#149=EDGE_CURVE('',#161,#174,#36,.T.);
#150=EDGE_CURVE('',#167,#177,#37,.T.);
#151=EDGE_CURVE('',#176,#168,#38,.T.);
#152=EDGE_CURVE('',#178,#178,#18,.T.);
#153=VERTEX_POINT('',#350);
#154=VERTEX_POINT('',#351);
#155=VERTEX_POINT('',#356);
#156=VERTEX_POINT('',#358);
#157=VERTEX_POINT('',#365);
#158=VERTEX_POINT('',#366);
#159=VERTEX_POINT('',#371);
#160=VERTEX_POINT('',#373);
#161=VERTEX_POINT('',#380);
#162=VERTEX_POINT('',#381);
#163=VERTEX_POINT('',#386);
#164=VERTEX_POINT('',#388);
#165=VERTEX_POINT('',#395);
#166=VERTEX_POINT('',#396);
#167=VERTEX_POINT('',#401);
#168=VERTEX_POINT('',#403);
#169=VERTEX_POINT('',#410);
#170=VERTEX_POINT('',#469);
#171=VERTEX_POINT('',#470);
#172=VERTEX_POINT('',#472);
#173=VERTEX_POINT('',#474);
#174=VERTEX_POINT('',#478);
#175=VERTEX_POINT('',#497);
#176=VERTEX_POINT('',#509);
#177=VERTEX_POINT('',#522);
#178=VERTEX_POINT('',#562);
#179=LINE('',#349,#195);
#180=LINE('',#357,#196);
#181=LINE('',#364,#197);
#182=LINE('',#372,#198);
#183=LINE('',#379,#199);
#184=LINE('',#387,#200);
#185=LINE('',#394,#201);
#186=LINE('',#402,#202);
#187=LINE('',#468,#203);
#188=LINE('',#471,#204);
#189=LINE('',#473,#205);
#190=LINE('',#475,#206);
#191=LINE('',#477,#207);
#192=LINE('',#498,#208);
#193=LINE('',#510,#209);
#194=LINE('',#521,#210);
#195=VECTOR('',#305,1.);
#196=VECTOR('',#306,1.);
#197=VECTOR('',#309,1.);
#198=VECTOR('',#310,1.);
#199=VECTOR('',#313,1.);
#200=VECTOR('',#314,1.);
#201=VECTOR('',#317,1.);
#202=VECTOR('',#318,1.);
#203=VECTOR('',#325,1.);
#204=VECTOR('',#326,1.);
#205=VECTOR('',#327,1.);
#206=VECTOR('',#328,1.);
#207=VECTOR('',#331,1.);
#208=VECTOR('',#332,1.);
#209=VECTOR('',#335,1.);
#210=VECTOR('',#338,1.);
#211=EDGE_LOOP('',(#39,#40,#41,#42));
#212=EDGE_LOOP('',(#43,#44,#45,#46));
#213=EDGE_LOOP('',(#47,#48,#49,#50));
#214=EDGE_LOOP('',(#51,#52,#53,#54));
#215=EDGE_LOOP('',(#55));
#216=EDGE_LOOP('',(#56,#57,#58,#59,#60,#61,#62,#63));
#217=EDGE_LOOP('',(#64,#65,#66,#67));
#218=EDGE_LOOP('',(#68,#69,#70,#71,#72,#73));
#219=EDGE_LOOP('',(#74,#75,#76,#77,#78,#79));
#220=EDGE_LOOP('',(#80,#81,#82,#83,#84,#85));
#221=EDGE_LOOP('',(#86,#87,#88,#89,#90,#91));
#222=EDGE_LOOP('',(#92));
#223=EDGE_LOOP('',(#93));
#224=EDGE_LOOP('',(#94));
#225=EDGE_LOOP('',(#95,#96,#97,#98,#99));
#226=EDGE_LOOP('',(#100,#101,#102,#103,#104));
#227=EDGE_LOOP('',(#105,#106,#107,#108,#109));
#228=EDGE_LOOP('',(#110,#111,#112,#113,#114));
#229=FACE_BOUND('',#211,.T.);
#230=FACE_BOUND('',#212,.T.);
#231=FACE_BOUND('',#213,.T.);
#232=FACE_BOUND('',#214,.T.);
#233=FACE_BOUND('',#215,.T.);
#234=FACE_BOUND('',#216,.T.);
#235=FACE_BOUND('',#217,.T.);
#236=FACE_BOUND('',#218,.T.);
#237=FACE_BOUND('',#219,.T.);
#238=FACE_BOUND('',#220,.T.);
#239=FACE_BOUND('',#221,.T.);
#240=FACE_BOUND('',#222,.T.);
#241=FACE_BOUND('',#223,.T.);
#242=FACE_BOUND('',#224,.T.);
#243=FACE_BOUND('',#225,.T.);
#244=FACE_BOUND('',#226,.T.);
#245=FACE_BOUND('',#227,.T.);
#246=FACE_BOUND('',#228,.T.);
#247=PLANE('',#287);
#248=PLANE('',#288);
#249=PLANE('',#289);
#250=PLANE('',#290);
#251=PLANE('',#291);
#252=PLANE('',#293);
#253=PLANE('',#294);
#254=PLANE('',#295);
#255=PLANE('',#296);
#256=PLANE('',#297);
#257=PLANE('',#300);
#258=ADVANCED_FACE('',(#229),#247,.T.);
#259=ADVANCED_FACE('',(#230),#248,.F.);
#260=ADVANCED_FACE('',(#231),#249,.F.);
#261=ADVANCED_FACE('',(#232),#250,.T.);
#262=ADVANCED_FACE('',(#233,#234),#251,.T.);
#263=ADVANCED_FACE('',(#235),#252,.F.);
#264=ADVANCED_FACE('',(#236),#253,.F.);
#265=ADVANCED_FACE('',(#237),#254,.T.);
#266=ADVANCED_FACE('',(#238),#255,.F.);
#267=ADVANCED_FACE('',(#239),#256,.T.);
#268=ADVANCED_FACE('',(#240,#241),#16,.T.);
#269=ADVANCED_FACE('',(#242),#257,.T.);
#270=ADVANCED_FACE('',(#243),#12,.T.);
#271=ADVANCED_FACE('',(#244),#13,.T.);
#272=ADVANCED_FACE('',(#245),#14,.T.);
#273=ADVANCED_FACE('',(#246),#15,.T.);
#274=CLOSED_SHELL('',(#258,#259,#260,#261,#262,#263,#264,#265,#266,#267,
#268,#269,#270,#271,#272,#273));
#275=STYLED_ITEM('',(#276),#283);
#276=PRESENTATION_STYLE_ASSIGNMENT((#277));
#277=SURFACE_STYLE_USAGE(.BOTH.,#278);
#278=SURFACE_SIDE_STYLE('',(#279));
#279=SURFACE_STYLE_FILL_AREA(#280);
#280=FILL_AREA_STYLE('',(#281));
#281=FILL_AREA_STYLE_COLOUR('',#282);
#282=COLOUR_RGB('',0.764705882352941,0.545098039215686,0.803921568627451);
#283=MANIFOLD_SOLID_BREP('bearing_dc_connector',#274);
#284=SHAPE_DEFINITION_REPRESENTATION(#634,#285);
#285=SHAPE_REPRESENTATION('bearing_dc_connector',(#286),#629);
#286=AXIS2_PLACEMENT_3D('',#347,#301,#302);
#287=AXIS2_PLACEMENT_3D('',#348,#303,#304);
#288=AXIS2_PLACEMENT_3D('',#363,#307,#308);
#289=AXIS2_PLACEMENT_3D('',#378,#311,#312);
#290=AXIS2_PLACEMENT_3D('',#393,#315,#316);
#291=AXIS2_PLACEMENT_3D('',#408,#319,#320);
#292=AXIS2_PLACEMENT_3D('',#409,#321,#322);
#293=AXIS2_PLACEMENT_3D('',#467,#323,#324);
#294=AXIS2_PLACEMENT_3D('',#476,#329,#330);
#295=AXIS2_PLACEMENT_3D('',#499,#333,#334);
#296=AXIS2_PLACEMENT_3D('',#520,#336,#337);
#297=AXIS2_PLACEMENT_3D('',#541,#339,#340);
#298=AXIS2_PLACEMENT_3D('',#560,#341,#342);
#299=AXIS2_PLACEMENT_3D('',#561,#343,#344);
#300=AXIS2_PLACEMENT_3D('',#563,#345,#346);
#301=DIRECTION('',(0.,0.,1.));
#302=DIRECTION('',(1.,0.,0.));
#303=DIRECTION('',(1.0842021724855E-16,-1.,0.));
#304=DIRECTION('',(1.,1.0842021724855E-16,0.));
#305=DIRECTION('',(-1.,-1.0842021724855E-16,0.));
#306=DIRECTION('',(1.,1.0842021724855E-16,0.));
#307=DIRECTION('',(-1.,0.,0.));
#308=DIRECTION('',(0.,0.,1.));
#309=DIRECTION('',(0.,1.,0.));
#310=DIRECTION('',(0.,1.,0.));
#311=DIRECTION('',(2.16840434497101E-16,-1.,0.));
#312=DIRECTION('',(1.,2.16840434497101E-16,0.));
#313=DIRECTION('',(-1.,-2.16840434497101E-16,0.));
#314=DIRECTION('',(-1.,-2.16840434497101E-16,0.));
#315=DIRECTION('',(-1.,0.,0.));
#316=DIRECTION('',(0.,0.,1.));
#317=DIRECTION('',(0.,1.,0.));
#318=DIRECTION('',(0.,-1.,0.));
#319=DIRECTION('',(0.,0.,1.));
#320=DIRECTION('',(1.,0.,0.));
#321=DIRECTION('',(0.,0.,1.));
#322=DIRECTION('',(1.,0.,0.));
#323=DIRECTION('',(0.,0.,1.));
#324=DIRECTION('',(1.,0.,0.));
#325=DIRECTION('',(-1.,-1.0842021724855E-16,0.));
#326=DIRECTION('',(0.,1.,0.));
#327=DIRECTION('',(1.,2.16840434497101E-16,0.));
#328=DIRECTION('',(0.,-1.,0.));
#329=DIRECTION('',(-0.707106781186548,0.,0.707106781186548));
#330=DIRECTION('',(0.,1.,0.));
#331=DIRECTION('',(-0.577350269189626,-0.577350269189626,-0.577350269189626));
#332=DIRECTION('',(0.577350269189626,-0.577350269189626,0.577350269189626));
#333=DIRECTION('',(7.66646708341687E-17,-0.707106781186548,-0.707106781186548));
#334=DIRECTION('',(1.,1.0842021724855E-16,0.));
#335=DIRECTION('',(0.577350269189626,0.577350269189626,-0.577350269189626));
#336=DIRECTION('',(1.53329341668337E-16,-0.707106781186548,0.707106781186548));
#337=DIRECTION('',(-1.,-2.16840434497101E-16,0.));
#338=DIRECTION('',(0.577350269189626,-0.577350269189626,-0.577350269189626));
#339=DIRECTION('',(-0.707106781186548,0.,-0.707106781186548));
#340=DIRECTION('',(0.,-1.,0.));
#341=DIRECTION('',(0.,0.,-1.));
#342=DIRECTION('',(-1.,0.,0.));
#343=DIRECTION('',(0.,0.,1.));
#344=DIRECTION('',(1.,0.,0.));
#345=DIRECTION('',(0.,0.,1.));
#346=DIRECTION('',(1.,0.,0.));
#347=CARTESIAN_POINT('',(0.,0.,0.));
#348=CARTESIAN_POINT('',(0.,-0.004,0.004));
#349=CARTESIAN_POINT('',(0.,-0.004,0.004));
#350=CARTESIAN_POINT('',(0.0015,-0.004,0.004));
#351=CARTESIAN_POINT('',(-0.0015,-0.004,0.004));
#352=CARTESIAN_POINT('',(-0.0015,-0.004,0.00400000000000002));
#353=CARTESIAN_POINT('',(-0.0015,-0.004,0.00300000000000001));
#354=CARTESIAN_POINT('',(-0.0015,-0.004,0.00200000000000001));
#355=CARTESIAN_POINT('',(-0.0015,-0.004,0.001));
#356=CARTESIAN_POINT('',(-0.0015,-0.004,0.001));
#357=CARTESIAN_POINT('',(0.004,-0.004,0.001));
#358=CARTESIAN_POINT('',(0.0015,-0.004,0.001));
#359=CARTESIAN_POINT('',(0.0015,-0.004,0.001));
#360=CARTESIAN_POINT('',(0.0015,-0.004,0.00200000000000001));
#361=CARTESIAN_POINT('',(0.0015,-0.004,0.00300000000000001));
#362=CARTESIAN_POINT('',(0.0015,-0.004,0.00400000000000002));
#363=CARTESIAN_POINT('',(0.004,0.,0.004));
#364=CARTESIAN_POINT('',(0.004,0.,0.001));
#365=CARTESIAN_POINT('',(0.004,-0.0015,0.001));
#366=CARTESIAN_POINT('',(0.004,0.0015,0.001));
#367=CARTESIAN_POINT('',(0.004,0.0015,0.001));
#368=CARTESIAN_POINT('',(0.004,0.0015,0.00200000000000001));
#369=CARTESIAN_POINT('',(0.004,0.0015,0.00300000000000001));
#370=CARTESIAN_POINT('',(0.004,0.0015,0.00400000000000002));
#371=CARTESIAN_POINT('',(0.004,0.0015,0.004));
#372=CARTESIAN_POINT('',(0.004,0.,0.004));
#373=CARTESIAN_POINT('',(0.004,-0.0015,0.004));
#374=CARTESIAN_POINT('',(0.004,-0.0015,0.00400000000000002));
#375=CARTESIAN_POINT('',(0.004,-0.0015,0.00300000000000001));
#376=CARTESIAN_POINT('',(0.004,-0.0015,0.00200000000000001));
#377=CARTESIAN_POINT('',(0.004,-0.0015,0.001));
#378=CARTESIAN_POINT('',(0.,0.004,0.004));
#379=CARTESIAN_POINT('',(0.,0.004,0.001));
#380=CARTESIAN_POINT('',(0.0015,0.004,0.001));
#381=CARTESIAN_POINT('',(-0.0015,0.004,0.001));
#382=CARTESIAN_POINT('',(-0.0015,0.004,0.001));
#383=CARTESIAN_POINT('',(-0.0015,0.004,0.00200000000000001));
#384=CARTESIAN_POINT('',(-0.0015,0.004,0.00300000000000001));
#385=CARTESIAN_POINT('',(-0.0015,0.004,0.00400000000000002));
#386=CARTESIAN_POINT('',(-0.0015,0.004,0.004));
#387=CARTESIAN_POINT('',(0.,0.004,0.004));
#388=CARTESIAN_POINT('',(0.0015,0.004,0.004));
#389=CARTESIAN_POINT('',(0.0015,0.004,0.00400000000000002));
#390=CARTESIAN_POINT('',(0.0015,0.004,0.00300000000000001));
#391=CARTESIAN_POINT('',(0.0015,0.004,0.00200000000000001));
#392=CARTESIAN_POINT('',(0.0015,0.004,0.001));
#393=CARTESIAN_POINT('',(-0.004,0.,0.004));
#394=CARTESIAN_POINT('',(-0.004,0.,0.004));
#395=CARTESIAN_POINT('',(-0.004,-0.0015,0.004));
#396=CARTESIAN_POINT('',(-0.004,0.0015,0.004));
#397=CARTESIAN_POINT('',(-0.004,0.0015,0.00400000000000002));
#398=CARTESIAN_POINT('',(-0.004,0.0015,0.00300000000000001));
#399=CARTESIAN_POINT('',(-0.004,0.0015,0.00200000000000001));
#400=CARTESIAN_POINT('',(-0.004,0.0015,0.001));
#401=CARTESIAN_POINT('',(-0.004,0.0015,0.001));
#402=CARTESIAN_POINT('',(-0.004,-0.004,0.001));
#403=CARTESIAN_POINT('',(-0.004,-0.0015,0.001));
#404=CARTESIAN_POINT('',(-0.004,-0.0015,0.001));
#405=CARTESIAN_POINT('',(-0.004,-0.0015,0.00200000000000001));
#406=CARTESIAN_POINT('',(-0.004,-0.0015,0.00300000000000001));
#407=CARTESIAN_POINT('',(-0.004,-0.0015,0.00400000000000002));
#408=CARTESIAN_POINT('',(0.,0.,0.004));
#409=CARTESIAN_POINT('',(0.,9.18485099360515E-20,0.004));
#410=CARTESIAN_POINT('',(0.0015,9.18485099360515E-20,0.004));
#411=CARTESIAN_POINT('',(-0.0015,0.004,0.004));
#412=CARTESIAN_POINT('',(-0.00171223762107111,0.004,0.004));
#413=CARTESIAN_POINT('',(-0.00194202958112042,0.00399376730238454,0.004));
#414=CARTESIAN_POINT('',(-0.00225908859934867,0.00394655636165401,0.004));
#415=CARTESIAN_POINT('',(-0.00258926040147978,0.00386466523453928,0.004));
#416=CARTESIAN_POINT('',(-0.00299843418214515,0.00369081075944028,0.004));
#417=CARTESIAN_POINT('',(-0.00339457047316376,0.00338761527123831,0.004));
#418=CARTESIAN_POINT('',(-0.00369460838730957,0.00298639032880714,0.004));
#419=CARTESIAN_POINT('',(-0.00384205627579847,0.00265014285587311,0.004));
#420=CARTESIAN_POINT('',(-0.00391758411871789,0.00237569329079034,0.004));
#421=CARTESIAN_POINT('',(-0.00394576710454418,0.00224772891550181,0.004));
#422=CARTESIAN_POINT('',(-0.00398670666557845,0.00198175110946679,0.004));
#423=CARTESIAN_POINT('',(-0.004,0.00170688254904078,0.004));
#424=CARTESIAN_POINT('',(-0.004,0.0015,0.004));
#425=CARTESIAN_POINT('',(-0.004,-0.0015,0.004));
#426=CARTESIAN_POINT('',(-0.004,-0.00171223762107116,0.004));
#427=CARTESIAN_POINT('',(-0.00399376730238455,-0.00194202958112042,0.004));
#428=CARTESIAN_POINT('',(-0.003946556361654,-0.00225908859934871,0.004));
#429=CARTESIAN_POINT('',(-0.00386466523453927,-0.0025892604014798,0.004));
#430=CARTESIAN_POINT('',(-0.00369081075944027,-0.0029984341821452,0.004));
#431=CARTESIAN_POINT('',(-0.00338761527123822,-0.00339457047316388,0.004));
#432=CARTESIAN_POINT('',(-0.0029863903288074,-0.00369460838730931,0.004));
#433=CARTESIAN_POINT('',(-0.00265014285587364,-0.00384205627579811,0.004));
#434=CARTESIAN_POINT('',(-0.00237569329079025,-0.00391758411871789,0.004));
#435=CARTESIAN_POINT('',(-0.00224772891550224,-0.00394576710454417,0.004));
#436=CARTESIAN_POINT('',(-0.00198175110946756,-0.00398670666557845,0.004));
#437=CARTESIAN_POINT('',(-0.00170688254904127,-0.004,0.004));
#438=CARTESIAN_POINT('',(-0.0015,-0.004,0.004));
#439=CARTESIAN_POINT('',(0.0015,-0.004,0.004));
#440=CARTESIAN_POINT('',(0.00171223762107125,-0.004,0.004));
#441=CARTESIAN_POINT('',(0.0019420295811202,-0.0039937673023846,0.004));
#442=CARTESIAN_POINT('',(0.00225908859934916,-0.00394655636165392,0.004));
#443=CARTESIAN_POINT('',(0.00258926040148006,-0.00386466523453926,0.004));
#444=CARTESIAN_POINT('',(0.00299843418214511,-0.00369081075944007,0.004));
#445=CARTESIAN_POINT('',(0.00339457047316381,-0.00338761527123812,0.004));
#446=CARTESIAN_POINT('',(0.00369460838730957,-0.00298639032880726,0.004));
#447=CARTESIAN_POINT('',(0.0038420562757985,-0.00265014285587317,0.004));
#448=CARTESIAN_POINT('',(0.00391758411871789,-0.00237569329079035,0.004));
#449=CARTESIAN_POINT('',(0.00394576710454418,-0.00224772891550173,0.004));
#450=CARTESIAN_POINT('',(0.00398670666557845,-0.00198175110946664,0.004));
#451=CARTESIAN_POINT('',(0.004,-0.00170688254904069,0.004));
#452=CARTESIAN_POINT('',(0.004,-0.0015,0.004));
#453=CARTESIAN_POINT('',(0.004,0.0015,0.004));
#454=CARTESIAN_POINT('',(0.004,0.0017122376210712,0.004));
#455=CARTESIAN_POINT('',(0.00399376730238453,0.00194202958112057,0.004));
#456=CARTESIAN_POINT('',(0.00394655636165402,0.0022590885993485,0.004));
#457=CARTESIAN_POINT('',(0.00386466523453927,0.00258926040147969,0.004));
#458=CARTESIAN_POINT('',(0.00369081075944038,0.00299843418214522,0.004));
#459=CARTESIAN_POINT('',(0.00338761527123845,0.00339457047316376,0.004));
#460=CARTESIAN_POINT('',(0.00298639032880696,0.00369460838730962,0.004));
#461=CARTESIAN_POINT('',(0.00265014285587286,0.00384205627579856,0.004));
#462=CARTESIAN_POINT('',(0.00237569329079035,0.00391758411871788,0.004));
#463=CARTESIAN_POINT('',(0.00224772891550177,0.00394576710454418,0.004));
#464=CARTESIAN_POINT('',(0.00198175110946672,0.00398670666557845,0.004));
#465=CARTESIAN_POINT('',(0.00170688254904074,0.004,0.004));
#466=CARTESIAN_POINT('',(0.0015,0.004,0.004));
#467=CARTESIAN_POINT('',(0.,0.,0.));
#468=CARTESIAN_POINT('',(-0.004,-0.003,0.));
#469=CARTESIAN_POINT('',(0.003,-0.003,0.));
#470=CARTESIAN_POINT('',(-0.003,-0.003,0.));
#471=CARTESIAN_POINT('',(-0.003,0.004,0.));
#472=CARTESIAN_POINT('',(-0.003,0.003,0.));
#473=CARTESIAN_POINT('',(-6.50521303491303E-19,0.003,0.));
#474=CARTESIAN_POINT('',(0.003,0.003,0.));
#475=CARTESIAN_POINT('',(0.003,0.,0.));
#476=CARTESIAN_POINT('',(0.004,0.,0.001));
#477=CARTESIAN_POINT('',(0.00266666666666666,0.00266666666666666,-0.000333333333333334));
#478=CARTESIAN_POINT('',(0.003375,0.003375,0.000375));
#479=CARTESIAN_POINT('',(0.003375,0.003375,0.000374999999999999));
#480=CARTESIAN_POINT('',(0.00348413181497203,0.00326586818502797,0.000484131814972027));
#481=CARTESIAN_POINT('',(0.00367446944469097,0.00302182006082233,0.000674469444690972));
#482=CARTESIAN_POINT('',(0.00384518958944503,0.0026416468195311,0.000845189589445026));
#483=CARTESIAN_POINT('',(0.00393674097510882,0.00231161370556198,0.00093674097510882));
#484=CARTESIAN_POINT('',(0.00398238125268819,0.00202573210600536,0.000982381252688191));
#485=CARTESIAN_POINT('',(0.00399513392116222,0.00182537928104802,0.000995133921162217));
#486=CARTESIAN_POINT('',(0.004,0.00161394389826874,0.001));
#487=CARTESIAN_POINT('',(0.004,0.0015,0.001));
#488=CARTESIAN_POINT('',(0.004,-0.0015,0.001));
#489=CARTESIAN_POINT('',(0.004,-0.00161300677202964,0.001));
#490=CARTESIAN_POINT('',(0.00399521445896042,-0.00182282885735337,0.000995214458960422));
#491=CARTESIAN_POINT('',(0.00398273205572594,-0.0020221642139256,0.000982732055725937));
#492=CARTESIAN_POINT('',(0.00393778796648548,-0.00230657198470468,0.000937787966485483));
#493=CARTESIAN_POINT('',(0.00384711549468981,-0.00263649028854268,0.000847115494689805));
#494=CARTESIAN_POINT('',(0.00367606871335105,-0.00301989948684437,0.000676068713351046));
#495=CARTESIAN_POINT('',(0.00348482140638501,-0.00326517859361499,0.000484821406385006));
#496=CARTESIAN_POINT('',(0.003375,-0.003375,0.000374999999999999));
#497=CARTESIAN_POINT('',(0.003375,-0.003375,0.000375));
#498=CARTESIAN_POINT('',(0.00266666666666666,-0.00266666666666666,-0.000333333333333333));
#499=CARTESIAN_POINT('',(3.25260651745652E-19,-0.003,0.));
#500=CARTESIAN_POINT('',(-0.0015,-0.004,0.001));
#501=CARTESIAN_POINT('',(-0.00161300677202925,-0.004,0.001));
#502=CARTESIAN_POINT('',(-0.00182282885735238,-0.00399521445896044,0.000995214458960444));
#503=CARTESIAN_POINT('',(-0.00202216421392614,-0.00398273205572586,0.00098273205572586));
#504=CARTESIAN_POINT('',(-0.00230657198470348,-0.00393778796648577,0.000937787966485774));
#505=CARTESIAN_POINT('',(-0.0026364902885434,-0.00384711549468961,0.000847115494689611));
#506=CARTESIAN_POINT('',(-0.00301989948684389,-0.00367606871335134,0.000676068713351341));
#507=CARTESIAN_POINT('',(-0.00326517859361489,-0.00348482140638511,0.000484821406385106));
#508=CARTESIAN_POINT('',(-0.003375,-0.003375,0.000375000000000002));
#509=CARTESIAN_POINT('',(-0.003375,-0.003375,0.000375));
#510=CARTESIAN_POINT('',(-0.002,-0.002,-0.001));
#511=CARTESIAN_POINT('',(0.003375,-0.003375,0.000375));
#512=CARTESIAN_POINT('',(0.00326586818502832,-0.00348413181497168,0.000484131814971684));
#513=CARTESIAN_POINT('',(0.00302182006082329,-0.00367446944469016,0.000674469444690165));
#514=CARTESIAN_POINT('',(0.00264164681953062,-0.00384518958944509,0.000845189589445095));
#515=CARTESIAN_POINT('',(0.00231161370556265,-0.00393674097510886,0.00093674097510886));
#516=CARTESIAN_POINT('',(0.00202573210600538,-0.00398238125268818,0.000982381252688181));
#517=CARTESIAN_POINT('',(0.00182537928104726,-0.00399513392116222,0.000995133921162222));
#518=CARTESIAN_POINT('',(0.00161394389826839,-0.004,0.001));
#519=CARTESIAN_POINT('',(0.0015,-0.004,0.001));
#520=CARTESIAN_POINT('',(0.,0.004,0.001));
#521=CARTESIAN_POINT('',(-0.00266666666666666,0.00266666666666666,-0.000333333333333334));
#522=CARTESIAN_POINT('',(-0.003375,0.003375,0.000375));
#523=CARTESIAN_POINT('',(-0.003375,0.003375,0.000375));
#524=CARTESIAN_POINT('',(-0.00326586818502833,0.00348413181497167,0.000484131814971674));
#525=CARTESIAN_POINT('',(-0.00302182006082325,0.00367446944469016,0.000674469444690162));
#526=CARTESIAN_POINT('',(-0.00264164681953078,0.00384518958944504,0.000845189589445043));
#527=CARTESIAN_POINT('',(-0.00231161370556238,0.00393674097510895,0.000936740975108951));
#528=CARTESIAN_POINT('',(-0.00202573210600554,0.00398238125268816,0.000982381252688155));
#529=CARTESIAN_POINT('',(-0.00182537928104688,0.00399513392116223,0.000995133921162227));
#530=CARTESIAN_POINT('',(-0.00161394389826824,0.004,0.001));
#531=CARTESIAN_POINT('',(-0.0015,0.004,0.001));
#532=CARTESIAN_POINT('',(0.0015,0.004,0.001));
#533=CARTESIAN_POINT('',(0.00161300677202931,0.004,0.001));
#534=CARTESIAN_POINT('',(0.00182282885735251,0.00399521445896045,0.000995214458960445));
#535=CARTESIAN_POINT('',(0.00202216421392618,0.00398273205572586,0.000982732055725857));
#536=CARTESIAN_POINT('',(0.00230657198470322,0.00393778796648578,0.000937787966485782));
#537=CARTESIAN_POINT('',(0.00263649028854357,0.00384711549468958,0.00084711549468958));
#538=CARTESIAN_POINT('',(0.0030198994868436,0.00367606871335157,0.000676068713351572));
#539=CARTESIAN_POINT('',(0.0032651785936148,0.0034848214063852,0.000484821406385202));
#540=CARTESIAN_POINT('',(0.003375,0.003375,0.000375));
#541=CARTESIAN_POINT('',(-0.003,0.,0.));
#542=CARTESIAN_POINT('',(-0.004,0.0015,0.001));
#543=CARTESIAN_POINT('',(-0.004,0.0016130067720295,0.001));
#544=CARTESIAN_POINT('',(-0.00399521445896043,0.00182282885735303,0.000995214458960427));
#545=CARTESIAN_POINT('',(-0.00398273205572592,0.00202216421392574,0.000982732055725918));
#546=CARTESIAN_POINT('',(-0.00393778796648556,0.00230657198470447,0.00093778796648556));
#547=CARTESIAN_POINT('',(-0.00384711549468977,0.00263649028854279,0.000847115494689766));
#548=CARTESIAN_POINT('',(-0.00367606871335101,0.00301989948684438,0.000676068713351012));
#549=CARTESIAN_POINT('',(-0.00348482140638499,0.00326517859361502,0.000484821406384986));
#550=CARTESIAN_POINT('',(-0.003375,0.003375,0.000375));
#551=CARTESIAN_POINT('',(-0.003375,-0.003375,0.000375));
#552=CARTESIAN_POINT('',(-0.00348413181497172,-0.00326586818502828,0.000484131814971722));
#553=CARTESIAN_POINT('',(-0.00367446944469022,-0.0030218200608233,0.000674469444690218));
#554=CARTESIAN_POINT('',(-0.00384518958944519,-0.00264164681953034,0.000845189589445189));
#555=CARTESIAN_POINT('',(-0.00393674097510868,-0.00231161370556317,0.000936740975108677));
#556=CARTESIAN_POINT('',(-0.00398238125268823,-0.00202573210600505,0.000982381252688231));
#557=CARTESIAN_POINT('',(-0.00399513392116221,-0.00182537928104805,0.000995133921162206));
#558=CARTESIAN_POINT('',(-0.004,-0.00161394389826872,0.001));
#559=CARTESIAN_POINT('',(-0.004,-0.0015,0.001));
#560=CARTESIAN_POINT('',(0.,9.18485099360515E-20,0.013));
#561=CARTESIAN_POINT('',(0.,9.18485099360515E-20,0.013));
#562=CARTESIAN_POINT('',(0.0015,9.18485099360515E-20,0.013));
#563=CARTESIAN_POINT('',(0.,0.,0.013));
#564=CARTESIAN_POINT('',(-0.0015,0.004,0.00035325));
#565=CARTESIAN_POINT('',(-0.0015,0.004,0.00400000000000002));
#566=CARTESIAN_POINT('',(-0.001875,0.004,0.00035325));
#567=CARTESIAN_POINT('',(-0.001875,0.004,0.00400000000000002));
#568=CARTESIAN_POINT('',(-0.00225,0.004,0.00035325));
#569=CARTESIAN_POINT('',(-0.00225,0.004,0.00400000000000002));
#570=CARTESIAN_POINT('',(-0.00316666666666667,0.00375,0.00035325));
#571=CARTESIAN_POINT('',(-0.00316666666666667,0.00375,0.00400000000000002));
#572=CARTESIAN_POINT('',(-0.00375,0.00316666666666666,0.00035325));
#573=CARTESIAN_POINT('',(-0.00375,0.00316666666666666,0.00400000000000002));
#574=CARTESIAN_POINT('',(-0.004,0.00225,0.00035325));
#575=CARTESIAN_POINT('',(-0.004,0.00225,0.00400000000000002));
#576=CARTESIAN_POINT('',(-0.004,0.001875,0.00035325));
#577=CARTESIAN_POINT('',(-0.004,0.001875,0.00400000000000002));
#578=CARTESIAN_POINT('',(-0.004,0.0015,0.00035325));
#579=CARTESIAN_POINT('',(-0.004,0.0015,0.00400000000000002));
#580=CARTESIAN_POINT('',(0.0015,0.004,0.00400000000000002));
#581=CARTESIAN_POINT('',(0.0015,0.004,0.000353249999999999));
#582=CARTESIAN_POINT('',(0.001875,0.004,0.00400000000000002));
#583=CARTESIAN_POINT('',(0.001875,0.004,0.000353249999999999));
#584=CARTESIAN_POINT('',(0.00225,0.004,0.00400000000000002));
#585=CARTESIAN_POINT('',(0.00225,0.004,0.000353249999999999));
#586=CARTESIAN_POINT('',(0.00316666666666666,0.00375,0.00400000000000002));
#587=CARTESIAN_POINT('',(0.00316666666666666,0.00375,0.000353249999999999));
#588=CARTESIAN_POINT('',(0.00375,0.00316666666666666,0.00400000000000002));
#589=CARTESIAN_POINT('',(0.00375,0.00316666666666666,0.000353249999999999));
#590=CARTESIAN_POINT('',(0.004,0.00225,0.00400000000000002));
#591=CARTESIAN_POINT('',(0.004,0.00225,0.000353249999999999));
#592=CARTESIAN_POINT('',(0.004,0.001875,0.00400000000000002));
#593=CARTESIAN_POINT('',(0.004,0.001875,0.000353249999999999));
#594=CARTESIAN_POINT('',(0.004,0.0015,0.00400000000000002));
#595=CARTESIAN_POINT('',(0.004,0.0015,0.000353249999999999));
#596=CARTESIAN_POINT('',(-0.0015,-0.004,0.00400000000000002));
#597=CARTESIAN_POINT('',(-0.0015,-0.004,0.00035325));
#598=CARTESIAN_POINT('',(-0.001875,-0.004,0.00400000000000002));
#599=CARTESIAN_POINT('',(-0.001875,-0.004,0.00035325));
#600=CARTESIAN_POINT('',(-0.00225,-0.004,0.00400000000000002));
#601=CARTESIAN_POINT('',(-0.00225,-0.004,0.00035325));
#602=CARTESIAN_POINT('',(-0.00316666666666666,-0.00375,0.00400000000000002));
#603=CARTESIAN_POINT('',(-0.00316666666666666,-0.00375,0.00035325));
#604=CARTESIAN_POINT('',(-0.00375,-0.00316666666666667,0.00400000000000002));
#605=CARTESIAN_POINT('',(-0.00375,-0.00316666666666667,0.00035325));
#606=CARTESIAN_POINT('',(-0.004,-0.00225,0.00400000000000002));
#607=CARTESIAN_POINT('',(-0.004,-0.00225,0.00035325));
#608=CARTESIAN_POINT('',(-0.004,-0.001875,0.00400000000000002));
#609=CARTESIAN_POINT('',(-0.004,-0.001875,0.00035325));
#610=CARTESIAN_POINT('',(-0.004,-0.0015,0.00400000000000002));
#611=CARTESIAN_POINT('',(-0.004,-0.0015,0.00035325));
#612=CARTESIAN_POINT('',(0.0015,-0.004,0.000353249999999999));
#613=CARTESIAN_POINT('',(0.0015,-0.004,0.00400000000000002));
#614=CARTESIAN_POINT('',(0.001875,-0.004,0.000353249999999999));
#615=CARTESIAN_POINT('',(0.001875,-0.004,0.00400000000000002));
#616=CARTESIAN_POINT('',(0.00225,-0.004,0.000353249999999999));
#617=CARTESIAN_POINT('',(0.00225,-0.004,0.00400000000000002));
#618=CARTESIAN_POINT('',(0.00316666666666666,-0.00375,0.000353249999999999));
#619=CARTESIAN_POINT('',(0.00316666666666666,-0.00375,0.00400000000000002));
#620=CARTESIAN_POINT('',(0.00375,-0.00316666666666666,0.000353249999999999));
#621=CARTESIAN_POINT('',(0.00375,-0.00316666666666666,0.00400000000000002));
#622=CARTESIAN_POINT('',(0.004,-0.00225,0.000353249999999999));
#623=CARTESIAN_POINT('',(0.004,-0.00225,0.00400000000000002));
#624=CARTESIAN_POINT('',(0.004,-0.001875,0.000353249999999999));
#625=CARTESIAN_POINT('',(0.004,-0.001875,0.00400000000000002));
#626=CARTESIAN_POINT('',(0.004,-0.0015,0.000353249999999999));
#627=CARTESIAN_POINT('',(0.004,-0.0015,0.00400000000000002));
#628=MECHANICAL_DESIGN_GEOMETRIC_PRESENTATION_REPRESENTATION('',(#275),
#629);
#629=(
GEOMETRIC_REPRESENTATION_CONTEXT(3)
GLOBAL_UNCERTAINTY_ASSIGNED_CONTEXT((#630))
GLOBAL_UNIT_ASSIGNED_CONTEXT((#633,#632,#631))
REPRESENTATION_CONTEXT('bearing_dc_connector','TOP_LEVEL_ASSEMBLY_PART')
);
#630=UNCERTAINTY_MEASURE_WITH_UNIT(LENGTH_MEASURE(2.E-5),#633,
'DISTANCE_ACCURACY_VALUE','Maximum Tolerance applied to model');
#631=(
NAMED_UNIT(*)
SI_UNIT($,.STERADIAN.)
SOLID_ANGLE_UNIT()
);
#632=(
NAMED_UNIT(*)
PLANE_ANGLE_UNIT()
SI_UNIT($,.RADIAN.)
);
#633=(
LENGTH_UNIT()
NAMED_UNIT(*)
SI_UNIT($,.METRE.)
);
#634=PRODUCT_DEFINITION_SHAPE('','',#635);
#635=PRODUCT_DEFINITION('','',#637,#636);
#636=PRODUCT_DEFINITION_CONTEXT('',#643,'design');
#637=PRODUCT_DEFINITION_FORMATION_WITH_SPECIFIED_SOURCE('','',#639,
 .NOT_KNOWN.);
#638=PRODUCT_RELATED_PRODUCT_CATEGORY('','',(#639));
#639=PRODUCT('bearing_dc_connector','bearing_dc_connector',
'bearing_dc_connector',(#641));
#640=PRODUCT_CATEGORY('','');
#641=PRODUCT_CONTEXT('',#643,'mechanical');
#642=APPLICATION_PROTOCOL_DEFINITION('international standard',
'ap242_managed_model_based_3d_engineering',2020,#643);
#643=APPLICATION_CONTEXT('managed model based 3d engineering');
ENDSEC;
END-ISO-10303-21;
