ISO-10303-21;
HEADER;
/* Generated by software containing ST-Developer
 * from STEP Tools, Inc. (www.steptools.com) 
 */
/* OPTION: using custom renumber hook */

FILE_DESCRIPTION(
/* description */ ('STEP AP242 Edition 2',
'CAx-IF Rec.Pracs.---Representation and Presentation of Product Manufa
cturing Information (PMI)---4.0---2014-10-13',
'CAx-IF Rec.Pracs.---3D Tessellated Geometry---0.4---2014-09-14','2;1',
'CAx-IF Rec.Pracs.---User Defined Attributes---1.5---2016-08-15'),
/* implementation_level */ '2;1');

FILE_NAME(
/* name */ 'Assembly 1 - box',
/* time_stamp */ '2026-08-18T11:49:10Z',
/* author */ (''),
/* organization */ (''),
/* preprocessor_version */ 'ST-DEVELOPER v20',
/* originating_system */ 'ONSHAPE BY PTC INC, 1.219',
/* authorisation */ '  ');

FILE_SCHEMA (('AP242_MANAGED_MODEL_BASED_3D_ENGINEERING_MIM_LF { 1 0 10303 442 3 1 4 }'));
ENDSEC;

DATA;
#10=SHAPE_REPRESENTATION_RELATIONSHIP('','',#361,#11);
#11=ADVANCED_BREP_SHAPE_REPRESENTATION('',(#359),#662);
#12=ORIENTED_CLOSED_SHELL('',*,#349,.F.);
#13=ORIENTED_CLOSED_SHELL('',*,#350,.F.);
#14=B_SPLINE_SURFACE_WITH_KNOTS('',5,1,((#614,#615),(#616,#617),(#618,#619),
(#620,#621),(#622,#623),(#624,#625),(#626,#627),(#628,#629)),
 .SURF_OF_LINEAR_EXTRUSION.,.F.,.F.,.F.,(6,2,6),(2,2),(0.,0.5,1.),(0.,1.),
 .UNSPECIFIED.);
#15=B_SPLINE_SURFACE_WITH_KNOTS('',5,1,((#630,#631),(#632,#633),(#634,#635),
(#636,#637),(#638,#639),(#640,#641),(#642,#643),(#644,#645)),
 .SURF_OF_LINEAR_EXTRUSION.,.F.,.F.,.F.,(6,2,6),(2,2),(0.,0.5,1.),(0.,1.),
 .UNSPECIFIED.);
#16=CYLINDRICAL_SURFACE('',#378,0.00196442930462922);
#17=CYLINDRICAL_SURFACE('',#379,0.00196442930462921);
#18=CYLINDRICAL_SURFACE('',#383,0.0031);
#19=CYLINDRICAL_SURFACE('',#390,0.0031);
#20=CIRCLE('',#365,0.00196442930462922);
#21=CIRCLE('',#367,0.00196442930462921);
#22=CIRCLE('',#369,0.00196442930462921);
#23=CIRCLE('',#372,0.00196442930462922);
#24=CIRCLE('',#382,0.0031);
#25=CIRCLE('',#384,0.0031);
#26=CIRCLE('',#387,0.0031);
#27=CIRCLE('',#389,0.0031);
#28=B_SPLINE_CURVE_WITH_KNOTS('',3,(#480,#481,#482,#483),.UNSPECIFIED.,
 .F.,.F.,(4,4),(0.,1.),.UNSPECIFIED.);
#29=B_SPLINE_CURVE_WITH_KNOTS('',3,(#487,#488,#489,#490),.UNSPECIFIED.,
 .F.,.F.,(4,4),(0.,1.),.UNSPECIFIED.);
#30=B_SPLINE_CURVE_WITH_KNOTS('',3,(#503,#504,#505,#506),.UNSPECIFIED.,
 .F.,.F.,(4,4),(0.,1.),.UNSPECIFIED.);
#31=B_SPLINE_CURVE_WITH_KNOTS('',3,(#515,#516,#517,#518),.UNSPECIFIED.,
 .F.,.F.,(4,4),(0.,1.),.UNSPECIFIED.);
#32=B_SPLINE_CURVE_WITH_KNOTS('',3,(#553,#554,#555,#556),.UNSPECIFIED.,
 .F.,.F.,(4,4),(0.,1.),.UNSPECIFIED.);
#33=B_SPLINE_CURVE_WITH_KNOTS('',3,(#558,#559,#560,#561),.UNSPECIFIED.,
 .F.,.F.,(4,4),(0.,1.),.UNSPECIFIED.);
#34=B_SPLINE_CURVE_WITH_KNOTS('',3,(#566,#567,#568,#569),.UNSPECIFIED.,
 .F.,.F.,(4,4),(1.24999999934205E-7,1.),.UNSPECIFIED.);
#35=B_SPLINE_CURVE_WITH_KNOTS('',3,(#570,#571,#572,#573),.UNSPECIFIED.,
 .F.,.F.,(4,4),(1.24999999934205E-7,1.),.UNSPECIFIED.);
#36=B_SPLINE_CURVE_WITH_KNOTS('',3,(#577,#578,#579,#580),.UNSPECIFIED.,
 .F.,.F.,(4,4),(0.,1.),.UNSPECIFIED.);
#37=B_SPLINE_CURVE_WITH_KNOTS('',3,(#581,#582,#583,#584,#585,#586,#587,
#588,#589,#590,#591,#592),.UNSPECIFIED.,.F.,.F.,(4,1,1,1,1,1,1,1,1,4),(0.,
0.125,0.25,0.375,0.5,0.625,0.75,0.8125,0.875,1.),.UNSPECIFIED.);
#38=B_SPLINE_CURVE_WITH_KNOTS('',3,(#593,#594,#595,#596,#597,#598,#599,
#600,#601,#602,#603,#604,#605,#606,#607),.UNSPECIFIED.,.F.,.F.,(4,1,1,1,
1,1,1,1,1,1,1,1,4),(0.,0.125,0.1875,0.25,0.375,0.5,0.625,0.6875,0.75,0.8125,
0.84375,0.875,1.),.UNSPECIFIED.);
#39=B_SPLINE_CURVE_WITH_KNOTS('',3,(#608,#609,#610,#611),.UNSPECIFIED.,
 .F.,.F.,(4,4),(0.,1.),.UNSPECIFIED.);
#40=ORIENTED_EDGE('',*,*,#132,.T.);
#41=ORIENTED_EDGE('',*,*,#133,.T.);
#42=ORIENTED_EDGE('',*,*,#134,.F.);
#43=ORIENTED_EDGE('',*,*,#135,.T.);
#44=ORIENTED_EDGE('',*,*,#136,.T.);
#45=ORIENTED_EDGE('',*,*,#137,.T.);
#46=ORIENTED_EDGE('',*,*,#138,.T.);
#47=ORIENTED_EDGE('',*,*,#139,.T.);
#48=ORIENTED_EDGE('',*,*,#140,.F.);
#49=ORIENTED_EDGE('',*,*,#141,.T.);
#50=ORIENTED_EDGE('',*,*,#142,.F.);
#51=ORIENTED_EDGE('',*,*,#143,.T.);
#52=ORIENTED_EDGE('',*,*,#144,.F.);
#53=ORIENTED_EDGE('',*,*,#145,.T.);
#54=ORIENTED_EDGE('',*,*,#146,.T.);
#55=ORIENTED_EDGE('',*,*,#147,.F.);
#56=ORIENTED_EDGE('',*,*,#148,.T.);
#57=ORIENTED_EDGE('',*,*,#149,.T.);
#58=ORIENTED_EDGE('',*,*,#150,.T.);
#59=ORIENTED_EDGE('',*,*,#151,.T.);
#60=ORIENTED_EDGE('',*,*,#152,.T.);
#61=ORIENTED_EDGE('',*,*,#153,.F.);
#62=ORIENTED_EDGE('',*,*,#154,.F.);
#63=ORIENTED_EDGE('',*,*,#153,.T.);
#64=ORIENTED_EDGE('',*,*,#155,.F.);
#65=ORIENTED_EDGE('',*,*,#156,.F.);
#66=ORIENTED_EDGE('',*,*,#157,.F.);
#67=ORIENTED_EDGE('',*,*,#158,.T.);
#68=ORIENTED_EDGE('',*,*,#159,.F.);
#69=ORIENTED_EDGE('',*,*,#156,.T.);
#70=ORIENTED_EDGE('',*,*,#160,.F.);
#71=ORIENTED_EDGE('',*,*,#161,.F.);
#72=ORIENTED_EDGE('',*,*,#134,.T.);
#73=ORIENTED_EDGE('',*,*,#162,.T.);
#74=ORIENTED_EDGE('',*,*,#140,.T.);
#75=ORIENTED_EDGE('',*,*,#163,.F.);
#76=ORIENTED_EDGE('',*,*,#146,.F.);
#77=ORIENTED_EDGE('',*,*,#164,.T.);
#78=ORIENTED_EDGE('',*,*,#161,.T.);
#79=ORIENTED_EDGE('',*,*,#165,.T.);
#80=ORIENTED_EDGE('',*,*,#151,.F.);
#81=ORIENTED_EDGE('',*,*,#166,.T.);
#82=ORIENTED_EDGE('',*,*,#138,.F.);
#83=ORIENTED_EDGE('',*,*,#167,.T.);
#84=ORIENTED_EDGE('',*,*,#157,.T.);
#85=ORIENTED_EDGE('',*,*,#166,.F.);
#86=ORIENTED_EDGE('',*,*,#150,.F.);
#87=ORIENTED_EDGE('',*,*,#168,.T.);
#88=ORIENTED_EDGE('',*,*,#142,.T.);
#89=ORIENTED_EDGE('',*,*,#169,.T.);
#90=ORIENTED_EDGE('',*,*,#152,.F.);
#91=ORIENTED_EDGE('',*,*,#165,.F.);
#92=ORIENTED_EDGE('',*,*,#160,.T.);
#93=ORIENTED_EDGE('',*,*,#155,.T.);
#94=ORIENTED_EDGE('',*,*,#159,.T.);
#95=ORIENTED_EDGE('',*,*,#170,.T.);
#96=ORIENTED_EDGE('',*,*,#136,.F.);
#97=ORIENTED_EDGE('',*,*,#171,.T.);
#98=ORIENTED_EDGE('',*,*,#132,.F.);
#99=ORIENTED_EDGE('',*,*,#172,.T.);
#100=ORIENTED_EDGE('',*,*,#144,.T.);
#101=ORIENTED_EDGE('',*,*,#173,.T.);
#102=ORIENTED_EDGE('',*,*,#148,.F.);
#103=ORIENTED_EDGE('',*,*,#154,.T.);
#104=ORIENTED_EDGE('',*,*,#158,.F.);
#105=ORIENTED_EDGE('',*,*,#167,.F.);
#106=ORIENTED_EDGE('',*,*,#137,.F.);
#107=ORIENTED_EDGE('',*,*,#170,.F.);
#108=ORIENTED_EDGE('',*,*,#143,.F.);
#109=ORIENTED_EDGE('',*,*,#168,.F.);
#110=ORIENTED_EDGE('',*,*,#149,.F.);
#111=ORIENTED_EDGE('',*,*,#173,.F.);
#112=ORIENTED_EDGE('',*,*,#171,.F.);
#113=ORIENTED_EDGE('',*,*,#141,.F.);
#114=ORIENTED_EDGE('',*,*,#162,.F.);
#115=ORIENTED_EDGE('',*,*,#133,.F.);
#116=ORIENTED_EDGE('',*,*,#172,.F.);
#117=ORIENTED_EDGE('',*,*,#135,.F.);
#118=ORIENTED_EDGE('',*,*,#164,.F.);
#119=ORIENTED_EDGE('',*,*,#145,.F.);
#120=ORIENTED_EDGE('',*,*,#147,.T.);
#121=ORIENTED_EDGE('',*,*,#163,.T.);
#122=ORIENTED_EDGE('',*,*,#139,.F.);
#123=ORIENTED_EDGE('',*,*,#169,.F.);
#124=ORIENTED_EDGE('',*,*,#174,.T.);
#125=ORIENTED_EDGE('',*,*,#174,.F.);
#126=ORIENTED_EDGE('',*,*,#175,.T.);
#127=ORIENTED_EDGE('',*,*,#175,.F.);
#128=ORIENTED_EDGE('',*,*,#176,.T.);
#129=ORIENTED_EDGE('',*,*,#177,.F.);
#130=ORIENTED_EDGE('',*,*,#177,.T.);
#131=ORIENTED_EDGE('',*,*,#176,.F.);
#132=EDGE_CURVE('',#178,#179,#210,.T.);
#133=EDGE_CURVE('',#179,#180,#28,.T.);
#134=EDGE_CURVE('',#181,#180,#211,.T.);
#135=EDGE_CURVE('',#181,#178,#29,.T.);
#136=EDGE_CURVE('',#182,#183,#212,.T.);
#137=EDGE_CURVE('',#183,#184,#20,.T.);
#138=EDGE_CURVE('',#184,#185,#213,.T.);
#139=EDGE_CURVE('',#185,#186,#214,.T.);
#140=EDGE_CURVE('',#187,#186,#215,.T.);
#141=EDGE_CURVE('',#187,#182,#30,.T.);
#142=EDGE_CURVE('',#188,#189,#216,.T.);
#143=EDGE_CURVE('',#188,#190,#21,.F.);
#144=EDGE_CURVE('',#191,#190,#217,.T.);
#145=EDGE_CURVE('',#191,#192,#31,.T.);
#146=EDGE_CURVE('',#192,#193,#218,.T.);
#147=EDGE_CURVE('',#189,#193,#219,.T.);
#148=EDGE_CURVE('',#194,#195,#220,.T.);
#149=EDGE_CURVE('',#195,#196,#22,.T.);
#150=EDGE_CURVE('',#196,#197,#221,.T.);
#151=EDGE_CURVE('',#197,#198,#222,.T.);
#152=EDGE_CURVE('',#198,#199,#223,.T.);
#153=EDGE_CURVE('',#194,#199,#224,.T.);
#154=EDGE_CURVE('',#194,#200,#225,.T.);
#155=EDGE_CURVE('',#201,#199,#226,.T.);
#156=EDGE_CURVE('',#200,#201,#227,.T.);
#157=EDGE_CURVE('',#202,#203,#228,.T.);
#158=EDGE_CURVE('',#202,#204,#23,.F.);
#159=EDGE_CURVE('',#200,#204,#229,.T.);
#160=EDGE_CURVE('',#205,#201,#230,.T.);
#161=EDGE_CURVE('',#203,#205,#231,.T.);
#162=EDGE_CURVE('',#180,#187,#32,.T.);
#163=EDGE_CURVE('',#193,#186,#232,.T.);
#164=EDGE_CURVE('',#192,#181,#33,.T.);
#165=EDGE_CURVE('',#205,#198,#233,.T.);
#166=EDGE_CURVE('',#197,#203,#234,.T.);
#167=EDGE_CURVE('',#184,#202,#34,.T.);
#168=EDGE_CURVE('',#196,#188,#35,.T.);
#169=EDGE_CURVE('',#189,#185,#235,.T.);
#170=EDGE_CURVE('',#204,#183,#36,.T.);
#171=EDGE_CURVE('',#182,#179,#37,.T.);
#172=EDGE_CURVE('',#178,#191,#38,.T.);
#173=EDGE_CURVE('',#190,#195,#39,.T.);
#174=EDGE_CURVE('',#206,#206,#24,.T.);
#175=EDGE_CURVE('',#207,#207,#25,.T.);
#176=EDGE_CURVE('',#208,#208,#26,.F.);
#177=EDGE_CURVE('',#209,#209,#27,.T.);
#178=VERTEX_POINT('',#478);
#179=VERTEX_POINT('',#479);
#180=VERTEX_POINT('',#484);
#181=VERTEX_POINT('',#486);
#182=VERTEX_POINT('',#493);
#183=VERTEX_POINT('',#494);
#184=VERTEX_POINT('',#496);
#185=VERTEX_POINT('',#498);
#186=VERTEX_POINT('',#500);
#187=VERTEX_POINT('',#502);
#188=VERTEX_POINT('',#509);
#189=VERTEX_POINT('',#510);
#190=VERTEX_POINT('',#512);
#191=VERTEX_POINT('',#514);
#192=VERTEX_POINT('',#519);
#193=VERTEX_POINT('',#521);
#194=VERTEX_POINT('',#525);
#195=VERTEX_POINT('',#526);
#196=VERTEX_POINT('',#528);
#197=VERTEX_POINT('',#530);
#198=VERTEX_POINT('',#532);
#199=VERTEX_POINT('',#534);
#200=VERTEX_POINT('',#538);
#201=VERTEX_POINT('',#540);
#202=VERTEX_POINT('',#544);
#203=VERTEX_POINT('',#545);
#204=VERTEX_POINT('',#547);
#205=VERTEX_POINT('',#550);
#206=VERTEX_POINT('',#649);
#207=VERTEX_POINT('',#652);
#208=VERTEX_POINT('',#656);
#209=VERTEX_POINT('',#659);
#210=LINE('',#477,#236);
#211=LINE('',#485,#237);
#212=LINE('',#492,#238);
#213=LINE('',#497,#239);
#214=LINE('',#499,#240);
#215=LINE('',#501,#241);
#216=LINE('',#508,#242);
#217=LINE('',#513,#243);
#218=LINE('',#520,#244);
#219=LINE('',#522,#245);
#220=LINE('',#524,#246);
#221=LINE('',#529,#247);
#222=LINE('',#531,#248);
#223=LINE('',#533,#249);
#224=LINE('',#535,#250);
#225=LINE('',#537,#251);
#226=LINE('',#539,#252);
#227=LINE('',#541,#253);
#228=LINE('',#543,#254);
#229=LINE('',#548,#255);
#230=LINE('',#549,#256);
#231=LINE('',#551,#257);
#232=LINE('',#557,#258);
#233=LINE('',#563,#259);
#234=LINE('',#564,#260);
#235=LINE('',#574,#261);
#236=VECTOR('',#395,1.);
#237=VECTOR('',#396,1.);
#238=VECTOR('',#399,1.);
#239=VECTOR('',#402,1.);
#240=VECTOR('',#403,1.);
#241=VECTOR('',#404,1.);
#242=VECTOR('',#407,1.);
#243=VECTOR('',#410,1.);
#244=VECTOR('',#411,1.);
#245=VECTOR('',#412,1.);
#246=VECTOR('',#415,1.);
#247=VECTOR('',#418,1.);
#248=VECTOR('',#419,1.);
#249=VECTOR('',#420,1.);
#250=VECTOR('',#421,1.);
#251=VECTOR('',#424,1.);
#252=VECTOR('',#425,1.);
#253=VECTOR('',#426,1.);
#254=VECTOR('',#429,1.);
#255=VECTOR('',#432,1.);
#256=VECTOR('',#433,1.);
#257=VECTOR('',#434,1.);
#258=VECTOR('',#437,1.);
#259=VECTOR('',#440,1.);
#260=VECTOR('',#441,1.);
#261=VECTOR('',#444,1.);
#262=EDGE_LOOP('',(#40,#41,#42,#43));
#263=EDGE_LOOP('',(#44,#45,#46,#47,#48,#49));
#264=EDGE_LOOP('',(#50,#51,#52,#53,#54,#55));
#265=EDGE_LOOP('',(#56,#57,#58,#59,#60,#61));
#266=EDGE_LOOP('',(#62,#63,#64,#65));
#267=EDGE_LOOP('',(#66,#67,#68,#69,#70,#71));
#268=EDGE_LOOP('',(#72,#73,#74,#75,#76,#77));
#269=EDGE_LOOP('',(#78,#79,#80,#81));
#270=EDGE_LOOP('',(#82,#83,#84,#85,#86,#87,#88,#89));
#271=EDGE_LOOP('',(#90,#91,#92,#93));
#272=EDGE_LOOP('',(#94,#95,#96,#97,#98,#99,#100,#101,#102,#103));
#273=EDGE_LOOP('',(#104,#105,#106,#107));
#274=EDGE_LOOP('',(#108,#109,#110,#111));
#275=EDGE_LOOP('',(#112,#113,#114,#115));
#276=EDGE_LOOP('',(#116,#117,#118,#119));
#277=EDGE_LOOP('',(#120,#121,#122,#123));
#278=EDGE_LOOP('',(#124));
#279=EDGE_LOOP('',(#125));
#280=EDGE_LOOP('',(#126));
#281=EDGE_LOOP('',(#127));
#282=EDGE_LOOP('',(#128));
#283=EDGE_LOOP('',(#129));
#284=EDGE_LOOP('',(#130));
#285=EDGE_LOOP('',(#131));
#286=FACE_BOUND('',#262,.T.);
#287=FACE_BOUND('',#263,.T.);
#288=FACE_BOUND('',#264,.T.);
#289=FACE_BOUND('',#265,.T.);
#290=FACE_BOUND('',#266,.T.);
#291=FACE_BOUND('',#267,.T.);
#292=FACE_BOUND('',#268,.T.);
#293=FACE_BOUND('',#269,.T.);
#294=FACE_BOUND('',#270,.T.);
#295=FACE_BOUND('',#271,.T.);
#296=FACE_BOUND('',#272,.T.);
#297=FACE_BOUND('',#273,.T.);
#298=FACE_BOUND('',#274,.T.);
#299=FACE_BOUND('',#275,.T.);
#300=FACE_BOUND('',#276,.T.);
#301=FACE_BOUND('',#277,.T.);
#302=FACE_BOUND('',#278,.T.);
#303=FACE_BOUND('',#279,.T.);
#304=FACE_BOUND('',#280,.T.);
#305=FACE_BOUND('',#281,.T.);
#306=FACE_BOUND('',#282,.T.);
#307=FACE_BOUND('',#283,.T.);
#308=FACE_BOUND('',#284,.T.);
#309=FACE_BOUND('',#285,.T.);
#310=PLANE('',#363);
#311=PLANE('',#364);
#312=PLANE('',#366);
#313=PLANE('',#368);
#314=PLANE('',#370);
#315=PLANE('',#371);
#316=PLANE('',#373);
#317=PLANE('',#374);
#318=PLANE('',#375);
#319=PLANE('',#376);
#320=PLANE('',#377);
#321=PLANE('',#380);
#322=PLANE('',#381);
#323=PLANE('',#385);
#324=PLANE('',#386);
#325=PLANE('',#388);
#326=ADVANCED_FACE('',(#286),#310,.T.);
#327=ADVANCED_FACE('',(#287),#311,.T.);
#328=ADVANCED_FACE('',(#288),#312,.F.);
#329=ADVANCED_FACE('',(#289),#313,.T.);
#330=ADVANCED_FACE('',(#290),#314,.F.);
#331=ADVANCED_FACE('',(#291),#315,.F.);
#332=ADVANCED_FACE('',(#292),#316,.F.);
#333=ADVANCED_FACE('',(#293),#317,.T.);
#334=ADVANCED_FACE('',(#294),#318,.T.);
#335=ADVANCED_FACE('',(#295),#319,.T.);
#336=ADVANCED_FACE('',(#296),#320,.T.);
#337=ADVANCED_FACE('',(#297),#16,.T.);
#338=ADVANCED_FACE('',(#298),#17,.T.);
#339=ADVANCED_FACE('',(#299),#14,.T.);
#340=ADVANCED_FACE('',(#300),#15,.T.);
#341=ADVANCED_FACE('',(#301),#321,.T.);
#342=ADVANCED_FACE('',(#302),#322,.T.);
#343=ADVANCED_FACE('',(#303,#304),#18,.F.);
#344=ADVANCED_FACE('',(#305),#323,.F.);
#345=ADVANCED_FACE('',(#306),#324,.F.);
#346=ADVANCED_FACE('',(#307),#325,.T.);
#347=ADVANCED_FACE('',(#308,#309),#19,.F.);
#348=CLOSED_SHELL('',(#326,#327,#328,#329,#330,#331,#332,#333,#334,#335,
#336,#337,#338,#339,#340,#341));
#349=CLOSED_SHELL('',(#342,#343,#344));
#350=CLOSED_SHELL('',(#345,#346,#347));
#351=STYLED_ITEM('',(#352),#359);
#352=PRESENTATION_STYLE_ASSIGNMENT((#353));
#353=SURFACE_STYLE_USAGE(.BOTH.,#354);
#354=SURFACE_SIDE_STYLE('',(#355));
#355=SURFACE_STYLE_FILL_AREA(#356);
#356=FILL_AREA_STYLE('',(#357));
#357=FILL_AREA_STYLE_COLOUR('',#358);
#358=COLOUR_RGB('',0.615686274509804,0.811764705882353,0.929411764705882);
#359=BREP_WITH_VOIDS('box',#348,(#12,#13));
#360=SHAPE_DEFINITION_REPRESENTATION(#667,#361);
#361=SHAPE_REPRESENTATION('box',(#362),#662);
#362=AXIS2_PLACEMENT_3D('',#475,#391,#392);
#363=AXIS2_PLACEMENT_3D('',#476,#393,#394);
#364=AXIS2_PLACEMENT_3D('',#491,#397,#398);
#365=AXIS2_PLACEMENT_3D('',#495,#400,#401);
#366=AXIS2_PLACEMENT_3D('',#507,#405,#406);
#367=AXIS2_PLACEMENT_3D('',#511,#408,#409);
#368=AXIS2_PLACEMENT_3D('',#523,#413,#414);
#369=AXIS2_PLACEMENT_3D('',#527,#416,#417);
#370=AXIS2_PLACEMENT_3D('',#536,#422,#423);
#371=AXIS2_PLACEMENT_3D('',#542,#427,#428);
#372=AXIS2_PLACEMENT_3D('',#546,#430,#431);
#373=AXIS2_PLACEMENT_3D('',#552,#435,#436);
#374=AXIS2_PLACEMENT_3D('',#562,#438,#439);
#375=AXIS2_PLACEMENT_3D('',#565,#442,#443);
#376=AXIS2_PLACEMENT_3D('',#575,#445,#446);
#377=AXIS2_PLACEMENT_3D('',#576,#447,#448);
#378=AXIS2_PLACEMENT_3D('',#612,#449,#450);
#379=AXIS2_PLACEMENT_3D('',#613,#451,#452);
#380=AXIS2_PLACEMENT_3D('',#646,#453,#454);
#381=AXIS2_PLACEMENT_3D('',#647,#455,#456);
#382=AXIS2_PLACEMENT_3D('',#648,#457,#458);
#383=AXIS2_PLACEMENT_3D('',#650,#459,#460);
#384=AXIS2_PLACEMENT_3D('',#651,#461,#462);
#385=AXIS2_PLACEMENT_3D('',#653,#463,#464);
#386=AXIS2_PLACEMENT_3D('',#654,#465,#466);
#387=AXIS2_PLACEMENT_3D('',#655,#467,#468);
#388=AXIS2_PLACEMENT_3D('',#657,#469,#470);
#389=AXIS2_PLACEMENT_3D('',#658,#471,#472);
#390=AXIS2_PLACEMENT_3D('',#660,#473,#474);
#391=DIRECTION('',(0.,0.,1.));
#392=DIRECTION('',(1.,0.,0.));
#393=DIRECTION('',(8.89601782552209E-17,-1.,0.));
#394=DIRECTION('',(1.,8.89601782552209E-17,0.));
#395=DIRECTION('',(-1.,0.,0.));
#396=DIRECTION('',(-1.,-8.89601782552209E-17,0.));
#397=DIRECTION('',(-1.,0.,0.));
#398=DIRECTION('',(0.,0.,1.));
#399=DIRECTION('',(0.,0.846232840089751,0.532813269686139));
#400=DIRECTION('',(-1.,0.,0.));
#401=DIRECTION('',(0.,0.,1.));
#402=DIRECTION('',(0.,1.,0.));
#403=DIRECTION('',(0.,0.,-1.));
#404=DIRECTION('',(0.,1.,0.));
#405=DIRECTION('',(-1.,0.,0.));
#406=DIRECTION('',(0.,0.,1.));
#407=DIRECTION('',(0.,1.,0.));
#408=DIRECTION('',(-1.,0.,0.));
#409=DIRECTION('',(0.,0.,1.));
#410=DIRECTION('',(0.,0.846232840089751,0.532813269686139));
#411=DIRECTION('',(0.,1.,0.));
#412=DIRECTION('',(0.,0.,-1.));
#413=DIRECTION('',(-1.,0.,0.));
#414=DIRECTION('',(0.,0.,1.));
#415=DIRECTION('',(0.,0.846232840089751,0.532813269686139));
#416=DIRECTION('',(-1.,0.,0.));
#417=DIRECTION('',(0.,0.,1.));
#418=DIRECTION('',(0.,1.,0.));
#419=DIRECTION('',(0.,0.,-1.));
#420=DIRECTION('',(0.,-1.,0.));
#421=DIRECTION('',(0.,0.,-1.));
#422=DIRECTION('',(9.37688365392869E-17,-1.,0.));
#423=DIRECTION('',(1.,9.37688365392869E-17,0.));
#424=DIRECTION('',(-1.,-9.37688365392869E-17,-5.90396378210325E-17));
#425=DIRECTION('',(1.,9.37688365392869E-17,0.));
#426=DIRECTION('',(0.,0.,-1.));
#427=DIRECTION('',(-1.,0.,0.));
#428=DIRECTION('',(0.,0.,1.));
#429=DIRECTION('',(0.,1.,0.));
#430=DIRECTION('',(-1.,0.,0.));
#431=DIRECTION('',(0.,0.,1.));
#432=DIRECTION('',(0.,0.846232840089751,0.532813269686139));
#433=DIRECTION('',(0.,-1.,0.));
#434=DIRECTION('',(0.,0.,-1.));
#435=DIRECTION('',(0.,0.,1.));
#436=DIRECTION('',(1.,0.,0.));
#437=DIRECTION('',(-1.,-8.89601782552209E-17,0.));
#438=DIRECTION('',(9.37688365392869E-17,-1.,0.));
#439=DIRECTION('',(1.,9.37688365392869E-17,0.));
#440=DIRECTION('',(1.,9.37688365392869E-17,0.));
#441=DIRECTION('',(-1.,-9.37688365392869E-17,0.));
#442=DIRECTION('',(0.,0.,1.));
#443=DIRECTION('',(1.,0.,0.));
#444=DIRECTION('',(-1.,-8.89601782552209E-17,0.));
#445=DIRECTION('',(0.,0.,1.));
#446=DIRECTION('',(1.,0.,0.));
#447=DIRECTION('',(0.,-0.532813269686139,0.846232840089751));
#448=DIRECTION('',(0.,-0.846232840089751,-0.532813269686139));
#449=DIRECTION('',(-1.,0.,0.));
#450=DIRECTION('',(0.,-0.27727888479854,0.960789477484468));
#451=DIRECTION('',(-1.,0.,0.));
#452=DIRECTION('',(0.,-0.27727888479854,0.960789477484468));
#453=DIRECTION('',(-8.89601782552209E-17,1.,0.));
#454=DIRECTION('',(-1.,-8.89601782552209E-17,0.));
#455=DIRECTION('',(-8.89601782552209E-17,1.,0.));
#456=DIRECTION('',(-1.,-8.89601782552209E-17,0.));
#457=DIRECTION('',(-8.89601782552209E-17,1.,0.));
#458=DIRECTION('',(-1.,-8.89601782552209E-17,0.));
#459=DIRECTION('',(8.89601782552209E-17,-1.,0.));
#460=DIRECTION('',(1.,8.89601782552209E-17,0.));
#461=DIRECTION('',(-8.89601782552209E-17,1.,0.));
#462=DIRECTION('',(-1.,-8.89601782552209E-17,0.));
#463=DIRECTION('',(-8.89601782552209E-17,1.,0.));
#464=DIRECTION('',(-1.,-8.89601782552209E-17,0.));
#465=DIRECTION('',(-8.89601782552209E-17,1.,0.));
#466=DIRECTION('',(-1.,-8.89601782552209E-17,0.));
#467=DIRECTION('',(-8.89601782552209E-17,1.,0.));
#468=DIRECTION('',(-1.,-8.89601782552209E-17,0.));
#469=DIRECTION('',(-8.89601782552209E-17,1.,0.));
#470=DIRECTION('',(-1.,-8.89601782552209E-17,0.));
#471=DIRECTION('',(8.89601782552209E-17,-1.,0.));
#472=DIRECTION('',(-1.,-8.89601782552209E-17,0.));
#473=DIRECTION('',(8.89601782552209E-17,-1.,0.));
#474=DIRECTION('',(1.,8.89601782552209E-17,0.));
#475=CARTESIAN_POINT('',(0.,0.,0.));
#476=CARTESIAN_POINT('',(0.,-0.027,0.002));
#477=CARTESIAN_POINT('',(0.061,-0.027,0.017));
#478=CARTESIAN_POINT('',(0.037,-0.027,0.017));
#479=CARTESIAN_POINT('',(-0.037,-0.027,0.017));
#480=CARTESIAN_POINT('',(-0.037,-0.027,0.017));
#481=CARTESIAN_POINT('',(-0.037,-0.027,0.0113333333333333));
#482=CARTESIAN_POINT('',(-0.037,-0.027,0.00566666666666667));
#483=CARTESIAN_POINT('',(-0.037,-0.027,0.));
#484=CARTESIAN_POINT('',(-0.037,-0.027,0.));
#485=CARTESIAN_POINT('',(0.,-0.027,0.));
#486=CARTESIAN_POINT('',(0.037,-0.027,0.));
#487=CARTESIAN_POINT('',(0.037,-0.027,0.));
#488=CARTESIAN_POINT('',(0.037,-0.027,0.00566666666666667));
#489=CARTESIAN_POINT('',(0.037,-0.027,0.0113333333333333));
#490=CARTESIAN_POINT('',(0.037,-0.027,0.017));
#491=CARTESIAN_POINT('',(-0.039,-3.46944695195361E-18,0.002));
#492=CARTESIAN_POINT('',(-0.039,-0.0135,0.0255));
#493=CARTESIAN_POINT('',(-0.039,-0.025,0.0182592592592592));
#494=CARTESIAN_POINT('',(-0.039,-0.00048853498303076,0.0336926197099403));
#495=CARTESIAN_POINT('',(-0.039,0.000566810834014454,0.0320359633751378));
#496=CARTESIAN_POINT('',(-0.03899999975,0.000577190643557078,0.0340001826258199));
#497=CARTESIAN_POINT('',(-0.039,-3.46944695195361E-18,0.034));
#498=CARTESIAN_POINT('',(-0.039,0.028,0.034));
#499=CARTESIAN_POINT('',(-0.039,0.028,0.002));
#500=CARTESIAN_POINT('',(-0.039,0.028,0.));
#501=CARTESIAN_POINT('',(-0.039,-3.46944695195361E-18,0.));
#502=CARTESIAN_POINT('',(-0.039,-0.025,0.));
#503=CARTESIAN_POINT('',(-0.039,-0.025,0.));
#504=CARTESIAN_POINT('',(-0.039,-0.025,0.00608641975308642));
#505=CARTESIAN_POINT('',(-0.039,-0.025,0.0121728395061728));
#506=CARTESIAN_POINT('',(-0.039,-0.025,0.0182592592592593));
#507=CARTESIAN_POINT('',(0.039,3.46944695195361E-18,0.002));
#508=CARTESIAN_POINT('',(0.039,3.46944695195361E-18,0.034));
#509=CARTESIAN_POINT('',(0.039,0.000577190643557078,0.0340001826258199));
#510=CARTESIAN_POINT('',(0.039,0.028,0.034));
#511=CARTESIAN_POINT('',(0.039,0.000566810834014454,0.0320359633751378));
#512=CARTESIAN_POINT('',(0.039,-0.000488534983030758,0.0336926197099403));
#513=CARTESIAN_POINT('',(0.039,-0.0144282907662082,0.0249155206286837));
#514=CARTESIAN_POINT('',(0.039,-0.025,0.0182592592592592));
#515=CARTESIAN_POINT('',(0.039,-0.025,0.0182592592592593));
#516=CARTESIAN_POINT('',(0.039,-0.025,0.0121728395061728));
#517=CARTESIAN_POINT('',(0.039,-0.025,0.00608641975308642));
#518=CARTESIAN_POINT('',(0.039,-0.025,0.));
#519=CARTESIAN_POINT('',(0.039,-0.025,0.));
#520=CARTESIAN_POINT('',(0.039,3.46944695195361E-18,0.));
#521=CARTESIAN_POINT('',(0.039,0.028,0.));
#522=CARTESIAN_POINT('',(0.039,0.028,0.002));
#523=CARTESIAN_POINT('',(0.037,6.93889390390723E-18,0.034));
#524=CARTESIAN_POINT('',(0.037,3.70390099857945E-18,0.034));
#525=CARTESIAN_POINT('',(0.037,-0.025,0.0182592592592592));
#526=CARTESIAN_POINT('',(0.037,-0.000488534983030761,0.0336926197099403));
#527=CARTESIAN_POINT('',(0.037,0.000566810834014454,0.0320359633751378));
#528=CARTESIAN_POINT('',(0.03700000025,0.000577190643557078,0.0340001826258199));
#529=CARTESIAN_POINT('',(0.037,6.93889390390723E-18,0.034));
#530=CARTESIAN_POINT('',(0.037,0.025,0.034));
#531=CARTESIAN_POINT('',(0.037,0.025,0.034));
#532=CARTESIAN_POINT('',(0.037,0.025,0.002));
#533=CARTESIAN_POINT('',(0.037,0.,0.002));
#534=CARTESIAN_POINT('',(0.037,-0.025,0.002));
#535=CARTESIAN_POINT('',(0.037,-0.025,0.034));
#536=CARTESIAN_POINT('',(6.93889390390723E-18,-0.025,0.034));
#537=CARTESIAN_POINT('',(7.86822153627533E-18,-0.025,0.0182592592592592));
#538=CARTESIAN_POINT('',(-0.037,-0.025,0.0182592592592592));
#539=CARTESIAN_POINT('',(2.34422091348217E-18,-0.025,0.002));
#540=CARTESIAN_POINT('',(-0.037,-0.025,0.002));
#541=CARTESIAN_POINT('',(-0.037,-0.025,0.034));
#542=CARTESIAN_POINT('',(-0.037,-6.93889390390723E-18,0.034));
#543=CARTESIAN_POINT('',(-0.037,-6.93889390390723E-18,0.034));
#544=CARTESIAN_POINT('',(-0.037,0.000577190643557078,0.0340001826258199));
#545=CARTESIAN_POINT('',(-0.037,0.025,0.034));
#546=CARTESIAN_POINT('',(-0.037,0.000566810834014454,0.0320359633751378));
#547=CARTESIAN_POINT('',(-0.037,-0.000488534983030762,0.0336926197099403));
#548=CARTESIAN_POINT('',(-0.037,-6.47675206028897E-18,0.034));
#549=CARTESIAN_POINT('',(-0.037,0.,0.002));
#550=CARTESIAN_POINT('',(-0.037,0.025,0.002));
#551=CARTESIAN_POINT('',(-0.037,0.025,0.034));
#552=CARTESIAN_POINT('',(0.,0.,0.));
#553=CARTESIAN_POINT('',(-0.037,-0.027,0.));
#554=CARTESIAN_POINT('',(-0.0383333333333333,-0.027,0.));
#555=CARTESIAN_POINT('',(-0.039,-0.0263333333333333,0.));
#556=CARTESIAN_POINT('',(-0.039,-0.025,0.));
#557=CARTESIAN_POINT('',(-8.89601782552209E-20,0.028,0.));
#558=CARTESIAN_POINT('',(0.039,-0.025,0.));
#559=CARTESIAN_POINT('',(0.039,-0.0263333333333333,0.));
#560=CARTESIAN_POINT('',(0.0383333333333333,-0.027,0.));
#561=CARTESIAN_POINT('',(0.037,-0.027,0.));
#562=CARTESIAN_POINT('',(0.,0.025,0.034));
#563=CARTESIAN_POINT('',(-2.34422091348217E-18,0.025,0.002));
#564=CARTESIAN_POINT('',(0.,0.025,0.034));
#565=CARTESIAN_POINT('',(0.,0.,0.034));
#566=CARTESIAN_POINT('',(-0.03899999975,0.00057718967848089,0.034));
#567=CARTESIAN_POINT('',(-0.0383333331666667,0.00057718967848089,0.034));
#568=CARTESIAN_POINT('',(-0.0376666665833333,0.00057718967848089,0.034));
#569=CARTESIAN_POINT('',(-0.037,0.00057718967848089,0.034));
#570=CARTESIAN_POINT('',(0.03700000025,0.00057718967848089,0.034));
#571=CARTESIAN_POINT('',(0.0376666668333333,0.00057718967848089,0.034));
#572=CARTESIAN_POINT('',(0.0383333334166667,0.00057718967848089,0.034));
#573=CARTESIAN_POINT('',(0.039,0.00057718967848089,0.034));
#574=CARTESIAN_POINT('',(-8.89601782552209E-20,0.028,0.034));
#575=CARTESIAN_POINT('',(0.,0.,0.002));
#576=CARTESIAN_POINT('',(0.061,-0.0135,0.0255));
#577=CARTESIAN_POINT('',(-0.037,-0.000488436860891391,0.0336924656801795));
#578=CARTESIAN_POINT('',(-0.0376666666666667,-0.000488436860891391,0.0336924656801795));
#579=CARTESIAN_POINT('',(-0.0383333333333334,-0.000488436860891391,0.0336924656801795));
#580=CARTESIAN_POINT('',(-0.039,-0.000488436860891391,0.0336924656801795));
#581=CARTESIAN_POINT('',(-0.039,-0.025,0.0182592592592593));
#582=CARTESIAN_POINT('',(-0.039,-0.0251576580718185,0.018159993065892));
#583=CARTESIAN_POINT('',(-0.0389947371239545,-0.0253831258194511,0.0180180318914567));
#584=CARTESIAN_POINT('',(-0.038935899090914,-0.0257412059654122,0.0177925740217775));
#585=CARTESIAN_POINT('',(-0.0387892700179562,-0.0261308148113522,0.0175472647484079));
#586=CARTESIAN_POINT('',(-0.0385701798627944,-0.026449194380184,0.0173468035384027));
#587=CARTESIAN_POINT('',(-0.0382771910930125,-0.0267055962508161,0.0171853653235602));
#588=CARTESIAN_POINT('',(-0.0379428746670361,-0.0268667602527746,0.0170838916926975));
#589=CARTESIAN_POINT('',(-0.0376760295515873,-0.0269423711429616,0.0170362848359131));
#590=CARTESIAN_POINT('',(-0.0374242638532882,-0.0269851955836416,0.0170093212991886));
#591=CARTESIAN_POINT('',(-0.0371797187507849,-0.027,0.017));
#592=CARTESIAN_POINT('',(-0.037,-0.027,0.017));
#593=CARTESIAN_POINT('',(0.037,-0.027,0.017));
#594=CARTESIAN_POINT('',(0.0371794369450296,-0.027,0.017));
#595=CARTESIAN_POINT('',(0.0374241487906649,-0.0269851776161398,0.0170093326120601));
#596=CARTESIAN_POINT('',(0.0376599941220513,-0.0269464082822782,0.0170337429333804));
#597=CARTESIAN_POINT('',(0.037946347995511,-0.0268665985452581,0.0170839935085412));
#598=CARTESIAN_POINT('',(0.0382718825917015,-0.0267073915194492,0.0171842349692357));
#599=CARTESIAN_POINT('',(0.0385657894676315,-0.0264542077159268,0.0173436469936757));
#600=CARTESIAN_POINT('',(0.0387497499402128,-0.0261897562496781,0.0175101534724249));
#601=CARTESIAN_POINT('',(0.0388656937107607,-0.0259289849972449,0.0176743427795125));
#602=CARTESIAN_POINT('',(0.0389230096559615,-0.0257501324306707,0.0177869536547629));
#603=CARTESIAN_POINT('',(0.038957330231077,-0.0256005011471341,0.0178811659443971));
#604=CARTESIAN_POINT('',(0.0389782014566027,-0.0254638805830513,0.0179671862995603));
#605=CARTESIAN_POINT('',(0.0389936935526497,-0.0253222964339562,0.0180563318749164));
#606=CARTESIAN_POINT('',(0.039,-0.0251578111911904,0.0181598966573987));
#607=CARTESIAN_POINT('',(0.039,-0.025,0.0182592592592593));
#608=CARTESIAN_POINT('',(0.039,-0.000488436860891391,0.0336924656801795));
#609=CARTESIAN_POINT('',(0.0383333333333333,-0.000488436860891391,0.0336924656801795));
#610=CARTESIAN_POINT('',(0.0376666666666667,-0.000488436860891391,0.0336924656801795));
#611=CARTESIAN_POINT('',(0.037,-0.000488436860891391,0.0336924656801795));
#612=CARTESIAN_POINT('',(-0.0380000000000001,0.000566810834014454,0.0320359633751378));
#613=CARTESIAN_POINT('',(0.038,0.000566810834014454,0.0320359633751378));
#614=CARTESIAN_POINT('',(-0.037,-0.027,0.0183688148148148));
#615=CARTESIAN_POINT('',(-0.037,-0.027,0.));
#616=CARTESIAN_POINT('',(-0.0373,-0.027,0.0183688148148148));
#617=CARTESIAN_POINT('',(-0.0373,-0.027,0.));
#618=CARTESIAN_POINT('',(-0.0376,-0.027,0.0183688148148148));
#619=CARTESIAN_POINT('',(-0.0376,-0.027,3.46944695195361E-18));
#620=CARTESIAN_POINT('',(-0.0383333333333334,-0.0268,0.0183688148148148));
#621=CARTESIAN_POINT('',(-0.0383333333333334,-0.0268,3.46944695195361E-18));
#622=CARTESIAN_POINT('',(-0.0388,-0.0263333333333334,0.0183688148148148));
#623=CARTESIAN_POINT('',(-0.0388,-0.0263333333333334,3.46944695195361E-18));
#624=CARTESIAN_POINT('',(-0.039,-0.0256,0.0183688148148148));
#625=CARTESIAN_POINT('',(-0.039,-0.0256,0.));
#626=CARTESIAN_POINT('',(-0.039,-0.0253,0.0183688148148148));
#627=CARTESIAN_POINT('',(-0.039,-0.0253,0.));
#628=CARTESIAN_POINT('',(-0.039,-0.025,0.0183688148148148));
#629=CARTESIAN_POINT('',(-0.039,-0.025,0.));
#630=CARTESIAN_POINT('',(0.037,-0.027,0.));
#631=CARTESIAN_POINT('',(0.037,-0.027,0.0183688148148148));
#632=CARTESIAN_POINT('',(0.0373,-0.027,0.));
#633=CARTESIAN_POINT('',(0.0373,-0.027,0.0183688148148148));
#634=CARTESIAN_POINT('',(0.0376,-0.027,0.));
#635=CARTESIAN_POINT('',(0.0376,-0.027,0.0183688148148148));
#636=CARTESIAN_POINT('',(0.0383333333333334,-0.0268,0.));
#637=CARTESIAN_POINT('',(0.0383333333333334,-0.0268,0.0183688148148148));
#638=CARTESIAN_POINT('',(0.0388,-0.0263333333333333,0.));
#639=CARTESIAN_POINT('',(0.0388,-0.0263333333333333,0.0183688148148148));
#640=CARTESIAN_POINT('',(0.039,-0.0256,0.));
#641=CARTESIAN_POINT('',(0.039,-0.0256,0.0183688148148148));
#642=CARTESIAN_POINT('',(0.039,-0.0253,0.));
#643=CARTESIAN_POINT('',(0.039,-0.0253,0.0183688148148148));
#644=CARTESIAN_POINT('',(0.039,-0.025,0.));
#645=CARTESIAN_POINT('',(0.039,-0.025,0.0183688148148148));
#646=CARTESIAN_POINT('',(-2.49088499114618E-18,0.028,0.017));
#647=CARTESIAN_POINT('',(-2.31296463463574E-18,0.026,0.017));
#648=CARTESIAN_POINT('',(-0.015,0.026,0.01));
#649=CARTESIAN_POINT('',(-0.0181,0.026,0.01));
#650=CARTESIAN_POINT('',(-0.015,0.028,0.01));
#651=CARTESIAN_POINT('',(-0.015,0.0272,0.01));
#652=CARTESIAN_POINT('',(-0.0181,0.0272,0.01));
#653=CARTESIAN_POINT('',(-2.41971684854201E-18,0.0272,0.017));
#654=CARTESIAN_POINT('',(-2.41971684854201E-18,0.0272,0.017));
#655=CARTESIAN_POINT('',(0.015,0.0272,0.01));
#656=CARTESIAN_POINT('',(0.0119,0.0272,0.01));
#657=CARTESIAN_POINT('',(-2.31296463463574E-18,0.026,0.017));
#658=CARTESIAN_POINT('',(0.015,0.026,0.01));
#659=CARTESIAN_POINT('',(0.0119,0.026,0.01));
#660=CARTESIAN_POINT('',(0.015,0.028,0.01));
#661=MECHANICAL_DESIGN_GEOMETRIC_PRESENTATION_REPRESENTATION('',(#351),
#662);
#662=(
GEOMETRIC_REPRESENTATION_CONTEXT(3)
GLOBAL_UNCERTAINTY_ASSIGNED_CONTEXT((#663))
GLOBAL_UNIT_ASSIGNED_CONTEXT((#666,#665,#664))
REPRESENTATION_CONTEXT('box','TOP_LEVEL_ASSEMBLY_PART')
);
#663=UNCERTAINTY_MEASURE_WITH_UNIT(LENGTH_MEASURE(2.02E-5),#666,
'DISTANCE_ACCURACY_VALUE','Maximum Tolerance applied to model');
#664=(
NAMED_UNIT(*)
SI_UNIT($,.STERADIAN.)
SOLID_ANGLE_UNIT()
);
#665=(
NAMED_UNIT(*)
PLANE_ANGLE_UNIT()
SI_UNIT($,.RADIAN.)
);
#666=(
LENGTH_UNIT()
NAMED_UNIT(*)
SI_UNIT($,.METRE.)
);
#667=PRODUCT_DEFINITION_SHAPE('','',#668);
#668=PRODUCT_DEFINITION('','',#670,#669);
#669=PRODUCT_DEFINITION_CONTEXT('',#676,'design');
#670=PRODUCT_DEFINITION_FORMATION_WITH_SPECIFIED_SOURCE('','',#672,
 .NOT_KNOWN.);
#671=PRODUCT_RELATED_PRODUCT_CATEGORY('','',(#672));
#672=PRODUCT('box','box','box',(#674));
#673=PRODUCT_CATEGORY('','');
#674=PRODUCT_CONTEXT('',#676,'mechanical');
#675=APPLICATION_PROTOCOL_DEFINITION('international standard',
'ap242_managed_model_based_3d_engineering',2020,#676);
#676=APPLICATION_CONTEXT('managed model based 3d engineering');
ENDSEC;
END-ISO-10303-21;
