ISO-10303-21;
HEADER;
/* Generated by software containing ST-Developer
 * from STEP Tools, Inc. (www.steptools.com) 
 */
/* OPTION: using custom renumber hook */

FILE_DESCRIPTION(
/* description */ ('STEP AP242 Edition 2',
'CAx-IF Rec.Pracs.---Representation and Presentation of Product Manufa
cturing Information (PMI)---4.0---2014-10-13',
'CAx-IF Rec.Pracs.---3D Tessellated Geometry---0.4---2014-09-14','2;1',
'CAx-IF Rec.Pracs.---User Defined Attributes---1.5---2016-08-15'),
/* implementation_level */ '2;1');

FILE_NAME(
/* name */ 'Assembly 1 - dc_motor_case',
/* time_stamp */ '2026-08-18T11:49:10Z',
/* author */ (''),
/* organization */ (''),
/* preprocessor_version */ 'ST-DEVELOPER v20',
/* originating_system */ 'ONSHAPE BY PTC INC, 1.219',
/* authorisation */ '  ');

FILE_SCHEMA (('AP242_MANAGED_MODEL_BASED_3D_ENGINEERING_MIM_LF { 1 0 10303 442 3 1 4 }'));
ENDSEC;

DATA;
#10=SHAPE_REPRESENTATION_RELATIONSHIP('','',#279,#11);
#11=ADVANCED_BREP_SHAPE_REPRESENTATION('',(#277),#445);
#12=CIRCLE('',#285,0.02);
#13=CIRCLE('',#286,0.02);
#14=CIRCLE('',#291,0.018);
#15=CIRCLE('',#292,0.018);
#16=CYLINDRICAL_SURFACE('',#284,0.02);
#17=CYLINDRICAL_SURFACE('',#290,0.018);
#18=ORIENTED_EDGE('',*,*,#90,.T.);
#19=ORIENTED_EDGE('',*,*,#91,.F.);
#20=ORIENTED_EDGE('',*,*,#92,.F.);
#21=ORIENTED_EDGE('',*,*,#93,.F.);
#22=ORIENTED_EDGE('',*,*,#94,.T.);
#23=ORIENTED_EDGE('',*,*,#95,.T.);
#24=ORIENTED_EDGE('',*,*,#96,.F.);
#25=ORIENTED_EDGE('',*,*,#97,.T.);
#26=ORIENTED_EDGE('',*,*,#98,.T.);
#27=ORIENTED_EDGE('',*,*,#97,.F.);
#28=ORIENTED_EDGE('',*,*,#99,.F.);
#29=ORIENTED_EDGE('',*,*,#100,.T.);
#30=ORIENTED_EDGE('',*,*,#101,.F.);
#31=ORIENTED_EDGE('',*,*,#100,.F.);
#32=ORIENTED_EDGE('',*,*,#102,.T.);
#33=ORIENTED_EDGE('',*,*,#103,.T.);
#34=ORIENTED_EDGE('',*,*,#104,.F.);
#35=ORIENTED_EDGE('',*,*,#103,.F.);
#36=ORIENTED_EDGE('',*,*,#105,.T.);
#37=ORIENTED_EDGE('',*,*,#106,.T.);
#38=ORIENTED_EDGE('',*,*,#107,.F.);
#39=ORIENTED_EDGE('',*,*,#108,.F.);
#40=ORIENTED_EDGE('',*,*,#106,.F.);
#41=ORIENTED_EDGE('',*,*,#109,.T.);
#42=ORIENTED_EDGE('',*,*,#110,.F.);
#43=ORIENTED_EDGE('',*,*,#111,.F.);
#44=ORIENTED_EDGE('',*,*,#112,.T.);
#45=ORIENTED_EDGE('',*,*,#113,.T.);
#46=ORIENTED_EDGE('',*,*,#114,.F.);
#47=ORIENTED_EDGE('',*,*,#113,.F.);
#48=ORIENTED_EDGE('',*,*,#115,.T.);
#49=ORIENTED_EDGE('',*,*,#91,.T.);
#50=ORIENTED_EDGE('',*,*,#92,.T.);
#51=ORIENTED_EDGE('',*,*,#115,.F.);
#52=ORIENTED_EDGE('',*,*,#112,.F.);
#53=ORIENTED_EDGE('',*,*,#116,.F.);
#54=ORIENTED_EDGE('',*,*,#117,.T.);
#55=ORIENTED_EDGE('',*,*,#109,.F.);
#56=ORIENTED_EDGE('',*,*,#105,.F.);
#57=ORIENTED_EDGE('',*,*,#102,.F.);
#58=ORIENTED_EDGE('',*,*,#99,.T.);
#59=ORIENTED_EDGE('',*,*,#96,.T.);
#60=ORIENTED_EDGE('',*,*,#118,.F.);
#61=ORIENTED_EDGE('',*,*,#119,.F.);
#62=ORIENTED_EDGE('',*,*,#90,.F.);
#63=ORIENTED_EDGE('',*,*,#120,.T.);
#64=ORIENTED_EDGE('',*,*,#121,.T.);
#65=ORIENTED_EDGE('',*,*,#94,.F.);
#66=ORIENTED_EDGE('',*,*,#98,.F.);
#67=ORIENTED_EDGE('',*,*,#101,.T.);
#68=ORIENTED_EDGE('',*,*,#104,.T.);
#69=ORIENTED_EDGE('',*,*,#108,.T.);
#70=ORIENTED_EDGE('',*,*,#122,.F.);
#71=ORIENTED_EDGE('',*,*,#123,.T.);
#72=ORIENTED_EDGE('',*,*,#110,.T.);
#73=ORIENTED_EDGE('',*,*,#114,.T.);
#74=ORIENTED_EDGE('',*,*,#107,.T.);
#75=ORIENTED_EDGE('',*,*,#117,.F.);
#76=ORIENTED_EDGE('',*,*,#124,.F.);
#77=ORIENTED_EDGE('',*,*,#122,.T.);
#78=ORIENTED_EDGE('',*,*,#123,.F.);
#79=ORIENTED_EDGE('',*,*,#124,.T.);
#80=ORIENTED_EDGE('',*,*,#116,.T.);
#81=ORIENTED_EDGE('',*,*,#111,.T.);
#82=ORIENTED_EDGE('',*,*,#95,.F.);
#83=ORIENTED_EDGE('',*,*,#121,.F.);
#84=ORIENTED_EDGE('',*,*,#125,.T.);
#85=ORIENTED_EDGE('',*,*,#118,.T.);
#86=ORIENTED_EDGE('',*,*,#120,.F.);
#87=ORIENTED_EDGE('',*,*,#93,.T.);
#88=ORIENTED_EDGE('',*,*,#119,.T.);
#89=ORIENTED_EDGE('',*,*,#125,.F.);
#90=EDGE_CURVE('',#126,#127,#150,.T.);
#91=EDGE_CURVE('',#128,#127,#151,.T.);
#92=EDGE_CURVE('',#129,#128,#152,.T.);
#93=EDGE_CURVE('',#126,#129,#153,.T.);
#94=EDGE_CURVE('',#130,#131,#154,.T.);
#95=EDGE_CURVE('',#131,#132,#155,.T.);
#96=EDGE_CURVE('',#133,#132,#156,.T.);
#97=EDGE_CURVE('',#133,#130,#157,.T.);
#98=EDGE_CURVE('',#134,#130,#158,.T.);
#99=EDGE_CURVE('',#135,#133,#159,.T.);
#100=EDGE_CURVE('',#135,#134,#160,.T.);
#101=EDGE_CURVE('',#134,#136,#12,.T.);
#102=EDGE_CURVE('',#135,#137,#13,.T.);
#103=EDGE_CURVE('',#137,#136,#161,.T.);
#104=EDGE_CURVE('',#136,#138,#162,.T.);
#105=EDGE_CURVE('',#137,#139,#163,.T.);
#106=EDGE_CURVE('',#139,#138,#164,.T.);
#107=EDGE_CURVE('',#140,#141,#165,.T.);
#108=EDGE_CURVE('',#138,#140,#166,.T.);
#109=EDGE_CURVE('',#139,#141,#167,.T.);
#110=EDGE_CURVE('',#142,#143,#168,.T.);
#111=EDGE_CURVE('',#144,#142,#169,.T.);
#112=EDGE_CURVE('',#144,#145,#170,.T.);
#113=EDGE_CURVE('',#145,#143,#171,.T.);
#114=EDGE_CURVE('',#143,#127,#14,.T.);
#115=EDGE_CURVE('',#145,#128,#15,.T.);
#116=EDGE_CURVE('',#146,#144,#172,.T.);
#117=EDGE_CURVE('',#146,#141,#173,.T.);
#118=EDGE_CURVE('',#147,#132,#174,.T.);
#119=EDGE_CURVE('',#129,#147,#175,.T.);
#120=EDGE_CURVE('',#126,#148,#176,.T.);
#121=EDGE_CURVE('',#148,#131,#177,.T.);
#122=EDGE_CURVE('',#149,#140,#178,.T.);
#123=EDGE_CURVE('',#149,#142,#179,.T.);
#124=EDGE_CURVE('',#149,#146,#180,.T.);
#125=EDGE_CURVE('',#148,#147,#181,.T.);
#126=VERTEX_POINT('',#372);
#127=VERTEX_POINT('',#373);
#128=VERTEX_POINT('',#375);
#129=VERTEX_POINT('',#377);
#130=VERTEX_POINT('',#381);
#131=VERTEX_POINT('',#382);
#132=VERTEX_POINT('',#384);
#133=VERTEX_POINT('',#386);
#134=VERTEX_POINT('',#390);
#135=VERTEX_POINT('',#392);
#136=VERTEX_POINT('',#396);
#137=VERTEX_POINT('',#398);
#138=VERTEX_POINT('',#402);
#139=VERTEX_POINT('',#404);
#140=VERTEX_POINT('',#408);
#141=VERTEX_POINT('',#409);
#142=VERTEX_POINT('',#414);
#143=VERTEX_POINT('',#415);
#144=VERTEX_POINT('',#417);
#145=VERTEX_POINT('',#419);
#146=VERTEX_POINT('',#426);
#147=VERTEX_POINT('',#429);
#148=VERTEX_POINT('',#433);
#149=VERTEX_POINT('',#436);
#150=LINE('',#371,#182);
#151=LINE('',#374,#183);
#152=LINE('',#376,#184);
#153=LINE('',#378,#185);
#154=LINE('',#380,#186);
#155=LINE('',#383,#187);
#156=LINE('',#385,#188);
#157=LINE('',#387,#189);
#158=LINE('',#389,#190);
#159=LINE('',#391,#191);
#160=LINE('',#393,#192);
#161=LINE('',#399,#193);
#162=LINE('',#401,#194);
#163=LINE('',#403,#195);
#164=LINE('',#405,#196);
#165=LINE('',#407,#197);
#166=LINE('',#410,#198);
#167=LINE('',#411,#199);
#168=LINE('',#413,#200);
#169=LINE('',#416,#201);
#170=LINE('',#418,#202);
#171=LINE('',#420,#203);
#172=LINE('',#425,#204);
#173=LINE('',#427,#205);
#174=LINE('',#428,#206);
#175=LINE('',#430,#207);
#176=LINE('',#432,#208);
#177=LINE('',#434,#209);
#178=LINE('',#435,#210);
#179=LINE('',#437,#211);
#180=LINE('',#439,#212);
#181=LINE('',#442,#213);
#182=VECTOR('',#303,1.);
#183=VECTOR('',#304,1.);
#184=VECTOR('',#305,1.);
#185=VECTOR('',#306,1.);
#186=VECTOR('',#309,1.);
#187=VECTOR('',#310,1.);
#188=VECTOR('',#311,1.);
#189=VECTOR('',#312,1.);
#190=VECTOR('',#315,1.);
#191=VECTOR('',#316,1.);
#192=VECTOR('',#317,1.);
#193=VECTOR('',#324,1.);
#194=VECTOR('',#327,1.);
#195=VECTOR('',#328,1.);
#196=VECTOR('',#329,1.);
#197=VECTOR('',#332,1.);
#198=VECTOR('',#333,1.);
#199=VECTOR('',#334,1.);
#200=VECTOR('',#337,1.);
#201=VECTOR('',#338,1.);
#202=VECTOR('',#339,1.);
#203=VECTOR('',#340,1.);
#204=VECTOR('',#349,1.);
#205=VECTOR('',#350,1.);
#206=VECTOR('',#351,1.);
#207=VECTOR('',#352,1.);
#208=VECTOR('',#355,1.);
#209=VECTOR('',#356,1.);
#210=VECTOR('',#357,1.);
#211=VECTOR('',#358,1.);
#212=VECTOR('',#361,1.);
#213=VECTOR('',#366,1.);
#214=EDGE_LOOP('',(#18,#19,#20,#21));
#215=EDGE_LOOP('',(#22,#23,#24,#25));
#216=EDGE_LOOP('',(#26,#27,#28,#29));
#217=EDGE_LOOP('',(#30,#31,#32,#33));
#218=EDGE_LOOP('',(#34,#35,#36,#37));
#219=EDGE_LOOP('',(#38,#39,#40,#41));
#220=EDGE_LOOP('',(#42,#43,#44,#45));
#221=EDGE_LOOP('',(#46,#47,#48,#49));
#222=EDGE_LOOP('',(#50,#51,#52,#53,#54,#55,#56,#57,#58,#59,#60,#61));
#223=EDGE_LOOP('',(#62,#63,#64,#65,#66,#67,#68,#69,#70,#71,#72,#73));
#224=EDGE_LOOP('',(#74,#75,#76,#77));
#225=EDGE_LOOP('',(#78,#79,#80,#81));
#226=EDGE_LOOP('',(#82,#83,#84,#85));
#227=EDGE_LOOP('',(#86,#87,#88,#89));
#228=FACE_BOUND('',#214,.T.);
#229=FACE_BOUND('',#215,.T.);
#230=FACE_BOUND('',#216,.T.);
#231=FACE_BOUND('',#217,.T.);
#232=FACE_BOUND('',#218,.T.);
#233=FACE_BOUND('',#219,.T.);
#234=FACE_BOUND('',#220,.T.);
#235=FACE_BOUND('',#221,.T.);
#236=FACE_BOUND('',#222,.T.);
#237=FACE_BOUND('',#223,.T.);
#238=FACE_BOUND('',#224,.T.);
#239=FACE_BOUND('',#225,.T.);
#240=FACE_BOUND('',#226,.T.);
#241=FACE_BOUND('',#227,.T.);
#242=PLANE('',#281);
#243=PLANE('',#282);
#244=PLANE('',#283);
#245=PLANE('',#287);
#246=PLANE('',#288);
#247=PLANE('',#289);
#248=PLANE('',#293);
#249=PLANE('',#294);
#250=PLANE('',#295);
#251=PLANE('',#296);
#252=PLANE('',#297);
#253=PLANE('',#298);
#254=ADVANCED_FACE('',(#228),#242,.F.);
#255=ADVANCED_FACE('',(#229),#243,.F.);
#256=ADVANCED_FACE('',(#230),#244,.F.);
#257=ADVANCED_FACE('',(#231),#16,.T.);
#258=ADVANCED_FACE('',(#232),#245,.T.);
#259=ADVANCED_FACE('',(#233),#246,.T.);
#260=ADVANCED_FACE('',(#234),#247,.T.);
#261=ADVANCED_FACE('',(#235),#17,.F.);
#262=ADVANCED_FACE('',(#236),#248,.F.);
#263=ADVANCED_FACE('',(#237),#249,.T.);
#264=ADVANCED_FACE('',(#238),#250,.F.);
#265=ADVANCED_FACE('',(#239),#251,.T.);
#266=ADVANCED_FACE('',(#240),#252,.T.);
#267=ADVANCED_FACE('',(#241),#253,.T.);
#268=CLOSED_SHELL('',(#254,#255,#256,#257,#258,#259,#260,#261,#262,#263,
#264,#265,#266,#267));
#269=STYLED_ITEM('',(#270),#277);
#270=PRESENTATION_STYLE_ASSIGNMENT((#271));
#271=SURFACE_STYLE_USAGE(.BOTH.,#272);
#272=SURFACE_SIDE_STYLE('',(#273));
#273=SURFACE_STYLE_FILL_AREA(#274);
#274=FILL_AREA_STYLE('',(#275));
#275=FILL_AREA_STYLE_COLOUR('',#276);
#276=COLOUR_RGB('',0.0941176470588235,0.580392156862745,0.545098039215686);
#277=MANIFOLD_SOLID_BREP('dc_motor_case',#268);
#278=SHAPE_DEFINITION_REPRESENTATION(#450,#279);
#279=SHAPE_REPRESENTATION('dc_motor_case',(#280),#445);
#280=AXIS2_PLACEMENT_3D('',#369,#299,#300);
#281=AXIS2_PLACEMENT_3D('',#370,#301,#302);
#282=AXIS2_PLACEMENT_3D('',#379,#307,#308);
#283=AXIS2_PLACEMENT_3D('',#388,#313,#314);
#284=AXIS2_PLACEMENT_3D('',#394,#318,#319);
#285=AXIS2_PLACEMENT_3D('',#395,#320,#321);
#286=AXIS2_PLACEMENT_3D('',#397,#322,#323);
#287=AXIS2_PLACEMENT_3D('',#400,#325,#326);
#288=AXIS2_PLACEMENT_3D('',#406,#330,#331);
#289=AXIS2_PLACEMENT_3D('',#412,#335,#336);
#290=AXIS2_PLACEMENT_3D('',#421,#341,#342);
#291=AXIS2_PLACEMENT_3D('',#422,#343,#344);
#292=AXIS2_PLACEMENT_3D('',#423,#345,#346);
#293=AXIS2_PLACEMENT_3D('',#424,#347,#348);
#294=AXIS2_PLACEMENT_3D('',#431,#353,#354);
#295=AXIS2_PLACEMENT_3D('',#438,#359,#360);
#296=AXIS2_PLACEMENT_3D('',#440,#362,#363);
#297=AXIS2_PLACEMENT_3D('',#441,#364,#365);
#298=AXIS2_PLACEMENT_3D('',#443,#367,#368);
#299=DIRECTION('',(0.,0.,1.));
#300=DIRECTION('',(1.,0.,0.));
#301=DIRECTION('',(1.,0.,0.));
#302=DIRECTION('',(0.,0.,-1.));
#303=DIRECTION('',(0.,0.,1.));
#304=DIRECTION('',(0.,-1.,0.));
#305=DIRECTION('',(0.,0.,1.));
#306=DIRECTION('',(0.,1.,0.));
#307=DIRECTION('',(-2.16840434497101E-16,0.,1.));
#308=DIRECTION('',(1.,0.,2.16840434497101E-16));
#309=DIRECTION('',(-1.,0.,-2.16840434497101E-16));
#310=DIRECTION('',(0.,1.,0.));
#311=DIRECTION('',(-1.,0.,-2.16840434497101E-16));
#312=DIRECTION('',(0.,-1.,0.));
#313=DIRECTION('',(-1.,0.,0.));
#314=DIRECTION('',(0.,0.,1.));
#315=DIRECTION('',(0.,0.,-1.));
#316=DIRECTION('',(0.,0.,-1.));
#317=DIRECTION('',(0.,-1.,0.));
#318=DIRECTION('',(0.,-1.,0.));
#319=DIRECTION('',(0.,0.,-1.));
#320=DIRECTION('',(0.,-1.,0.));
#321=DIRECTION('',(0.,0.,-1.));
#322=DIRECTION('',(0.,-1.,0.));
#323=DIRECTION('',(0.,0.,-1.));
#324=DIRECTION('',(0.,-1.,0.));
#325=DIRECTION('',(-1.,0.,0.));
#326=DIRECTION('',(0.,0.,1.));
#327=DIRECTION('',(0.,0.,-1.));
#328=DIRECTION('',(0.,0.,-1.));
#329=DIRECTION('',(0.,-1.,0.));
#330=DIRECTION('',(-2.16840434497101E-16,0.,-1.));
#331=DIRECTION('',(-1.,0.,2.16840434497101E-16));
#332=DIRECTION('',(0.,1.,0.));
#333=DIRECTION('',(1.,0.,-2.16840434497101E-16));
#334=DIRECTION('',(1.,0.,-2.16840434497101E-16));
#335=DIRECTION('',(1.,0.,0.));
#336=DIRECTION('',(0.,0.,-1.));
#337=DIRECTION('',(0.,0.,1.));
#338=DIRECTION('',(0.,-1.,0.));
#339=DIRECTION('',(0.,0.,1.));
#340=DIRECTION('',(0.,-1.,0.));
#341=DIRECTION('',(0.,-1.,0.));
#342=DIRECTION('',(0.,0.,-1.));
#343=DIRECTION('',(0.,1.,0.));
#344=DIRECTION('',(0.,0.,-1.));
#345=DIRECTION('',(0.,1.,0.));
#346=DIRECTION('',(0.,0.,-1.));
#347=DIRECTION('',(0.,-1.,0.));
#348=DIRECTION('',(1.,0.,0.));
#349=DIRECTION('',(1.,0.,-2.16840434497101E-16));
#350=DIRECTION('',(2.16840434497101E-16,0.,1.));
#351=DIRECTION('',(2.16840434497101E-16,0.,1.));
#352=DIRECTION('',(1.,0.,-2.16840434497101E-16));
#353=DIRECTION('',(0.,-1.,0.));
#354=DIRECTION('',(1.,0.,0.));
#355=DIRECTION('',(1.,0.,-2.16840434497101E-16));
#356=DIRECTION('',(2.16840434497101E-16,0.,1.));
#357=DIRECTION('',(2.16840434497101E-16,0.,1.));
#358=DIRECTION('',(1.,0.,-2.16840434497101E-16));
#359=DIRECTION('',(1.,0.,-2.16840434497101E-16));
#360=DIRECTION('',(-2.16840434497101E-16,0.,-1.));
#361=DIRECTION('',(0.,1.,0.));
#362=DIRECTION('',(-2.16840434497101E-16,0.,-1.));
#363=DIRECTION('',(1.,0.,-2.16840434497101E-16));
#364=DIRECTION('',(1.,0.,-2.16840434497101E-16));
#365=DIRECTION('',(-2.16840434497101E-16,0.,-1.));
#366=DIRECTION('',(0.,1.,0.));
#367=DIRECTION('',(-2.16840434497101E-16,0.,-1.));
#368=DIRECTION('',(1.,0.,-2.16840434497101E-16));
#369=CARTESIAN_POINT('',(0.,0.,0.));
#370=CARTESIAN_POINT('',(0.018,0.0549,0.011025));
#371=CARTESIAN_POINT('',(0.018,0.0021,0.011025));
#372=CARTESIAN_POINT('',(0.018,0.0021,0.000749999999999992));
#373=CARTESIAN_POINT('',(0.018,0.0021,0.02));
#374=CARTESIAN_POINT('',(0.018,0.0549,0.02));
#375=CARTESIAN_POINT('',(0.018,0.0549,0.02));
#376=CARTESIAN_POINT('',(0.018,0.0549,0.011025));
#377=CARTESIAN_POINT('',(0.018,0.0549,0.000749999999999992));
#378=CARTESIAN_POINT('',(0.018,0.0285,0.000749999999999992));
#379=CARTESIAN_POINT('',(0.019,0.0549,0.00205));
#380=CARTESIAN_POINT('',(0.019,0.0021,0.00205));
#381=CARTESIAN_POINT('',(0.02,0.0021,0.00205));
#382=CARTESIAN_POINT('',(0.019,0.0021,0.00205));
#383=CARTESIAN_POINT('',(0.019,0.0285,0.00205));
#384=CARTESIAN_POINT('',(0.019,0.0549,0.00205));
#385=CARTESIAN_POINT('',(0.019,0.0549,0.00205));
#386=CARTESIAN_POINT('',(0.02,0.0549,0.00205));
#387=CARTESIAN_POINT('',(0.02,0.0549,0.00205));
#388=CARTESIAN_POINT('',(0.02,0.0549,0.011025));
#389=CARTESIAN_POINT('',(0.02,0.0021,0.011025));
#390=CARTESIAN_POINT('',(0.02,0.0021,0.02));
#391=CARTESIAN_POINT('',(0.02,0.0549,0.011025));
#392=CARTESIAN_POINT('',(0.02,0.0549,0.02));
#393=CARTESIAN_POINT('',(0.02,0.0549,0.02));
#394=CARTESIAN_POINT('',(1.2660082630017E-19,0.0549,0.02));
#395=CARTESIAN_POINT('',(1.2660082630017E-19,0.0021,0.02));
#396=CARTESIAN_POINT('',(-0.02,0.0021,0.02));
#397=CARTESIAN_POINT('',(1.2660082630017E-19,0.0549,0.02));
#398=CARTESIAN_POINT('',(-0.02,0.0549,0.02));
#399=CARTESIAN_POINT('',(-0.02,0.0549,0.02));
#400=CARTESIAN_POINT('',(-0.02,0.0549,0.011025));
#401=CARTESIAN_POINT('',(-0.02,0.0021,0.011025));
#402=CARTESIAN_POINT('',(-0.02,0.0021,0.00205));
#403=CARTESIAN_POINT('',(-0.02,0.0549,0.011025));
#404=CARTESIAN_POINT('',(-0.02,0.0549,0.00205));
#405=CARTESIAN_POINT('',(-0.02,0.0549,0.00205));
#406=CARTESIAN_POINT('',(-0.019,0.0549,0.00205));
#407=CARTESIAN_POINT('',(-0.019,0.0285,0.00205));
#408=CARTESIAN_POINT('',(-0.019,0.0021,0.00205));
#409=CARTESIAN_POINT('',(-0.019,0.0549,0.00205));
#410=CARTESIAN_POINT('',(-0.019,0.0021,0.00205));
#411=CARTESIAN_POINT('',(-0.019,0.0549,0.00205));
#412=CARTESIAN_POINT('',(-0.018,0.0549,0.011025));
#413=CARTESIAN_POINT('',(-0.018,0.0021,0.011025));
#414=CARTESIAN_POINT('',(-0.018,0.0021,0.00075));
#415=CARTESIAN_POINT('',(-0.018,0.0021,0.02));
#416=CARTESIAN_POINT('',(-0.018,0.0549,0.00075));
#417=CARTESIAN_POINT('',(-0.018,0.0549,0.00075));
#418=CARTESIAN_POINT('',(-0.018,0.0549,0.011025));
#419=CARTESIAN_POINT('',(-0.018,0.0549,0.02));
#420=CARTESIAN_POINT('',(-0.018,0.0549,0.02));
#421=CARTESIAN_POINT('',(-5.51091059616309E-19,0.0549,0.02));
#422=CARTESIAN_POINT('',(-5.51091059616309E-19,0.0021,0.02));
#423=CARTESIAN_POINT('',(-5.51091059616309E-19,0.0549,0.02));
#424=CARTESIAN_POINT('',(0.,0.0549,0.02));
#425=CARTESIAN_POINT('',(-0.019,0.0549,0.00075));
#426=CARTESIAN_POINT('',(-0.019,0.0549,0.00075));
#427=CARTESIAN_POINT('',(-0.019,0.0549,0.00075));
#428=CARTESIAN_POINT('',(0.019,0.0549,0.000749999999999992));
#429=CARTESIAN_POINT('',(0.019,0.0549,0.000749999999999992));
#430=CARTESIAN_POINT('',(0.0185,0.0549,0.000749999999999992));
#431=CARTESIAN_POINT('',(0.,0.0021,0.02));
#432=CARTESIAN_POINT('',(0.0185,0.0021,0.000749999999999992));
#433=CARTESIAN_POINT('',(0.019,0.0021,0.000749999999999992));
#434=CARTESIAN_POINT('',(0.019,0.0021,0.000749999999999992));
#435=CARTESIAN_POINT('',(-0.019,0.0021,0.00075));
#436=CARTESIAN_POINT('',(-0.019,0.0021,0.00075));
#437=CARTESIAN_POINT('',(-0.019,0.0021,0.00075));
#438=CARTESIAN_POINT('',(-0.019,0.0285,0.00075));
#439=CARTESIAN_POINT('',(-0.019,0.0285,0.00075));
#440=CARTESIAN_POINT('',(-0.0005,0.0285,0.00075));
#441=CARTESIAN_POINT('',(0.019,0.0285,0.000749999999999992));
#442=CARTESIAN_POINT('',(0.019,0.0285,0.000749999999999992));
#443=CARTESIAN_POINT('',(-0.0005,0.0285,0.00075));
#444=MECHANICAL_DESIGN_GEOMETRIC_PRESENTATION_REPRESENTATION('',(#269),
#445);
#445=(
GEOMETRIC_REPRESENTATION_CONTEXT(3)
GLOBAL_UNCERTAINTY_ASSIGNED_CONTEXT((#446))
GLOBAL_UNIT_ASSIGNED_CONTEXT((#449,#448,#447))
REPRESENTATION_CONTEXT('dc_motor_case','TOP_LEVEL_ASSEMBLY_PART')
);
#446=UNCERTAINTY_MEASURE_WITH_UNIT(LENGTH_MEASURE(1.E-8),#449,
'DISTANCE_ACCURACY_VALUE','Maximum Tolerance applied to model');
#447=(
NAMED_UNIT(*)
SI_UNIT($,.STERADIAN.)
SOLID_ANGLE_UNIT()
);
#448=(
NAMED_UNIT(*)
PLANE_ANGLE_UNIT()
SI_UNIT($,.RADIAN.)
);
#449=(
LENGTH_UNIT()
NAMED_UNIT(*)
SI_UNIT($,.METRE.)
);
#450=PRODUCT_DEFINITION_SHAPE('','',#451);
#451=PRODUCT_DEFINITION('','',#453,#452);
#452=PRODUCT_DEFINITION_CONTEXT('',#459,'design');
#453=PRODUCT_DEFINITION_FORMATION_WITH_SPECIFIED_SOURCE('','',#455,
 .NOT_KNOWN.);
#454=PRODUCT_RELATED_PRODUCT_CATEGORY('','',(#455));
#455=PRODUCT('dc_motor_case','dc_motor_case','dc_motor_case',(#457));
#456=PRODUCT_CATEGORY('','');
#457=PRODUCT_CONTEXT('',#459,'mechanical');
#458=APPLICATION_PROTOCOL_DEFINITION('international standard',
'ap242_managed_model_based_3d_engineering',2020,#459);
#459=APPLICATION_CONTEXT('managed model based 3d engineering');
ENDSEC;
END-ISO-10303-21;
