ISO-10303-21;
HEADER;
/* Generated by software containing ST-Developer
 * from STEP Tools, Inc. (www.steptools.com) 
 */
/* OPTION: using custom renumber hook */

FILE_DESCRIPTION(
/* description */ ('STEP AP242 Edition 2',
'CAx-IF Rec.Pracs.---Representation and Presentation of Product Manufa
cturing Information (PMI)---4.0---2014-10-13',
'CAx-IF Rec.Pracs.---3D Tessellated Geometry---0.4---2014-09-14','2;1',
'CAx-IF Rec.Pracs.---User Defined Attributes---1.5---2016-08-15'),
/* implementation_level */ '2;1');

FILE_NAME(
/* name */ 'Assembly 1 - dc_shaft_connector',
/* time_stamp */ '2026-08-18T11:49:10Z',
/* author */ (''),
/* organization */ (''),
/* preprocessor_version */ 'ST-DEVELOPER v20',
/* originating_system */ 'ONSHAPE BY PTC INC, 1.219',
/* authorisation */ '  ');

FILE_SCHEMA (('AP242_MANAGED_MODEL_BASED_3D_ENGINEERING_MIM_LF { 1 0 10303 442 3 1 4 }'));
ENDSEC;

DATA;
#10=SHAPE_REPRESENTATION_RELATIONSHIP('','',#113,#11);
#11=ADVANCED_BREP_SHAPE_REPRESENTATION('',(#111),#187);
#12=CYLINDRICAL_SURFACE('',#118,0.00155);
#13=CYLINDRICAL_SURFACE('',#120,0.0035);
#14=CYLINDRICAL_SURFACE('',#124,0.0022);
#15=LINE('',#164,#19);
#16=LINE('',#178,#20);
#17=LINE('',#182,#21);
#18=LINE('',#184,#22);
#19=VECTOR('',#134,1.);
#20=VECTOR('',#151,1.);
#21=VECTOR('',#154,1.);
#22=VECTOR('',#157,1.);
#23=ORIENTED_EDGE('',*,*,#43,.F.);
#24=ORIENTED_EDGE('',*,*,#44,.T.);
#25=ORIENTED_EDGE('',*,*,#45,.T.);
#26=ORIENTED_EDGE('',*,*,#43,.T.);
#27=ORIENTED_EDGE('',*,*,#46,.F.);
#28=ORIENTED_EDGE('',*,*,#47,.T.);
#29=ORIENTED_EDGE('',*,*,#48,.F.);
#30=ORIENTED_EDGE('',*,*,#46,.T.);
#31=ORIENTED_EDGE('',*,*,#47,.F.);
#32=ORIENTED_EDGE('',*,*,#45,.F.);
#33=ORIENTED_EDGE('',*,*,#49,.F.);
#34=ORIENTED_EDGE('',*,*,#50,.T.);
#35=ORIENTED_EDGE('',*,*,#51,.T.);
#36=ORIENTED_EDGE('',*,*,#44,.F.);
#37=ORIENTED_EDGE('',*,*,#51,.F.);
#38=ORIENTED_EDGE('',*,*,#52,.T.);
#39=ORIENTED_EDGE('',*,*,#49,.T.);
#40=ORIENTED_EDGE('',*,*,#50,.F.);
#41=ORIENTED_EDGE('',*,*,#52,.F.);
#42=ORIENTED_EDGE('',*,*,#48,.T.);
#43=EDGE_CURVE('',#53,#53,#61,.T.);
#44=EDGE_CURVE('',#54,#55,#15,.T.);
#45=EDGE_CURVE('',#55,#54,#62,.T.);
#46=EDGE_CURVE('',#56,#56,#63,.T.);
#47=EDGE_CURVE('',#57,#57,#64,.T.);
#48=EDGE_CURVE('',#58,#58,#65,.T.);
#49=EDGE_CURVE('',#59,#55,#16,.T.);
#50=EDGE_CURVE('',#59,#60,#66,.T.);
#51=EDGE_CURVE('',#60,#54,#17,.T.);
#52=EDGE_CURVE('',#60,#59,#18,.T.);
#53=VERTEX_POINT('',#163);
#54=VERTEX_POINT('',#165);
#55=VERTEX_POINT('',#166);
#56=VERTEX_POINT('',#170);
#57=VERTEX_POINT('',#173);
#58=VERTEX_POINT('',#175);
#59=VERTEX_POINT('',#179);
#60=VERTEX_POINT('',#181);
#61=CIRCLE('',#116,0.00155);
#62=CIRCLE('',#117,0.0022);
#63=CIRCLE('',#119,0.00155);
#64=CIRCLE('',#121,0.0035);
#65=CIRCLE('',#122,0.0035);
#66=CIRCLE('',#125,0.0022);
#67=EDGE_LOOP('',(#23));
#68=EDGE_LOOP('',(#24,#25));
#69=EDGE_LOOP('',(#26));
#70=EDGE_LOOP('',(#27));
#71=EDGE_LOOP('',(#28));
#72=EDGE_LOOP('',(#29));
#73=EDGE_LOOP('',(#30));
#74=EDGE_LOOP('',(#31));
#75=EDGE_LOOP('',(#32,#33,#34,#35));
#76=EDGE_LOOP('',(#36,#37,#38,#39));
#77=EDGE_LOOP('',(#40,#41));
#78=EDGE_LOOP('',(#42));
#79=FACE_BOUND('',#67,.T.);
#80=FACE_BOUND('',#68,.T.);
#81=FACE_BOUND('',#69,.T.);
#82=FACE_BOUND('',#70,.T.);
#83=FACE_BOUND('',#71,.T.);
#84=FACE_BOUND('',#72,.T.);
#85=FACE_BOUND('',#73,.T.);
#86=FACE_BOUND('',#74,.T.);
#87=FACE_BOUND('',#75,.T.);
#88=FACE_BOUND('',#76,.T.);
#89=FACE_BOUND('',#77,.T.);
#90=FACE_BOUND('',#78,.T.);
#91=PLANE('',#115);
#92=PLANE('',#123);
#93=PLANE('',#126);
#94=PLANE('',#127);
#95=ADVANCED_FACE('',(#79,#80),#91,.T.);
#96=ADVANCED_FACE('',(#81,#82),#12,.F.);
#97=ADVANCED_FACE('',(#83,#84),#13,.T.);
#98=ADVANCED_FACE('',(#85,#86),#92,.F.);
#99=ADVANCED_FACE('',(#87),#14,.F.);
#100=ADVANCED_FACE('',(#88),#93,.T.);
#101=ADVANCED_FACE('',(#89,#90),#94,.T.);
#102=CLOSED_SHELL('',(#95,#96,#97,#98,#99,#100,#101));
#103=STYLED_ITEM('',(#104),#111);
#104=PRESENTATION_STYLE_ASSIGNMENT((#105));
#105=SURFACE_STYLE_USAGE(.BOTH.,#106);
#106=SURFACE_SIDE_STYLE('',(#107));
#107=SURFACE_STYLE_FILL_AREA(#108);
#108=FILL_AREA_STYLE('',(#109));
#109=FILL_AREA_STYLE_COLOUR('',#110);
#110=COLOUR_RGB('',0.615686274509804,0.811764705882353,0.929411764705882);
#111=MANIFOLD_SOLID_BREP('dc_shaft_connector',#102);
#112=SHAPE_DEFINITION_REPRESENTATION(#192,#113);
#113=SHAPE_REPRESENTATION('dc_shaft_connector',(#114),#187);
#114=AXIS2_PLACEMENT_3D('',#160,#128,#129);
#115=AXIS2_PLACEMENT_3D('',#161,#130,#131);
#116=AXIS2_PLACEMENT_3D('',#162,#132,#133);
#117=AXIS2_PLACEMENT_3D('',#167,#135,#136);
#118=AXIS2_PLACEMENT_3D('',#168,#137,#138);
#119=AXIS2_PLACEMENT_3D('',#169,#139,#140);
#120=AXIS2_PLACEMENT_3D('',#171,#141,#142);
#121=AXIS2_PLACEMENT_3D('',#172,#143,#144);
#122=AXIS2_PLACEMENT_3D('',#174,#145,#146);
#123=AXIS2_PLACEMENT_3D('',#176,#147,#148);
#124=AXIS2_PLACEMENT_3D('',#177,#149,#150);
#125=AXIS2_PLACEMENT_3D('',#180,#152,#153);
#126=AXIS2_PLACEMENT_3D('',#183,#155,#156);
#127=AXIS2_PLACEMENT_3D('',#185,#158,#159);
#128=DIRECTION('',(0.,0.,1.));
#129=DIRECTION('',(1.,0.,0.));
#130=DIRECTION('',(0.,0.,1.));
#131=DIRECTION('',(1.,0.,0.));
#132=DIRECTION('',(0.,0.,1.));
#133=DIRECTION('',(1.,0.,0.));
#134=DIRECTION('',(-1.,0.,0.));
#135=DIRECTION('',(0.,0.,1.));
#136=DIRECTION('',(1.,0.,0.));
#137=DIRECTION('',(0.,0.,-1.));
#138=DIRECTION('',(-1.,0.,0.));
#139=DIRECTION('',(0.,0.,1.));
#140=DIRECTION('',(1.,0.,0.));
#141=DIRECTION('',(0.,0.,-1.));
#142=DIRECTION('',(-1.,0.,0.));
#143=DIRECTION('',(0.,0.,1.));
#144=DIRECTION('',(1.,0.,0.));
#145=DIRECTION('',(0.,0.,1.));
#146=DIRECTION('',(1.,0.,0.));
#147=DIRECTION('',(0.,0.,1.));
#148=DIRECTION('',(1.,0.,0.));
#149=DIRECTION('',(0.,0.,-1.));
#150=DIRECTION('',(-1.,0.,0.));
#151=DIRECTION('',(0.,0.,-1.));
#152=DIRECTION('',(0.,0.,1.));
#153=DIRECTION('',(1.,0.,0.));
#154=DIRECTION('',(0.,0.,-1.));
#155=DIRECTION('',(0.,-1.,0.));
#156=DIRECTION('',(0.,0.,-1.));
#157=DIRECTION('',(-1.,0.,0.));
#158=DIRECTION('',(0.,0.,1.));
#159=DIRECTION('',(1.,0.,0.));
#160=CARTESIAN_POINT('',(0.,0.,0.));
#161=CARTESIAN_POINT('',(0.,0.,0.004));
#162=CARTESIAN_POINT('',(0.,9.49101269339199E-20,0.004));
#163=CARTESIAN_POINT('',(0.00155,9.49101269339199E-20,0.004));
#164=CARTESIAN_POINT('',(-0.00080483234405733,0.00157142857142857,0.004));
#165=CARTESIAN_POINT('',(0.00153967926689228,0.00157142857142857,0.004));
#166=CARTESIAN_POINT('',(-0.00153967926689228,0.00157142857142857,0.004));
#167=CARTESIAN_POINT('',(3.56523390305325E-21,0.,0.004));
#168=CARTESIAN_POINT('',(0.,9.49101269339199E-20,0.004));
#169=CARTESIAN_POINT('',(0.,9.49101269339199E-20,0.));
#170=CARTESIAN_POINT('',(0.00155,9.49101269339199E-20,0.));
#171=CARTESIAN_POINT('',(0.,2.14313189850787E-19,0.004));
#172=CARTESIAN_POINT('',(0.,2.14313189850787E-19,0.));
#173=CARTESIAN_POINT('',(0.0035,2.14313189850787E-19,0.));
#174=CARTESIAN_POINT('',(0.,2.14313189850787E-19,0.014));
#175=CARTESIAN_POINT('',(0.0035,2.14313189850787E-19,0.014));
#176=CARTESIAN_POINT('',(0.,0.,0.));
#177=CARTESIAN_POINT('',(3.56523390305325E-21,0.,0.014));
#178=CARTESIAN_POINT('',(-0.00153967926689228,0.00157142857142857,0.014));
#179=CARTESIAN_POINT('',(-0.00153967926689228,0.00157142857142857,0.014));
#180=CARTESIAN_POINT('',(3.56523390305325E-21,0.,0.014));
#181=CARTESIAN_POINT('',(0.00153967926689228,0.00157142857142857,0.014));
#182=CARTESIAN_POINT('',(0.00153967926689228,0.00157142857142857,0.014));
#183=CARTESIAN_POINT('',(-0.00080483234405733,0.00157142857142857,0.014));
#184=CARTESIAN_POINT('',(-0.00080483234405733,0.00157142857142857,0.014));
#185=CARTESIAN_POINT('',(0.,0.,0.014));
#186=MECHANICAL_DESIGN_GEOMETRIC_PRESENTATION_REPRESENTATION('',(#103),
#187);
#187=(
GEOMETRIC_REPRESENTATION_CONTEXT(3)
GLOBAL_UNCERTAINTY_ASSIGNED_CONTEXT((#188))
GLOBAL_UNIT_ASSIGNED_CONTEXT((#191,#190,#189))
REPRESENTATION_CONTEXT('dc_shaft_connector','TOP_LEVEL_ASSEMBLY_PART')
);
#188=UNCERTAINTY_MEASURE_WITH_UNIT(LENGTH_MEASURE(1.E-8),#191,
'DISTANCE_ACCURACY_VALUE','Maximum Tolerance applied to model');
#189=(
NAMED_UNIT(*)
SI_UNIT($,.STERADIAN.)
SOLID_ANGLE_UNIT()
);
#190=(
NAMED_UNIT(*)
PLANE_ANGLE_UNIT()
SI_UNIT($,.RADIAN.)
);
#191=(
LENGTH_UNIT()
NAMED_UNIT(*)
SI_UNIT($,.METRE.)
);
#192=PRODUCT_DEFINITION_SHAPE('','',#193);
#193=PRODUCT_DEFINITION('','',#195,#194);
#194=PRODUCT_DEFINITION_CONTEXT('',#201,'design');
#195=PRODUCT_DEFINITION_FORMATION_WITH_SPECIFIED_SOURCE('','',#197,
 .NOT_KNOWN.);
#196=PRODUCT_RELATED_PRODUCT_CATEGORY('','',(#197));
#197=PRODUCT('dc_shaft_connector','dc_shaft_connector',
'dc_shaft_connector',(#199));
#198=PRODUCT_CATEGORY('','');
#199=PRODUCT_CONTEXT('',#201,'mechanical');
#200=APPLICATION_PROTOCOL_DEFINITION('international standard',
'ap242_managed_model_based_3d_engineering',2020,#201);
#201=APPLICATION_CONTEXT('managed model based 3d engineering');
ENDSEC;
END-ISO-10303-21;
