ISO-10303-21;
HEADER;
/* Generated by software containing ST-Developer
 * from STEP Tools, Inc. (www.steptools.com) 
 */
/* OPTION: using custom renumber hook */

FILE_DESCRIPTION(
/* description */ ('STEP AP242 Edition 2',
'CAx-IF Rec.Pracs.---Representation and Presentation of Product Manufa
cturing Information (PMI)---4.0---2014-10-13',
'CAx-IF Rec.Pracs.---3D Tessellated Geometry---0.4---2014-09-14','2;1',
'CAx-IF Rec.Pracs.---User Defined Attributes---1.5---2016-08-15'),
/* implementation_level */ '2;1');

FILE_NAME(
/* name */ 'Assembly 1 - dc_side_connector',
/* time_stamp */ '2026-08-18T11:49:10Z',
/* author */ (''),
/* organization */ (''),
/* preprocessor_version */ 'ST-DEVELOPER v20',
/* originating_system */ 'ONSHAPE BY PTC INC, 1.219',
/* authorisation */ '  ');

FILE_SCHEMA (('AP242_MANAGED_MODEL_BASED_3D_ENGINEERING_MIM_LF { 1 0 10303 442 3 1 4 }'));
ENDSEC;

DATA;
#10=SHAPE_REPRESENTATION_RELATIONSHIP('','',#363,#11);
#11=ADVANCED_BREP_SHAPE_REPRESENTATION('',(#361),#577);
#12=CYLINDRICAL_SURFACE('',#371,0.00135);
#13=CYLINDRICAL_SURFACE('',#373,0.00135);
#14=CYLINDRICAL_SURFACE('',#387,0.00135);
#15=CYLINDRICAL_SURFACE('',#388,0.00135);
#16=LINE('',#487,#52);
#17=LINE('',#490,#53);
#18=LINE('',#492,#54);
#19=LINE('',#494,#55);
#20=LINE('',#496,#56);
#21=LINE('',#499,#57);
#22=LINE('',#501,#58);
#23=LINE('',#503,#59);
#24=LINE('',#505,#60);
#25=LINE('',#507,#61);
#26=LINE('',#509,#62);
#27=LINE('',#511,#63);
#28=LINE('',#513,#64);
#29=LINE('',#515,#65);
#30=LINE('',#517,#66);
#31=LINE('',#518,#67);
#32=LINE('',#520,#68);
#33=LINE('',#522,#69);
#34=LINE('',#524,#70);
#35=LINE('',#526,#71);
#36=LINE('',#528,#72);
#37=LINE('',#530,#73);
#38=LINE('',#531,#74);
#39=LINE('',#533,#75);
#40=LINE('',#535,#76);
#41=LINE('',#537,#77);
#42=LINE('',#539,#78);
#43=LINE('',#541,#79);
#44=LINE('',#549,#80);
#45=LINE('',#550,#81);
#46=LINE('',#555,#82);
#47=LINE('',#556,#83);
#48=LINE('',#560,#84);
#49=LINE('',#561,#85);
#50=LINE('',#565,#86);
#51=LINE('',#570,#87);
#52=VECTOR('',#399,1.);
#53=VECTOR('',#400,1.);
#54=VECTOR('',#401,1.);
#55=VECTOR('',#402,1.);
#56=VECTOR('',#405,1.);
#57=VECTOR('',#406,1.);
#58=VECTOR('',#407,1.);
#59=VECTOR('',#408,1.);
#60=VECTOR('',#411,1.);
#61=VECTOR('',#412,1.);
#62=VECTOR('',#413,1.);
#63=VECTOR('',#414,1.);
#64=VECTOR('',#415,1.);
#65=VECTOR('',#416,1.);
#66=VECTOR('',#417,1.);
#67=VECTOR('',#418,1.);
#68=VECTOR('',#419,1.);
#69=VECTOR('',#420,1.);
#70=VECTOR('',#423,1.);
#71=VECTOR('',#424,1.);
#72=VECTOR('',#425,1.);
#73=VECTOR('',#426,1.);
#74=VECTOR('',#427,1.);
#75=VECTOR('',#428,1.);
#76=VECTOR('',#429,1.);
#77=VECTOR('',#430,1.);
#78=VECTOR('',#431,1.);
#79=VECTOR('',#432,1.);
#80=VECTOR('',#443,1.);
#81=VECTOR('',#444,1.);
#82=VECTOR('',#451,1.);
#83=VECTOR('',#452,1.);
#84=VECTOR('',#457,1.);
#85=VECTOR('',#458,1.);
#86=VECTOR('',#463,1.);
#87=VECTOR('',#470,1.);
#88=ORIENTED_EDGE('',*,*,#176,.F.);
#89=ORIENTED_EDGE('',*,*,#177,.F.);
#90=ORIENTED_EDGE('',*,*,#178,.F.);
#91=ORIENTED_EDGE('',*,*,#179,.T.);
#92=ORIENTED_EDGE('',*,*,#180,.T.);
#93=ORIENTED_EDGE('',*,*,#181,.F.);
#94=ORIENTED_EDGE('',*,*,#182,.F.);
#95=ORIENTED_EDGE('',*,*,#183,.T.);
#96=ORIENTED_EDGE('',*,*,#184,.T.);
#97=ORIENTED_EDGE('',*,*,#185,.F.);
#98=ORIENTED_EDGE('',*,*,#186,.T.);
#99=ORIENTED_EDGE('',*,*,#178,.T.);
#100=ORIENTED_EDGE('',*,*,#187,.F.);
#101=ORIENTED_EDGE('',*,*,#188,.T.);
#102=ORIENTED_EDGE('',*,*,#189,.T.);
#103=ORIENTED_EDGE('',*,*,#190,.T.);
#104=ORIENTED_EDGE('',*,*,#191,.T.);
#105=ORIENTED_EDGE('',*,*,#192,.F.);
#106=ORIENTED_EDGE('',*,*,#183,.F.);
#107=ORIENTED_EDGE('',*,*,#193,.F.);
#108=ORIENTED_EDGE('',*,*,#194,.F.);
#109=ORIENTED_EDGE('',*,*,#195,.T.);
#110=ORIENTED_EDGE('',*,*,#180,.F.);
#111=ORIENTED_EDGE('',*,*,#196,.F.);
#112=ORIENTED_EDGE('',*,*,#197,.F.);
#113=ORIENTED_EDGE('',*,*,#198,.T.);
#114=ORIENTED_EDGE('',*,*,#199,.T.);
#115=ORIENTED_EDGE('',*,*,#185,.T.);
#116=ORIENTED_EDGE('',*,*,#200,.T.);
#117=ORIENTED_EDGE('',*,*,#201,.F.);
#118=ORIENTED_EDGE('',*,*,#202,.F.);
#119=ORIENTED_EDGE('',*,*,#203,.F.);
#120=ORIENTED_EDGE('',*,*,#204,.F.);
#121=ORIENTED_EDGE('',*,*,#205,.T.);
#122=ORIENTED_EDGE('',*,*,#177,.T.);
#123=ORIENTED_EDGE('',*,*,#206,.F.);
#124=ORIENTED_EDGE('',*,*,#176,.T.);
#125=ORIENTED_EDGE('',*,*,#207,.F.);
#126=ORIENTED_EDGE('',*,*,#208,.F.);
#127=ORIENTED_EDGE('',*,*,#201,.T.);
#128=ORIENTED_EDGE('',*,*,#209,.F.);
#129=ORIENTED_EDGE('',*,*,#191,.F.);
#130=ORIENTED_EDGE('',*,*,#207,.T.);
#131=ORIENTED_EDGE('',*,*,#206,.T.);
#132=ORIENTED_EDGE('',*,*,#192,.T.);
#133=ORIENTED_EDGE('',*,*,#209,.T.);
#134=ORIENTED_EDGE('',*,*,#200,.F.);
#135=ORIENTED_EDGE('',*,*,#184,.F.);
#136=ORIENTED_EDGE('',*,*,#210,.T.);
#137=ORIENTED_EDGE('',*,*,#197,.T.);
#138=ORIENTED_EDGE('',*,*,#211,.F.);
#139=ORIENTED_EDGE('',*,*,#195,.F.);
#140=ORIENTED_EDGE('',*,*,#212,.T.);
#141=ORIENTED_EDGE('',*,*,#213,.F.);
#142=ORIENTED_EDGE('',*,*,#188,.F.);
#143=ORIENTED_EDGE('',*,*,#214,.T.);
#144=ORIENTED_EDGE('',*,*,#204,.T.);
#145=ORIENTED_EDGE('',*,*,#215,.F.);
#146=ORIENTED_EDGE('',*,*,#216,.F.);
#147=ORIENTED_EDGE('',*,*,#208,.T.);
#148=ORIENTED_EDGE('',*,*,#190,.F.);
#149=ORIENTED_EDGE('',*,*,#217,.F.);
#150=ORIENTED_EDGE('',*,*,#202,.T.);
#151=ORIENTED_EDGE('',*,*,#203,.T.);
#152=ORIENTED_EDGE('',*,*,#217,.T.);
#153=ORIENTED_EDGE('',*,*,#189,.F.);
#154=ORIENTED_EDGE('',*,*,#215,.T.);
#155=ORIENTED_EDGE('',*,*,#218,.T.);
#156=ORIENTED_EDGE('',*,*,#182,.T.);
#157=ORIENTED_EDGE('',*,*,#199,.F.);
#158=ORIENTED_EDGE('',*,*,#219,.F.);
#159=ORIENTED_EDGE('',*,*,#193,.T.);
#160=ORIENTED_EDGE('',*,*,#194,.T.);
#161=ORIENTED_EDGE('',*,*,#219,.T.);
#162=ORIENTED_EDGE('',*,*,#198,.F.);
#163=ORIENTED_EDGE('',*,*,#212,.F.);
#164=ORIENTED_EDGE('',*,*,#210,.F.);
#165=ORIENTED_EDGE('',*,*,#218,.F.);
#166=ORIENTED_EDGE('',*,*,#213,.T.);
#167=ORIENTED_EDGE('',*,*,#216,.T.);
#168=ORIENTED_EDGE('',*,*,#181,.T.);
#169=ORIENTED_EDGE('',*,*,#205,.F.);
#170=ORIENTED_EDGE('',*,*,#214,.F.);
#171=ORIENTED_EDGE('',*,*,#187,.T.);
#172=ORIENTED_EDGE('',*,*,#179,.F.);
#173=ORIENTED_EDGE('',*,*,#186,.F.);
#174=ORIENTED_EDGE('',*,*,#211,.T.);
#175=ORIENTED_EDGE('',*,*,#196,.T.);
#176=EDGE_CURVE('',#220,#220,#252,.T.);
#177=EDGE_CURVE('',#221,#221,#253,.T.);
#178=EDGE_CURVE('',#222,#223,#16,.T.);
#179=EDGE_CURVE('',#222,#224,#17,.T.);
#180=EDGE_CURVE('',#224,#225,#18,.T.);
#181=EDGE_CURVE('',#223,#225,#19,.T.);
#182=EDGE_CURVE('',#226,#227,#20,.T.);
#183=EDGE_CURVE('',#226,#228,#21,.T.);
#184=EDGE_CURVE('',#228,#229,#22,.T.);
#185=EDGE_CURVE('',#227,#229,#23,.T.);
#186=EDGE_CURVE('',#230,#222,#24,.T.);
#187=EDGE_CURVE('',#231,#223,#25,.T.);
#188=EDGE_CURVE('',#231,#232,#26,.T.);
#189=EDGE_CURVE('',#232,#233,#27,.T.);
#190=EDGE_CURVE('',#233,#234,#28,.T.);
#191=EDGE_CURVE('',#234,#235,#29,.T.);
#192=EDGE_CURVE('',#228,#235,#30,.T.);
#193=EDGE_CURVE('',#236,#226,#31,.T.);
#194=EDGE_CURVE('',#237,#236,#32,.T.);
#195=EDGE_CURVE('',#237,#230,#33,.T.);
#196=EDGE_CURVE('',#238,#224,#34,.T.);
#197=EDGE_CURVE('',#239,#238,#35,.T.);
#198=EDGE_CURVE('',#239,#240,#36,.T.);
#199=EDGE_CURVE('',#240,#227,#37,.T.);
#200=EDGE_CURVE('',#229,#241,#38,.T.);
#201=EDGE_CURVE('',#242,#241,#39,.T.);
#202=EDGE_CURVE('',#243,#242,#40,.T.);
#203=EDGE_CURVE('',#244,#243,#41,.T.);
#204=EDGE_CURVE('',#245,#244,#42,.T.);
#205=EDGE_CURVE('',#245,#225,#43,.T.);
#206=EDGE_CURVE('',#246,#246,#254,.T.);
#207=EDGE_CURVE('',#247,#247,#255,.T.);
#208=EDGE_CURVE('',#242,#234,#44,.T.);
#209=EDGE_CURVE('',#235,#241,#45,.T.);
#210=EDGE_CURVE('',#248,#248,#256,.F.);
#211=EDGE_CURVE('',#230,#238,#46,.T.);
#212=EDGE_CURVE('',#237,#239,#47,.T.);
#213=EDGE_CURVE('',#249,#249,#257,.T.);
#214=EDGE_CURVE('',#231,#245,#48,.T.);
#215=EDGE_CURVE('',#232,#244,#49,.T.);
#216=EDGE_CURVE('',#250,#250,#258,.T.);
#217=EDGE_CURVE('',#243,#233,#50,.T.);
#218=EDGE_CURVE('',#251,#251,#259,.T.);
#219=EDGE_CURVE('',#236,#240,#51,.T.);
#220=VERTEX_POINT('',#484);
#221=VERTEX_POINT('',#486);
#222=VERTEX_POINT('',#488);
#223=VERTEX_POINT('',#489);
#224=VERTEX_POINT('',#491);
#225=VERTEX_POINT('',#493);
#226=VERTEX_POINT('',#497);
#227=VERTEX_POINT('',#498);
#228=VERTEX_POINT('',#500);
#229=VERTEX_POINT('',#502);
#230=VERTEX_POINT('',#506);
#231=VERTEX_POINT('',#508);
#232=VERTEX_POINT('',#510);
#233=VERTEX_POINT('',#512);
#234=VERTEX_POINT('',#514);
#235=VERTEX_POINT('',#516);
#236=VERTEX_POINT('',#519);
#237=VERTEX_POINT('',#521);
#238=VERTEX_POINT('',#525);
#239=VERTEX_POINT('',#527);
#240=VERTEX_POINT('',#529);
#241=VERTEX_POINT('',#532);
#242=VERTEX_POINT('',#534);
#243=VERTEX_POINT('',#536);
#244=VERTEX_POINT('',#538);
#245=VERTEX_POINT('',#540);
#246=VERTEX_POINT('',#544);
#247=VERTEX_POINT('',#547);
#248=VERTEX_POINT('',#554);
#249=VERTEX_POINT('',#559);
#250=VERTEX_POINT('',#564);
#251=VERTEX_POINT('',#569);
#252=CIRCLE('',#366,0.00135);
#253=CIRCLE('',#367,0.00135);
#254=CIRCLE('',#372,0.00135);
#255=CIRCLE('',#374,0.00135);
#256=CIRCLE('',#378,0.00135);
#257=CIRCLE('',#380,0.00135);
#258=CIRCLE('',#382,0.00135);
#259=CIRCLE('',#385,0.00135);
#260=EDGE_LOOP('',(#88));
#261=EDGE_LOOP('',(#89));
#262=EDGE_LOOP('',(#90,#91,#92,#93));
#263=EDGE_LOOP('',(#94,#95,#96,#97));
#264=EDGE_LOOP('',(#98,#99,#100,#101,#102,#103,#104,#105,#106,#107,#108,
#109));
#265=EDGE_LOOP('',(#110,#111,#112,#113,#114,#115,#116,#117,#118,#119,#120,
#121));
#266=EDGE_LOOP('',(#122));
#267=EDGE_LOOP('',(#123));
#268=EDGE_LOOP('',(#124));
#269=EDGE_LOOP('',(#125));
#270=EDGE_LOOP('',(#126,#127,#128,#129));
#271=EDGE_LOOP('',(#130));
#272=EDGE_LOOP('',(#131));
#273=EDGE_LOOP('',(#132,#133,#134,#135));
#274=EDGE_LOOP('',(#136));
#275=EDGE_LOOP('',(#137,#138,#139,#140));
#276=EDGE_LOOP('',(#141));
#277=EDGE_LOOP('',(#142,#143,#144,#145));
#278=EDGE_LOOP('',(#146));
#279=EDGE_LOOP('',(#147,#148,#149,#150));
#280=EDGE_LOOP('',(#151,#152,#153,#154));
#281=EDGE_LOOP('',(#155));
#282=EDGE_LOOP('',(#156,#157,#158,#159));
#283=EDGE_LOOP('',(#160,#161,#162,#163));
#284=EDGE_LOOP('',(#164));
#285=EDGE_LOOP('',(#165));
#286=EDGE_LOOP('',(#166));
#287=EDGE_LOOP('',(#167));
#288=EDGE_LOOP('',(#168,#169,#170,#171));
#289=EDGE_LOOP('',(#172,#173,#174,#175));
#290=FACE_BOUND('',#260,.T.);
#291=FACE_BOUND('',#261,.T.);
#292=FACE_BOUND('',#262,.T.);
#293=FACE_BOUND('',#263,.T.);
#294=FACE_BOUND('',#264,.T.);
#295=FACE_BOUND('',#265,.T.);
#296=FACE_BOUND('',#266,.T.);
#297=FACE_BOUND('',#267,.T.);
#298=FACE_BOUND('',#268,.T.);
#299=FACE_BOUND('',#269,.T.);
#300=FACE_BOUND('',#270,.T.);
#301=FACE_BOUND('',#271,.T.);
#302=FACE_BOUND('',#272,.T.);
#303=FACE_BOUND('',#273,.T.);
#304=FACE_BOUND('',#274,.T.);
#305=FACE_BOUND('',#275,.T.);
#306=FACE_BOUND('',#276,.T.);
#307=FACE_BOUND('',#277,.T.);
#308=FACE_BOUND('',#278,.T.);
#309=FACE_BOUND('',#279,.T.);
#310=FACE_BOUND('',#280,.T.);
#311=FACE_BOUND('',#281,.T.);
#312=FACE_BOUND('',#282,.T.);
#313=FACE_BOUND('',#283,.T.);
#314=FACE_BOUND('',#284,.T.);
#315=FACE_BOUND('',#285,.T.);
#316=FACE_BOUND('',#286,.T.);
#317=FACE_BOUND('',#287,.T.);
#318=FACE_BOUND('',#288,.T.);
#319=FACE_BOUND('',#289,.T.);
#320=PLANE('',#365);
#321=PLANE('',#368);
#322=PLANE('',#369);
#323=PLANE('',#370);
#324=PLANE('',#375);
#325=PLANE('',#376);
#326=PLANE('',#377);
#327=PLANE('',#379);
#328=PLANE('',#381);
#329=PLANE('',#383);
#330=PLANE('',#384);
#331=PLANE('',#386);
#332=PLANE('',#389);
#333=PLANE('',#390);
#334=ADVANCED_FACE('',(#290,#291,#292),#320,.T.);
#335=ADVANCED_FACE('',(#293),#321,.F.);
#336=ADVANCED_FACE('',(#294),#322,.T.);
#337=ADVANCED_FACE('',(#295),#323,.F.);
#338=ADVANCED_FACE('',(#296,#297),#12,.F.);
#339=ADVANCED_FACE('',(#298,#299),#13,.F.);
#340=ADVANCED_FACE('',(#300),#324,.T.);
#341=ADVANCED_FACE('',(#301,#302,#303),#325,.F.);
#342=ADVANCED_FACE('',(#304,#305),#326,.T.);
#343=ADVANCED_FACE('',(#306,#307),#327,.T.);
#344=ADVANCED_FACE('',(#308,#309),#328,.F.);
#345=ADVANCED_FACE('',(#310),#329,.T.);
#346=ADVANCED_FACE('',(#311,#312),#330,.F.);
#347=ADVANCED_FACE('',(#313),#331,.T.);
#348=ADVANCED_FACE('',(#314,#315),#14,.F.);
#349=ADVANCED_FACE('',(#316,#317),#15,.F.);
#350=ADVANCED_FACE('',(#318),#332,.F.);
#351=ADVANCED_FACE('',(#319),#333,.T.);
#352=CLOSED_SHELL('',(#334,#335,#336,#337,#338,#339,#340,#341,#342,#343,
#344,#345,#346,#347,#348,#349,#350,#351));
#353=STYLED_ITEM('',(#354),#361);
#354=PRESENTATION_STYLE_ASSIGNMENT((#355));
#355=SURFACE_STYLE_USAGE(.BOTH.,#356);
#356=SURFACE_SIDE_STYLE('',(#357));
#357=SURFACE_STYLE_FILL_AREA(#358);
#358=FILL_AREA_STYLE('',(#359));
#359=FILL_AREA_STYLE_COLOUR('',#360);
#360=COLOUR_RGB('',0.615686274509804,0.811764705882353,0.929411764705882);
#361=MANIFOLD_SOLID_BREP('dc_side_connector',#352);
#362=SHAPE_DEFINITION_REPRESENTATION(#582,#363);
#363=SHAPE_REPRESENTATION('dc_side_connector',(#364),#577);
#364=AXIS2_PLACEMENT_3D('',#481,#391,#392);
#365=AXIS2_PLACEMENT_3D('',#482,#393,#394);
#366=AXIS2_PLACEMENT_3D('',#483,#395,#396);
#367=AXIS2_PLACEMENT_3D('',#485,#397,#398);
#368=AXIS2_PLACEMENT_3D('',#495,#403,#404);
#369=AXIS2_PLACEMENT_3D('',#504,#409,#410);
#370=AXIS2_PLACEMENT_3D('',#523,#421,#422);
#371=AXIS2_PLACEMENT_3D('',#542,#433,#434);
#372=AXIS2_PLACEMENT_3D('',#543,#435,#436);
#373=AXIS2_PLACEMENT_3D('',#545,#437,#438);
#374=AXIS2_PLACEMENT_3D('',#546,#439,#440);
#375=AXIS2_PLACEMENT_3D('',#548,#441,#442);
#376=AXIS2_PLACEMENT_3D('',#551,#445,#446);
#377=AXIS2_PLACEMENT_3D('',#552,#447,#448);
#378=AXIS2_PLACEMENT_3D('',#553,#449,#450);
#379=AXIS2_PLACEMENT_3D('',#557,#453,#454);
#380=AXIS2_PLACEMENT_3D('',#558,#455,#456);
#381=AXIS2_PLACEMENT_3D('',#562,#459,#460);
#382=AXIS2_PLACEMENT_3D('',#563,#461,#462);
#383=AXIS2_PLACEMENT_3D('',#566,#464,#465);
#384=AXIS2_PLACEMENT_3D('',#567,#466,#467);
#385=AXIS2_PLACEMENT_3D('',#568,#468,#469);
#386=AXIS2_PLACEMENT_3D('',#571,#471,#472);
#387=AXIS2_PLACEMENT_3D('',#572,#473,#474);
#388=AXIS2_PLACEMENT_3D('',#573,#475,#476);
#389=AXIS2_PLACEMENT_3D('',#574,#477,#478);
#390=AXIS2_PLACEMENT_3D('',#575,#479,#480);
#391=DIRECTION('',(0.,0.,1.));
#392=DIRECTION('',(1.,0.,0.));
#393=DIRECTION('',(0.,-1.,0.));
#394=DIRECTION('',(1.,0.,0.));
#395=DIRECTION('',(0.,-1.,0.));
#396=DIRECTION('',(0.,0.,-1.));
#397=DIRECTION('',(0.,-1.,0.));
#398=DIRECTION('',(0.,0.,-1.));
#399=DIRECTION('',(-1.,0.,-1.3010426069826E-16));
#400=DIRECTION('',(1.7347234759768E-16,0.,1.));
#401=DIRECTION('',(-1.,0.,-1.3010426069826E-16));
#402=DIRECTION('',(-1.7347234759768E-16,0.,1.));
#403=DIRECTION('',(-1.,0.,0.));
#404=DIRECTION('',(0.,0.,1.));
#405=DIRECTION('',(0.,0.,1.));
#406=DIRECTION('',(0.,1.,0.));
#407=DIRECTION('',(0.,0.,1.));
#408=DIRECTION('',(0.,1.,0.));
#409=DIRECTION('',(1.3010426069826E-16,0.,-1.));
#410=DIRECTION('',(-1.,0.,-1.3010426069826E-16));
#411=DIRECTION('',(0.,1.,0.));
#412=DIRECTION('',(0.,1.,0.));
#413=DIRECTION('',(-1.,0.,-1.3010426069826E-16));
#414=DIRECTION('',(0.,1.,0.));
#415=DIRECTION('',(1.,0.,0.));
#416=DIRECTION('',(0.,1.,0.));
#417=DIRECTION('',(-1.,0.,-1.3010426069826E-16));
#418=DIRECTION('',(-1.,0.,0.));
#419=DIRECTION('',(0.,1.,0.));
#420=DIRECTION('',(-1.,0.,-1.3010426069826E-16));
#421=DIRECTION('',(1.3010426069826E-16,0.,-1.));
#422=DIRECTION('',(-1.,0.,-1.3010426069826E-16));
#423=DIRECTION('',(0.,1.,0.));
#424=DIRECTION('',(-1.,0.,-1.3010426069826E-16));
#425=DIRECTION('',(0.,1.,0.));
#426=DIRECTION('',(-1.,0.,0.));
#427=DIRECTION('',(-1.,0.,-1.3010426069826E-16));
#428=DIRECTION('',(0.,1.,0.));
#429=DIRECTION('',(1.,0.,0.));
#430=DIRECTION('',(0.,1.,0.));
#431=DIRECTION('',(-1.,0.,-1.3010426069826E-16));
#432=DIRECTION('',(0.,1.,0.));
#433=DIRECTION('',(0.,1.,0.));
#434=DIRECTION('',(0.,0.,1.));
#435=DIRECTION('',(0.,-1.,0.));
#436=DIRECTION('',(0.,0.,-1.));
#437=DIRECTION('',(0.,1.,0.));
#438=DIRECTION('',(0.,0.,1.));
#439=DIRECTION('',(0.,-1.,0.));
#440=DIRECTION('',(0.,0.,-1.));
#441=DIRECTION('',(-1.,0.,0.));
#442=DIRECTION('',(0.,0.,1.));
#443=DIRECTION('',(0.,0.,-1.));
#444=DIRECTION('',(0.,0.,1.));
#445=DIRECTION('',(0.,-1.,0.));
#446=DIRECTION('',(1.,0.,0.));
#447=DIRECTION('',(0.,-1.,0.));
#448=DIRECTION('',(1.,0.,0.));
#449=DIRECTION('',(0.,-1.,0.));
#450=DIRECTION('',(0.,0.,-1.));
#451=DIRECTION('',(1.7347234759768E-16,0.,1.));
#452=DIRECTION('',(0.,0.,1.));
#453=DIRECTION('',(0.,-1.,0.));
#454=DIRECTION('',(1.,0.,0.));
#455=DIRECTION('',(0.,-1.,0.));
#456=DIRECTION('',(0.,0.,-1.));
#457=DIRECTION('',(-1.7347234759768E-16,0.,1.));
#458=DIRECTION('',(0.,0.,1.));
#459=DIRECTION('',(0.,-1.,0.));
#460=DIRECTION('',(0.,0.,-1.));
#461=DIRECTION('',(0.,1.,0.));
#462=DIRECTION('',(0.,0.,1.));
#463=DIRECTION('',(0.,0.,-1.));
#464=DIRECTION('',(-1.,0.,0.));
#465=DIRECTION('',(0.,-1.,0.));
#466=DIRECTION('',(0.,-1.,0.));
#467=DIRECTION('',(0.,0.,-1.));
#468=DIRECTION('',(0.,-1.,0.));
#469=DIRECTION('',(0.,0.,1.));
#470=DIRECTION('',(0.,0.,1.));
#471=DIRECTION('',(1.,0.,0.));
#472=DIRECTION('',(0.,1.,0.));
#473=DIRECTION('',(0.,1.,0.));
#474=DIRECTION('',(0.,0.,1.));
#475=DIRECTION('',(0.,1.,0.));
#476=DIRECTION('',(0.,0.,1.));
#477=DIRECTION('',(-1.,0.,-1.7347234759768E-16));
#478=DIRECTION('',(-1.7347234759768E-16,0.,1.));
#479=DIRECTION('',(-1.,0.,1.7347234759768E-16));
#480=DIRECTION('',(1.7347234759768E-16,0.,1.));
#481=CARTESIAN_POINT('',(0.,0.,0.));
#482=CARTESIAN_POINT('',(0.,-0.003,0.));
#483=CARTESIAN_POINT('',(-0.003,-0.003,8.26636589424463E-20));
#484=CARTESIAN_POINT('',(-0.003,-0.003,-0.00135));
#485=CARTESIAN_POINT('',(0.003,-0.003,8.26636589424463E-20));
#486=CARTESIAN_POINT('',(0.003,-0.003,-0.00135));
#487=CARTESIAN_POINT('',(-1.7347234759768E-18,-0.003,-0.0025));
#488=CARTESIAN_POINT('',(0.006,-0.003,-0.0025));
#489=CARTESIAN_POINT('',(-0.006,-0.003,-0.0025));
#490=CARTESIAN_POINT('',(0.006,-0.003,-1.12757025938492E-18));
#491=CARTESIAN_POINT('',(0.006,-0.003,0.0025));
#492=CARTESIAN_POINT('',(0.,-0.003,0.0025));
#493=CARTESIAN_POINT('',(-0.006,-0.003,0.0025));
#494=CARTESIAN_POINT('',(-0.006,-0.003,-1.12757025938492E-18));
#495=CARTESIAN_POINT('',(0.01,-0.003,1.3010426069826E-18));
#496=CARTESIAN_POINT('',(0.01,-0.012,1.3010426069826E-18));
#497=CARTESIAN_POINT('',(0.01,-0.012,-0.0025));
#498=CARTESIAN_POINT('',(0.01,-0.012,0.0025));
#499=CARTESIAN_POINT('',(0.01,-0.003,-0.0025));
#500=CARTESIAN_POINT('',(0.01,0.,-0.0025));
#501=CARTESIAN_POINT('',(0.01,0.,1.3010426069826E-18));
#502=CARTESIAN_POINT('',(0.01,0.,0.0025));
#503=CARTESIAN_POINT('',(0.01,-0.003,0.0025));
#504=CARTESIAN_POINT('',(-1.7347234759768E-18,-0.003,-0.0025));
#505=CARTESIAN_POINT('',(0.006,-0.015,-0.0025));
#506=CARTESIAN_POINT('',(0.006,-0.015,-0.0025));
#507=CARTESIAN_POINT('',(-0.006,-0.015,-0.0025));
#508=CARTESIAN_POINT('',(-0.006,-0.015,-0.0025));
#509=CARTESIAN_POINT('',(-1.7347234759768E-18,-0.015,-0.0025));
#510=CARTESIAN_POINT('',(-0.015,-0.015,-0.0025));
#511=CARTESIAN_POINT('',(-0.015,-0.003,-0.0025));
#512=CARTESIAN_POINT('',(-0.015,-0.012,-0.0025));
#513=CARTESIAN_POINT('',(-0.015,-0.012,-0.0025));
#514=CARTESIAN_POINT('',(-0.01,-0.012,-0.0025));
#515=CARTESIAN_POINT('',(-0.01,-0.003,-0.0025));
#516=CARTESIAN_POINT('',(-0.01,0.,-0.0025));
#517=CARTESIAN_POINT('',(-1.7347234759768E-18,0.,-0.0025));
#518=CARTESIAN_POINT('',(0.015,-0.012,-0.0025));
#519=CARTESIAN_POINT('',(0.015,-0.012,-0.0025));
#520=CARTESIAN_POINT('',(0.015,-0.003,-0.0025));
#521=CARTESIAN_POINT('',(0.015,-0.015,-0.0025));
#522=CARTESIAN_POINT('',(-1.7347234759768E-18,-0.015,-0.0025));
#523=CARTESIAN_POINT('',(0.,-0.003,0.0025));
#524=CARTESIAN_POINT('',(0.006,-0.015,0.0025));
#525=CARTESIAN_POINT('',(0.006,-0.015,0.0025));
#526=CARTESIAN_POINT('',(0.,-0.015,0.0025));
#527=CARTESIAN_POINT('',(0.015,-0.015,0.0025));
#528=CARTESIAN_POINT('',(0.015,-0.003,0.0025));
#529=CARTESIAN_POINT('',(0.015,-0.012,0.0025));
#530=CARTESIAN_POINT('',(0.015,-0.012,0.0025));
#531=CARTESIAN_POINT('',(0.,0.,0.0025));
#532=CARTESIAN_POINT('',(-0.01,0.,0.0025));
#533=CARTESIAN_POINT('',(-0.01,-0.003,0.0025));
#534=CARTESIAN_POINT('',(-0.01,-0.012,0.0025));
#535=CARTESIAN_POINT('',(-0.015,-0.012,0.0025));
#536=CARTESIAN_POINT('',(-0.015,-0.012,0.0025));
#537=CARTESIAN_POINT('',(-0.015,-0.003,0.0025));
#538=CARTESIAN_POINT('',(-0.015,-0.015,0.0025));
#539=CARTESIAN_POINT('',(0.,-0.015,0.0025));
#540=CARTESIAN_POINT('',(-0.006,-0.015,0.0025));
#541=CARTESIAN_POINT('',(-0.006,-0.015,0.0025));
#542=CARTESIAN_POINT('',(0.003,-0.003,8.26636589424463E-20));
#543=CARTESIAN_POINT('',(0.003,0.,8.26636589424463E-20));
#544=CARTESIAN_POINT('',(0.003,0.,-0.00135));
#545=CARTESIAN_POINT('',(-0.003,-0.003,8.26636589424463E-20));
#546=CARTESIAN_POINT('',(-0.003,0.,8.26636589424463E-20));
#547=CARTESIAN_POINT('',(-0.003,0.,-0.00135));
#548=CARTESIAN_POINT('',(-0.01,-0.003,-1.3010426069826E-18));
#549=CARTESIAN_POINT('',(-0.01,-0.012,-1.3010426069826E-18));
#550=CARTESIAN_POINT('',(-0.01,0.,-1.3010426069826E-18));
#551=CARTESIAN_POINT('',(0.,0.,0.));
#552=CARTESIAN_POINT('',(0.,-0.015,0.));
#553=CARTESIAN_POINT('',(0.0125,-0.015,-1.83169631471351E-18));
#554=CARTESIAN_POINT('',(0.0125,-0.015,-0.00135));
#555=CARTESIAN_POINT('',(0.006,-0.015,-1.12757025938492E-18));
#556=CARTESIAN_POINT('',(0.015,-0.015,1.3010426069826E-18));
#557=CARTESIAN_POINT('',(0.,-0.015,0.));
#558=CARTESIAN_POINT('',(-0.0125,-0.015,-1.83169631471351E-18));
#559=CARTESIAN_POINT('',(-0.0125,-0.015,-0.00135));
#560=CARTESIAN_POINT('',(-0.006,-0.015,-1.12757025938492E-18));
#561=CARTESIAN_POINT('',(-0.015,-0.015,-1.3010426069826E-18));
#562=CARTESIAN_POINT('',(-0.015,-0.012,-1.3010426069826E-18));
#563=CARTESIAN_POINT('',(-0.0125,-0.012,-1.83169631471351E-18));
#564=CARTESIAN_POINT('',(-0.0125,-0.012,0.00135));
#565=CARTESIAN_POINT('',(-0.015,-0.012,-1.3010426069826E-18));
#566=CARTESIAN_POINT('',(-0.015,-0.0075,-8.67361737988404E-19));
#567=CARTESIAN_POINT('',(0.015,-0.012,1.3010426069826E-18));
#568=CARTESIAN_POINT('',(0.0125,-0.012,-1.83169631471351E-18));
#569=CARTESIAN_POINT('',(0.0125,-0.012,0.00135));
#570=CARTESIAN_POINT('',(0.015,-0.012,1.3010426069826E-18));
#571=CARTESIAN_POINT('',(0.015,-0.0075,8.67361737988404E-19));
#572=CARTESIAN_POINT('',(0.0125,-0.037,-1.83169631471351E-18));
#573=CARTESIAN_POINT('',(-0.0125,-0.037,-1.83169631471351E-18));
#574=CARTESIAN_POINT('',(-0.006,-0.015,-1.12757025938492E-18));
#575=CARTESIAN_POINT('',(0.006,-0.015,-1.12757025938492E-18));
#576=MECHANICAL_DESIGN_GEOMETRIC_PRESENTATION_REPRESENTATION('',(#353),
#577);
#577=(
GEOMETRIC_REPRESENTATION_CONTEXT(3)
GLOBAL_UNCERTAINTY_ASSIGNED_CONTEXT((#578))
GLOBAL_UNIT_ASSIGNED_CONTEXT((#581,#580,#579))
REPRESENTATION_CONTEXT('dc_side_connector','TOP_LEVEL_ASSEMBLY_PART')
);
#578=UNCERTAINTY_MEASURE_WITH_UNIT(LENGTH_MEASURE(1.E-8),#581,
'DISTANCE_ACCURACY_VALUE','Maximum Tolerance applied to model');
#579=(
NAMED_UNIT(*)
SI_UNIT($,.STERADIAN.)
SOLID_ANGLE_UNIT()
);
#580=(
NAMED_UNIT(*)
PLANE_ANGLE_UNIT()
SI_UNIT($,.RADIAN.)
);
#581=(
LENGTH_UNIT()
NAMED_UNIT(*)
SI_UNIT($,.METRE.)
);
#582=PRODUCT_DEFINITION_SHAPE('','',#583);
#583=PRODUCT_DEFINITION('','',#585,#584);
#584=PRODUCT_DEFINITION_CONTEXT('',#591,'design');
#585=PRODUCT_DEFINITION_FORMATION_WITH_SPECIFIED_SOURCE('','',#587,
 .NOT_KNOWN.);
#586=PRODUCT_RELATED_PRODUCT_CATEGORY('','',(#587));
#587=PRODUCT('dc_side_connector','dc_side_connector',
'dc_side_connector',(#589));
#588=PRODUCT_CATEGORY('','');
#589=PRODUCT_CONTEXT('',#591,'mechanical');
#590=APPLICATION_PROTOCOL_DEFINITION('international standard',
'ap242_managed_model_based_3d_engineering',2020,#591);
#591=APPLICATION_CONTEXT('managed model based 3d engineering');
ENDSEC;
END-ISO-10303-21;
