ISO-10303-21;
HEADER;
/* Generated by software containing ST-Developer
 * from STEP Tools, Inc. (www.steptools.com) 
 */
/* OPTION: using custom renumber hook */

FILE_DESCRIPTION(
/* description */ ('STEP AP242 Edition 2',
'CAx-IF Rec.Pracs.---Representation and Presentation of Product Manufa
cturing Information (PMI)---4.0---2014-10-13',
'CAx-IF Rec.Pracs.---3D Tessellated Geometry---0.4---2014-09-14','2;1',
'CAx-IF Rec.Pracs.---User Defined Attributes---1.5---2016-08-15'),
/* implementation_level */ '2;1');

FILE_NAME(
/* name */ 'Assembly 1 - servo_arm',
/* time_stamp */ '2026-08-18T11:49:10Z',
/* author */ (''),
/* organization */ (''),
/* preprocessor_version */ 'ST-DEVELOPER v20',
/* originating_system */ 'ONSHAPE BY PTC INC, 1.219',
/* authorisation */ '  ');

FILE_SCHEMA (('AP242_MANAGED_MODEL_BASED_3D_ENGINEERING_MIM_LF { 1 0 10303 442 3 1 4 }'));
ENDSEC;

DATA;
#10=SHAPE_REPRESENTATION_RELATIONSHIP('','',#256,#11);
#11=ADVANCED_BREP_SHAPE_REPRESENTATION('',(#254),#494);
#12=B_SPLINE_SURFACE_WITH_KNOTS('',5,1,((#461,#462),(#463,#464),(#465,#466),
(#467,#468),(#469,#470),(#471,#472),(#473,#474),(#475,#476)),
 .SURF_OF_LINEAR_EXTRUSION.,.F.,.F.,.F.,(6,2,6),(2,2),(0.,0.5,1.),(0.,1.),
 .UNSPECIFIED.);
#13=B_SPLINE_SURFACE_WITH_KNOTS('',5,1,((#477,#478),(#479,#480),(#481,#482),
(#483,#484),(#485,#486),(#487,#488),(#489,#490),(#491,#492)),
 .SURF_OF_LINEAR_EXTRUSION.,.F.,.F.,.F.,(6,2,6),(2,2),(0.,0.5,1.),(0.,1.),
 .UNSPECIFIED.);
#14=CYLINDRICAL_SURFACE('',#268,0.0034);
#15=CYLINDRICAL_SURFACE('',#271,0.002);
#16=CIRCLE('',#265,0.0034);
#17=CIRCLE('',#266,0.002);
#18=CIRCLE('',#269,0.0034);
#19=CIRCLE('',#272,0.002);
#20=B_SPLINE_CURVE_WITH_KNOTS('',3,(#334,#335,#336,#337),.UNSPECIFIED.,
 .F.,.F.,(4,4),(0.,1.),.UNSPECIFIED.);
#21=B_SPLINE_CURVE_WITH_KNOTS('',3,(#346,#347,#348,#349),.UNSPECIFIED.,
 .F.,.F.,(4,4),(0.,1.),.UNSPECIFIED.);
#22=B_SPLINE_CURVE_WITH_KNOTS('',3,(#357,#358,#359,#360),.UNSPECIFIED.,
 .F.,.F.,(4,4),(0.,1.),.UNSPECIFIED.);
#23=B_SPLINE_CURVE_WITH_KNOTS('',3,(#367,#368,#369,#370),.UNSPECIFIED.,
 .F.,.F.,(4,4),(0.,1.),.UNSPECIFIED.);
#24=B_SPLINE_CURVE_WITH_KNOTS('',3,(#379,#380,#381,#382),.UNSPECIFIED.,
 .F.,.F.,(4,4),(0.,1.),.UNSPECIFIED.);
#25=B_SPLINE_CURVE_WITH_KNOTS('',3,(#383,#384,#385,#386,#387,#388,#389,
#390,#391,#392,#393,#394,#395,#396,#397,#398,#399,#400,#401,#402,#403,#404,
#405,#406),.UNSPECIFIED.,.F.,.F.,(4,1,1,1,1,1,1,1,1,1,1,1,1,1,1,1,1,1,1,
1,1,4),(0.,0.0625,0.09375,0.125,0.140625,0.15625,0.1875,0.25,0.28125,0.3125,
0.375,0.5,0.625,0.75,0.78125,0.8125,0.84375,0.875,0.890625,0.90625,0.9375,
1.),.UNSPECIFIED.);
#26=B_SPLINE_CURVE_WITH_KNOTS('',3,(#416,#417,#418,#419),.UNSPECIFIED.,
 .F.,.F.,(4,4),(0.,1.),.UNSPECIFIED.);
#27=B_SPLINE_CURVE_WITH_KNOTS('',3,(#420,#421,#422,#423,#424,#425,#426,
#427,#428,#429,#430,#431,#432,#433,#434,#435,#436,#437,#438,#439,#440,#441,
#442,#443),.UNSPECIFIED.,.F.,.F.,(4,1,1,1,1,1,1,1,1,1,1,1,1,1,1,1,1,1,1,
1,1,4),(0.,0.0625,0.09375,0.125,0.140625,0.15625,0.1875,0.25,0.28125,0.3125,
0.375,0.5,0.625,0.75,0.78125,0.8125,0.84375,0.875,0.890625,0.90625,0.9375,
1.),.UNSPECIFIED.);
#28=ORIENTED_EDGE('',*,*,#94,.F.);
#29=ORIENTED_EDGE('',*,*,#95,.T.);
#30=ORIENTED_EDGE('',*,*,#96,.T.);
#31=ORIENTED_EDGE('',*,*,#97,.T.);
#32=ORIENTED_EDGE('',*,*,#98,.T.);
#33=ORIENTED_EDGE('',*,*,#99,.T.);
#34=ORIENTED_EDGE('',*,*,#100,.F.);
#35=ORIENTED_EDGE('',*,*,#101,.F.);
#36=ORIENTED_EDGE('',*,*,#102,.F.);
#37=ORIENTED_EDGE('',*,*,#103,.T.);
#38=ORIENTED_EDGE('',*,*,#104,.T.);
#39=ORIENTED_EDGE('',*,*,#101,.T.);
#40=ORIENTED_EDGE('',*,*,#105,.T.);
#41=ORIENTED_EDGE('',*,*,#106,.T.);
#42=ORIENTED_EDGE('',*,*,#107,.F.);
#43=ORIENTED_EDGE('',*,*,#108,.F.);
#44=ORIENTED_EDGE('',*,*,#109,.F.);
#45=ORIENTED_EDGE('',*,*,#97,.F.);
#46=ORIENTED_EDGE('',*,*,#110,.T.);
#47=ORIENTED_EDGE('',*,*,#108,.T.);
#48=ORIENTED_EDGE('',*,*,#104,.F.);
#49=ORIENTED_EDGE('',*,*,#111,.T.);
#50=ORIENTED_EDGE('',*,*,#105,.F.);
#51=ORIENTED_EDGE('',*,*,#110,.F.);
#52=ORIENTED_EDGE('',*,*,#96,.F.);
#53=ORIENTED_EDGE('',*,*,#112,.T.);
#54=ORIENTED_EDGE('',*,*,#98,.F.);
#55=ORIENTED_EDGE('',*,*,#113,.T.);
#56=ORIENTED_EDGE('',*,*,#114,.T.);
#57=ORIENTED_EDGE('',*,*,#115,.F.);
#58=ORIENTED_EDGE('',*,*,#116,.T.);
#59=ORIENTED_EDGE('',*,*,#107,.T.);
#60=ORIENTED_EDGE('',*,*,#117,.T.);
#61=ORIENTED_EDGE('',*,*,#102,.T.);
#62=ORIENTED_EDGE('',*,*,#100,.T.);
#63=ORIENTED_EDGE('',*,*,#118,.T.);
#64=ORIENTED_EDGE('',*,*,#94,.T.);
#65=ORIENTED_EDGE('',*,*,#109,.T.);
#66=ORIENTED_EDGE('',*,*,#113,.F.);
#67=ORIENTED_EDGE('',*,*,#119,.F.);
#68=ORIENTED_EDGE('',*,*,#120,.T.);
#69=ORIENTED_EDGE('',*,*,#121,.T.);
#70=ORIENTED_EDGE('',*,*,#114,.F.);
#71=ORIENTED_EDGE('',*,*,#121,.F.);
#72=ORIENTED_EDGE('',*,*,#122,.T.);
#73=ORIENTED_EDGE('',*,*,#123,.T.);
#74=ORIENTED_EDGE('',*,*,#115,.T.);
#75=ORIENTED_EDGE('',*,*,#123,.F.);
#76=ORIENTED_EDGE('',*,*,#124,.F.);
#77=ORIENTED_EDGE('',*,*,#125,.T.);
#78=ORIENTED_EDGE('',*,*,#116,.F.);
#79=ORIENTED_EDGE('',*,*,#125,.F.);
#80=ORIENTED_EDGE('',*,*,#126,.T.);
#81=ORIENTED_EDGE('',*,*,#119,.T.);
#82=ORIENTED_EDGE('',*,*,#120,.F.);
#83=ORIENTED_EDGE('',*,*,#126,.F.);
#84=ORIENTED_EDGE('',*,*,#124,.T.);
#85=ORIENTED_EDGE('',*,*,#122,.F.);
#86=ORIENTED_EDGE('',*,*,#112,.F.);
#87=ORIENTED_EDGE('',*,*,#95,.F.);
#88=ORIENTED_EDGE('',*,*,#118,.F.);
#89=ORIENTED_EDGE('',*,*,#99,.F.);
#90=ORIENTED_EDGE('',*,*,#111,.F.);
#91=ORIENTED_EDGE('',*,*,#103,.F.);
#92=ORIENTED_EDGE('',*,*,#117,.F.);
#93=ORIENTED_EDGE('',*,*,#106,.F.);
#94=EDGE_CURVE('',#127,#128,#149,.T.);
#95=EDGE_CURVE('',#127,#129,#20,.T.);
#96=EDGE_CURVE('',#129,#130,#150,.T.);
#97=EDGE_CURVE('',#130,#128,#151,.T.);
#98=EDGE_CURVE('',#131,#132,#152,.T.);
#99=EDGE_CURVE('',#132,#133,#21,.T.);
#100=EDGE_CURVE('',#134,#133,#153,.T.);
#101=EDGE_CURVE('',#131,#134,#154,.T.);
#102=EDGE_CURVE('',#135,#134,#155,.T.);
#103=EDGE_CURVE('',#135,#136,#22,.T.);
#104=EDGE_CURVE('',#136,#131,#156,.T.);
#105=EDGE_CURVE('',#137,#138,#157,.T.);
#106=EDGE_CURVE('',#138,#139,#23,.T.);
#107=EDGE_CURVE('',#140,#139,#158,.T.);
#108=EDGE_CURVE('',#137,#140,#159,.T.);
#109=EDGE_CURVE('',#128,#140,#160,.T.);
#110=EDGE_CURVE('',#130,#137,#161,.T.);
#111=EDGE_CURVE('',#136,#138,#24,.T.);
#112=EDGE_CURVE('',#129,#132,#25,.T.);
#113=EDGE_CURVE('',#141,#142,#162,.T.);
#114=EDGE_CURVE('',#142,#143,#16,.T.);
#115=EDGE_CURVE('',#144,#143,#163,.T.);
#116=EDGE_CURVE('',#144,#141,#17,.T.);
#117=EDGE_CURVE('',#139,#135,#26,.T.);
#118=EDGE_CURVE('',#133,#127,#27,.T.);
#119=EDGE_CURVE('',#145,#141,#164,.T.);
#120=EDGE_CURVE('',#145,#146,#165,.T.);
#121=EDGE_CURVE('',#146,#142,#166,.T.);
#122=EDGE_CURVE('',#146,#147,#18,.T.);
#123=EDGE_CURVE('',#147,#143,#167,.T.);
#124=EDGE_CURVE('',#148,#147,#168,.T.);
#125=EDGE_CURVE('',#148,#144,#169,.T.);
#126=EDGE_CURVE('',#148,#145,#19,.T.);
#127=VERTEX_POINT('',#332);
#128=VERTEX_POINT('',#333);
#129=VERTEX_POINT('',#338);
#130=VERTEX_POINT('',#340);
#131=VERTEX_POINT('',#344);
#132=VERTEX_POINT('',#345);
#133=VERTEX_POINT('',#350);
#134=VERTEX_POINT('',#352);
#135=VERTEX_POINT('',#356);
#136=VERTEX_POINT('',#361);
#137=VERTEX_POINT('',#365);
#138=VERTEX_POINT('',#366);
#139=VERTEX_POINT('',#371);
#140=VERTEX_POINT('',#373);
#141=VERTEX_POINT('',#409);
#142=VERTEX_POINT('',#410);
#143=VERTEX_POINT('',#412);
#144=VERTEX_POINT('',#414);
#145=VERTEX_POINT('',#446);
#146=VERTEX_POINT('',#448);
#147=VERTEX_POINT('',#452);
#148=VERTEX_POINT('',#456);
#149=LINE('',#331,#170);
#150=LINE('',#339,#171);
#151=LINE('',#341,#172);
#152=LINE('',#343,#173);
#153=LINE('',#351,#174);
#154=LINE('',#353,#175);
#155=LINE('',#355,#176);
#156=LINE('',#362,#177);
#157=LINE('',#364,#178);
#158=LINE('',#372,#179);
#159=LINE('',#374,#180);
#160=LINE('',#376,#181);
#161=LINE('',#377,#182);
#162=LINE('',#408,#183);
#163=LINE('',#413,#184);
#164=LINE('',#445,#185);
#165=LINE('',#447,#186);
#166=LINE('',#449,#187);
#167=LINE('',#453,#188);
#168=LINE('',#455,#189);
#169=LINE('',#457,#190);
#170=VECTOR('',#278,1.);
#171=VECTOR('',#279,1.);
#172=VECTOR('',#280,1.);
#173=VECTOR('',#283,1.);
#174=VECTOR('',#284,1.);
#175=VECTOR('',#285,1.);
#176=VECTOR('',#288,1.);
#177=VECTOR('',#289,1.);
#178=VECTOR('',#292,1.);
#179=VECTOR('',#293,1.);
#180=VECTOR('',#294,1.);
#181=VECTOR('',#297,1.);
#182=VECTOR('',#298,1.);
#183=VECTOR('',#303,1.);
#184=VECTOR('',#306,1.);
#185=VECTOR('',#311,1.);
#186=VECTOR('',#312,1.);
#187=VECTOR('',#313,1.);
#188=VECTOR('',#318,1.);
#189=VECTOR('',#321,1.);
#190=VECTOR('',#322,1.);
#191=EDGE_LOOP('',(#28,#29,#30,#31));
#192=EDGE_LOOP('',(#32,#33,#34,#35));
#193=EDGE_LOOP('',(#36,#37,#38,#39));
#194=EDGE_LOOP('',(#40,#41,#42,#43));
#195=EDGE_LOOP('',(#44,#45,#46,#47));
#196=EDGE_LOOP('',(#48,#49,#50,#51,#52,#53,#54));
#197=EDGE_LOOP('',(#55,#56,#57,#58));
#198=EDGE_LOOP('',(#59,#60,#61,#62,#63,#64,#65));
#199=EDGE_LOOP('',(#66,#67,#68,#69));
#200=EDGE_LOOP('',(#70,#71,#72,#73));
#201=EDGE_LOOP('',(#74,#75,#76,#77));
#202=EDGE_LOOP('',(#78,#79,#80,#81));
#203=EDGE_LOOP('',(#82,#83,#84,#85));
#204=EDGE_LOOP('',(#86,#87,#88,#89));
#205=EDGE_LOOP('',(#90,#91,#92,#93));
#206=FACE_BOUND('',#191,.T.);
#207=FACE_BOUND('',#192,.T.);
#208=FACE_BOUND('',#193,.T.);
#209=FACE_BOUND('',#194,.T.);
#210=FACE_BOUND('',#195,.T.);
#211=FACE_BOUND('',#196,.T.);
#212=FACE_BOUND('',#197,.T.);
#213=FACE_BOUND('',#198,.T.);
#214=FACE_BOUND('',#199,.T.);
#215=FACE_BOUND('',#200,.T.);
#216=FACE_BOUND('',#201,.T.);
#217=FACE_BOUND('',#202,.T.);
#218=FACE_BOUND('',#203,.T.);
#219=FACE_BOUND('',#204,.T.);
#220=FACE_BOUND('',#205,.T.);
#221=PLANE('',#258);
#222=PLANE('',#259);
#223=PLANE('',#260);
#224=PLANE('',#261);
#225=PLANE('',#262);
#226=PLANE('',#263);
#227=PLANE('',#264);
#228=PLANE('',#267);
#229=PLANE('',#270);
#230=PLANE('',#273);
#231=ADVANCED_FACE('',(#206),#221,.T.);
#232=ADVANCED_FACE('',(#207),#222,.T.);
#233=ADVANCED_FACE('',(#208),#223,.T.);
#234=ADVANCED_FACE('',(#209),#224,.T.);
#235=ADVANCED_FACE('',(#210),#225,.T.);
#236=ADVANCED_FACE('',(#211),#226,.T.);
#237=ADVANCED_FACE('',(#212,#213),#227,.F.);
#238=ADVANCED_FACE('',(#214),#228,.T.);
#239=ADVANCED_FACE('',(#215),#14,.F.);
#240=ADVANCED_FACE('',(#216),#229,.F.);
#241=ADVANCED_FACE('',(#217),#15,.F.);
#242=ADVANCED_FACE('',(#218),#230,.F.);
#243=ADVANCED_FACE('',(#219),#12,.T.);
#244=ADVANCED_FACE('',(#220),#13,.T.);
#245=CLOSED_SHELL('',(#231,#232,#233,#234,#235,#236,#237,#238,#239,#240,
#241,#242,#243,#244));
#246=STYLED_ITEM('',(#247),#254);
#247=PRESENTATION_STYLE_ASSIGNMENT((#248));
#248=SURFACE_STYLE_USAGE(.BOTH.,#249);
#249=SURFACE_SIDE_STYLE('',(#250));
#250=SURFACE_STYLE_FILL_AREA(#251);
#251=FILL_AREA_STYLE('',(#252));
#252=FILL_AREA_STYLE_COLOUR('',#253);
#253=COLOUR_RGB('',0.615686274509804,0.811764705882353,0.929411764705882);
#254=MANIFOLD_SOLID_BREP('servo_arm',#245);
#255=SHAPE_DEFINITION_REPRESENTATION(#499,#256);
#256=SHAPE_REPRESENTATION('servo_arm',(#257),#494);
#257=AXIS2_PLACEMENT_3D('',#329,#274,#275);
#258=AXIS2_PLACEMENT_3D('',#330,#276,#277);
#259=AXIS2_PLACEMENT_3D('',#342,#281,#282);
#260=AXIS2_PLACEMENT_3D('',#354,#286,#287);
#261=AXIS2_PLACEMENT_3D('',#363,#290,#291);
#262=AXIS2_PLACEMENT_3D('',#375,#295,#296);
#263=AXIS2_PLACEMENT_3D('',#378,#299,#300);
#264=AXIS2_PLACEMENT_3D('',#407,#301,#302);
#265=AXIS2_PLACEMENT_3D('',#411,#304,#305);
#266=AXIS2_PLACEMENT_3D('',#415,#307,#308);
#267=AXIS2_PLACEMENT_3D('',#444,#309,#310);
#268=AXIS2_PLACEMENT_3D('',#450,#314,#315);
#269=AXIS2_PLACEMENT_3D('',#451,#316,#317);
#270=AXIS2_PLACEMENT_3D('',#454,#319,#320);
#271=AXIS2_PLACEMENT_3D('',#458,#323,#324);
#272=AXIS2_PLACEMENT_3D('',#459,#325,#326);
#273=AXIS2_PLACEMENT_3D('',#460,#327,#328);
#274=DIRECTION('',(0.,0.,1.));
#275=DIRECTION('',(1.,0.,0.));
#276=DIRECTION('',(1.,0.,0.));
#277=DIRECTION('',(0.,0.,-1.));
#278=DIRECTION('',(0.,-1.,0.));
#279=DIRECTION('',(0.,-1.,0.));
#280=DIRECTION('',(0.,0.,-1.));
#281=DIRECTION('',(-0.139254831399099,0.990256578838035,0.));
#282=DIRECTION('',(-0.990256578838035,-0.139254831399099,0.));
#283=DIRECTION('',(0.990256578838035,0.139254831399099,0.));
#284=DIRECTION('',(0.990256578838035,0.139254831399099,0.));
#285=DIRECTION('',(0.,0.,-1.));
#286=DIRECTION('',(0.,1.,0.));
#287=DIRECTION('',(0.,0.,1.));
#288=DIRECTION('',(1.,0.,0.));
#289=DIRECTION('',(1.,0.,0.));
#290=DIRECTION('',(-1.,0.,0.));
#291=DIRECTION('',(0.,0.,1.));
#292=DIRECTION('',(0.,1.,0.));
#293=DIRECTION('',(0.,1.,0.));
#294=DIRECTION('',(0.,0.,-1.));
#295=DIRECTION('',(1.23908819712629E-16,-1.,0.));
#296=DIRECTION('',(1.,1.23908819712629E-16,0.));
#297=DIRECTION('',(-1.,-1.23908819712629E-16,0.));
#298=DIRECTION('',(-1.,-1.23908819712629E-16,0.));
#299=DIRECTION('',(0.,0.,1.));
#300=DIRECTION('',(1.,0.,0.));
#301=DIRECTION('',(0.,0.,1.));
#302=DIRECTION('',(1.,0.,0.));
#303=DIRECTION('',(0.996258814905285,-0.0864197530864199,0.));
#304=DIRECTION('',(0.,0.,1.));
#305=DIRECTION('',(1.,0.,0.));
#306=DIRECTION('',(0.996258814905285,0.0864197530864199,0.));
#307=DIRECTION('',(0.,0.,1.));
#308=DIRECTION('',(1.,0.,0.));
#309=DIRECTION('',(0.0864197530864199,0.996258814905285,0.));
#310=DIRECTION('',(-0.996258814905285,0.0864197530864199,0.));
#311=DIRECTION('',(0.,0.,-1.));
#312=DIRECTION('',(0.996258814905285,-0.0864197530864199,0.));
#313=DIRECTION('',(0.,0.,-1.));
#314=DIRECTION('',(0.,0.,-1.));
#315=DIRECTION('',(-1.,0.,0.));
#316=DIRECTION('',(0.,0.,1.));
#317=DIRECTION('',(1.,0.,0.));
#318=DIRECTION('',(0.,0.,-1.));
#319=DIRECTION('',(-0.0864197530864199,0.996258814905285,0.));
#320=DIRECTION('',(-0.996258814905285,-0.0864197530864199,0.));
#321=DIRECTION('',(0.996258814905285,0.0864197530864199,0.));
#322=DIRECTION('',(0.,0.,-1.));
#323=DIRECTION('',(0.,0.,-1.));
#324=DIRECTION('',(-1.,0.,0.));
#325=DIRECTION('',(0.,0.,1.));
#326=DIRECTION('',(1.,0.,0.));
#327=DIRECTION('',(0.,0.,1.));
#328=DIRECTION('',(1.,0.,0.));
#329=CARTESIAN_POINT('',(0.,0.,0.));
#330=CARTESIAN_POINT('',(0.0054,-0.002,0.01));
#331=CARTESIAN_POINT('',(0.0054,-0.002,0.));
#332=CARTESIAN_POINT('',(0.0054,-0.000902785737021198,0.));
#333=CARTESIAN_POINT('',(0.0054,-0.004,0.));
#334=CARTESIAN_POINT('',(0.0054,-0.000902785737021198,-3.60822483003176E-16));
#335=CARTESIAN_POINT('',(0.0054,-0.000902785737021198,0.00333333333333334));
#336=CARTESIAN_POINT('',(0.0054,-0.000902785737021198,0.00666666666666705));
#337=CARTESIAN_POINT('',(0.0054,-0.000902785737021198,0.0100000000000007));
#338=CARTESIAN_POINT('',(0.0054,-0.000902785737021198,0.01));
#339=CARTESIAN_POINT('',(0.0054,-0.002,0.01));
#340=CARTESIAN_POINT('',(0.0054,-0.004,0.01));
#341=CARTESIAN_POINT('',(0.0054,-0.004,0.01));
#342=CARTESIAN_POINT('',(-0.00736202170461198,0.00420534069778894,0.01));
#343=CARTESIAN_POINT('',(-0.00736202170461198,0.00420534069778894,0.01));
#344=CARTESIAN_POINT('',(-0.0372666666666666,2.16840434497101E-19,0.01));
#345=CARTESIAN_POINT('',(-0.00143552898839459,0.00503875373600701,0.01));
#346=CARTESIAN_POINT('',(-0.00143552898839459,0.00503875373600701,0.0100000000000007));
#347=CARTESIAN_POINT('',(-0.00143552898839459,0.00503875373600701,0.00666666666666704));
#348=CARTESIAN_POINT('',(-0.00143552898839459,0.00503875373600701,0.00333333333333334));
#349=CARTESIAN_POINT('',(-0.00143552898839459,0.00503875373600701,-3.6949610038306E-16));
#350=CARTESIAN_POINT('',(-0.00143552898839459,0.00503875373600701,0.));
#351=CARTESIAN_POINT('',(-0.00736202170461198,0.00420534069778894,0.));
#352=CARTESIAN_POINT('',(-0.0372666666666666,2.16840434497101E-19,0.));
#353=CARTESIAN_POINT('',(-0.0372666666666666,2.16840434497101E-19,0.01));
#354=CARTESIAN_POINT('',(-0.0536333333333333,0.,0.01));
#355=CARTESIAN_POINT('',(-0.0536333333333333,0.,0.));
#356=CARTESIAN_POINT('',(-0.068,0.,0.));
#357=CARTESIAN_POINT('',(-0.068,0.,-3.60822483003176E-16));
#358=CARTESIAN_POINT('',(-0.068,0.,0.00333333333333334));
#359=CARTESIAN_POINT('',(-0.068,0.,0.00666666666666705));
#360=CARTESIAN_POINT('',(-0.068,0.,0.0100000000000007));
#361=CARTESIAN_POINT('',(-0.068,0.,0.01));
#362=CARTESIAN_POINT('',(-0.0536333333333333,0.,0.01));
#363=CARTESIAN_POINT('',(-0.07,-0.002,0.01));
#364=CARTESIAN_POINT('',(-0.07,-0.002,0.01));
#365=CARTESIAN_POINT('',(-0.07,-0.004,0.01));
#366=CARTESIAN_POINT('',(-0.07,-0.002,0.01));
#367=CARTESIAN_POINT('',(-0.07,-0.002,0.0100000000000007));
#368=CARTESIAN_POINT('',(-0.07,-0.002,0.00666666666666705));
#369=CARTESIAN_POINT('',(-0.07,-0.002,0.00333333333333334));
#370=CARTESIAN_POINT('',(-0.07,-0.002,-3.60822483003176E-16));
#371=CARTESIAN_POINT('',(-0.07,-0.002,0.));
#372=CARTESIAN_POINT('',(-0.07,-0.002,0.));
#373=CARTESIAN_POINT('',(-0.07,-0.004,0.));
#374=CARTESIAN_POINT('',(-0.07,-0.004,0.01));
#375=CARTESIAN_POINT('',(-0.035,-0.004,0.01));
#376=CARTESIAN_POINT('',(-0.035,-0.004,0.));
#377=CARTESIAN_POINT('',(-0.035,-0.004,0.01));
#378=CARTESIAN_POINT('',(-0.0323,0.001,0.01));
#379=CARTESIAN_POINT('',(-0.068,0.,0.01));
#380=CARTESIAN_POINT('',(-0.0693333333333333,0.,0.01));
#381=CARTESIAN_POINT('',(-0.07,-0.000666666666666667,0.01));
#382=CARTESIAN_POINT('',(-0.07,-0.002,0.01));
#383=CARTESIAN_POINT('',(0.0054,-0.000902785737021195,0.01));
#384=CARTESIAN_POINT('',(0.0054,-0.000619081474888178,0.01));
#385=CARTESIAN_POINT('',(0.00539319919551761,-0.000231688838850386,0.01));
#386=CARTESIAN_POINT('',(0.00537164027714267,0.000199894732727913,0.01));
#387=CARTESIAN_POINT('',(0.00535111057871512,0.000448596870015352,0.01));
#388=CARTESIAN_POINT('',(0.00533489531490569,0.000600486307614744,0.01));
#389=CARTESIAN_POINT('',(0.00530364317242318,0.00083869742420273,0.01));
#390=CARTESIAN_POINT('',(0.0052371285004798,0.00123154481286258,0.01));
#391=CARTESIAN_POINT('',(0.00512668533812015,0.00167380164031756,0.01));
#392=CARTESIAN_POINT('',(0.00499429103413268,0.00207179901284109,0.01));
#393=CARTESIAN_POINT('',(0.00481061274539419,0.00253331890191691,0.01));
#394=CARTESIAN_POINT('',(0.00443458231260611,0.00325367800408689,0.01));
#395=CARTESIAN_POINT('',(0.00372524033708761,0.00409818851571336,0.01));
#396=CARTESIAN_POINT('',(0.00260530583167045,0.00478019962687757,0.01));
#397=CARTESIAN_POINT('',(0.00165643358156584,0.00505596965083157,0.01));
#398=CARTESIAN_POINT('',(0.000919960934719904,0.00515218515714109,0.01));
#399=CARTESIAN_POINT('',(0.00060070715169744,0.00517677445501246,0.01));
#400=CARTESIAN_POINT('',(0.000262663078685168,0.00518678597745068,0.01));
#401=CARTESIAN_POINT('',(-1.38320121731429E-5,0.00518278162653331,0.01));
#402=CARTESIAN_POINT('',(-0.000266898329790261,0.00517009441557435,0.01));
#403=CARTESIAN_POINT('',(-0.000425415772301128,0.00515881384952189,0.01));
#404=CARTESIAN_POINT('',(-0.000773843613290657,0.00512654016535488,0.01));
#405=CARTESIAN_POINT('',(-0.00114769767654631,0.00507923001423568,0.01));
#406=CARTESIAN_POINT('',(-0.0014355289883946,0.00503875373600701,0.01));
#407=CARTESIAN_POINT('',(-0.0323,0.001,0.));
#408=CARTESIAN_POINT('',(-0.00833333333333334,-0.00268989880024427,0.));
#409=CARTESIAN_POINT('',(-0.0163728395061729,-0.00199251762981057,0.));
#410=CARTESIAN_POINT('',(-0.000293827160493829,-0.00338727997067797,0.));
#411=CARTESIAN_POINT('',(9.48676900924816E-19,5.62790153006502E-19,0.));
#412=CARTESIAN_POINT('',(-0.000293827160493828,0.00338727997067797,0.));
#413=CARTESIAN_POINT('',(-0.00833333333333334,0.00268989880024427,0.));
#414=CARTESIAN_POINT('',(-0.0163728395061729,0.00199251762981057,0.));
#415=CARTESIAN_POINT('',(-0.0162,5.56145548908937E-19,0.));
#416=CARTESIAN_POINT('',(-0.07,-0.002,0.));
#417=CARTESIAN_POINT('',(-0.07,-0.000666666666666667,0.));
#418=CARTESIAN_POINT('',(-0.0693333333333333,0.,0.));
#419=CARTESIAN_POINT('',(-0.068,0.,0.));
#420=CARTESIAN_POINT('',(-0.0014355289883946,0.00503875373600701,0.));
#421=CARTESIAN_POINT('',(-0.00115458897636938,0.00507826092519806,0.));
#422=CARTESIAN_POINT('',(-0.000770023825054882,0.00512547268003512,0.));
#423=CARTESIAN_POINT('',(-0.000339643170438387,0.00516422391677636,0.));
#424=CARTESIAN_POINT('',(-9.05053831272868E-5,0.00517852722204315,0.));
#425=CARTESIAN_POINT('',(6.21621855355984E-5,0.00518362128840205,0.));
#426=CARTESIAN_POINT('',(0.000302404322720414,0.00518584569758316,0.));
#427=CARTESIAN_POINT('',(0.000700686523245949,0.0051746850029747,0.));
#428=CARTESIAN_POINT('',(0.00115401400012253,0.00512690433480292,0.));
#429=CARTESIAN_POINT('',(0.00156657006310714,0.00505122306128738,0.));
#430=CARTESIAN_POINT('',(0.00204917125865706,0.00493360330181756,0.));
#431=CARTESIAN_POINT('',(0.00281487565322386,0.0046615501772279,0.));
#432=CARTESIAN_POINT('',(0.00374993704046581,0.00407672178823485,0.));
#433=CARTESIAN_POINT('',(0.00458125932086889,0.00306267261867179,0.));
#434=CARTESIAN_POINT('',(0.00498647744654237,0.00216144793872004,0.));
#435=CARTESIAN_POINT('',(0.00518431285891919,0.00144554952915557,0.));
#436=CARTESIAN_POINT('',(0.00525312020463475,0.00113283054872504,0.));
#437=CARTESIAN_POINT('',(0.00531010845098635,0.000799474334356449,0.));
#438=CARTESIAN_POINT('',(0.00534464639340635,0.00052511562640564,0.));
#439=CARTESIAN_POINT('',(0.0053673235066788,0.000272748285083531,0.));
#440=CARTESIAN_POINT('',(0.00537822717166308,0.000114204471446937,0.));
#441=CARTESIAN_POINT('',(0.00539478820384505,-0.000235322756794495,0.));
#442=CARTESIAN_POINT('',(0.0054,-0.00061212236957306,0.));
#443=CARTESIAN_POINT('',(0.0054,-0.000902785737021195,0.));
#444=CARTESIAN_POINT('',(-0.00833333333333334,-0.00268989880024427,0.0025));
#445=CARTESIAN_POINT('',(-0.0163728395061729,-0.00199251762981057,0.0025));
#446=CARTESIAN_POINT('',(-0.0163728395061729,-0.00199251762981057,0.0025));
#447=CARTESIAN_POINT('',(-0.00833333333333334,-0.00268989880024427,0.0025));
#448=CARTESIAN_POINT('',(-0.000293827160493829,-0.00338727997067797,0.0025));
#449=CARTESIAN_POINT('',(-0.000293827160493829,-0.00338727997067797,0.0025));
#450=CARTESIAN_POINT('',(9.48676900924816E-19,5.62790153006502E-19,0.0025));
#451=CARTESIAN_POINT('',(9.48676900924816E-19,5.62790153006502E-19,0.0025));
#452=CARTESIAN_POINT('',(-0.000293827160493828,0.00338727997067797,0.0025));
#453=CARTESIAN_POINT('',(-0.000293827160493828,0.00338727997067797,0.0025));
#454=CARTESIAN_POINT('',(-0.00833333333333334,0.00268989880024427,0.0025));
#455=CARTESIAN_POINT('',(-0.00833333333333334,0.00268989880024427,0.0025));
#456=CARTESIAN_POINT('',(-0.0163728395061729,0.00199251762981057,0.0025));
#457=CARTESIAN_POINT('',(-0.0163728395061729,0.00199251762981057,0.0025));
#458=CARTESIAN_POINT('',(-0.0162,5.56145548908937E-19,0.0025));
#459=CARTESIAN_POINT('',(-0.0162,5.56145548908937E-19,0.0025));
#460=CARTESIAN_POINT('',(-0.00819510854343646,0.,0.0025));
#461=CARTESIAN_POINT('',(-0.0014355289883946,0.00503875373600701,0.0100000000000007));
#462=CARTESIAN_POINT('',(-0.0014355289883946,0.00503875373600701,-3.67761376907083E-16));
#463=CARTESIAN_POINT('',(-0.000410199640135409,0.00518294067560596,0.0100000000000007));
#464=CARTESIAN_POINT('',(-0.000410199640135409,0.00518294067560596,-3.67761376907083E-16));
#465=CARTESIAN_POINT('',(0.000615129708123779,0.00532712761520491,0.0100000000000007));
#466=CARTESIAN_POINT('',(0.000615129708123779,0.00532712761520491,-3.6949610038306E-16));
#467=CARTESIAN_POINT('',(0.0031214903372018,0.00498930600496689,0.0100000000000007));
#468=CARTESIAN_POINT('',(0.0031214903372018,0.00498930600496689,-3.6949610038306E-16));
#469=CARTESIAN_POINT('',(0.00471644710116054,0.00360294679459364,0.0100000000000007));
#470=CARTESIAN_POINT('',(0.00471644710116054,0.00360294679459364,-3.6949610038306E-16));
#471=CARTESIAN_POINT('',(0.0054,0.00116804998408516,0.0100000000000007));
#472=CARTESIAN_POINT('',(0.0054,0.00116804998408516,-3.6949610038306E-16));
#473=CARTESIAN_POINT('',(0.0054,0.000132632123531982,0.0100000000000007));
#474=CARTESIAN_POINT('',(0.0054,0.000132632123531982,-3.6949610038306E-16));
#475=CARTESIAN_POINT('',(0.0054,-0.000902785737021198,0.0100000000000007));
#476=CARTESIAN_POINT('',(0.0054,-0.000902785737021198,-3.6949610038306E-16));
#477=CARTESIAN_POINT('',(-0.07,-0.002,0.0100000000000007));
#478=CARTESIAN_POINT('',(-0.07,-0.002,-3.62557206479153E-16));
#479=CARTESIAN_POINT('',(-0.07,-0.0017,0.0100000000000007));
#480=CARTESIAN_POINT('',(-0.07,-0.0017,-3.62557206479153E-16));
#481=CARTESIAN_POINT('',(-0.07,-0.0014,0.0100000000000007));
#482=CARTESIAN_POINT('',(-0.07,-0.0014,-3.60822483003176E-16));
#483=CARTESIAN_POINT('',(-0.0698,-0.00066666666666667,0.0100000000000007));
#484=CARTESIAN_POINT('',(-0.0698,-0.00066666666666667,-3.60822483003176E-16));
#485=CARTESIAN_POINT('',(-0.0693333333333333,-0.000199999999999997,0.0100000000000007));
#486=CARTESIAN_POINT('',(-0.0693333333333333,-0.000199999999999997,-3.60822483003176E-16));
#487=CARTESIAN_POINT('',(-0.0686,0.,0.0100000000000007));
#488=CARTESIAN_POINT('',(-0.0686,0.,-3.60822483003176E-16));
#489=CARTESIAN_POINT('',(-0.0683,0.,0.0100000000000007));
#490=CARTESIAN_POINT('',(-0.0683,0.,-3.60822483003176E-16));
#491=CARTESIAN_POINT('',(-0.068,0.,0.0100000000000007));
#492=CARTESIAN_POINT('',(-0.068,0.,-3.60822483003176E-16));
#493=MECHANICAL_DESIGN_GEOMETRIC_PRESENTATION_REPRESENTATION('',(#246),
#494);
#494=(
GEOMETRIC_REPRESENTATION_CONTEXT(3)
GLOBAL_UNCERTAINTY_ASSIGNED_CONTEXT((#495))
GLOBAL_UNIT_ASSIGNED_CONTEXT((#498,#497,#496))
REPRESENTATION_CONTEXT('servo_arm','TOP_LEVEL_ASSEMBLY_PART')
);
#495=UNCERTAINTY_MEASURE_WITH_UNIT(LENGTH_MEASURE(2.E-5),#498,
'DISTANCE_ACCURACY_VALUE','Maximum Tolerance applied to model');
#496=(
NAMED_UNIT(*)
SI_UNIT($,.STERADIAN.)
SOLID_ANGLE_UNIT()
);
#497=(
NAMED_UNIT(*)
PLANE_ANGLE_UNIT()
SI_UNIT($,.RADIAN.)
);
#498=(
LENGTH_UNIT()
NAMED_UNIT(*)
SI_UNIT($,.METRE.)
);
#499=PRODUCT_DEFINITION_SHAPE('','',#500);
#500=PRODUCT_DEFINITION('','',#502,#501);
#501=PRODUCT_DEFINITION_CONTEXT('',#508,'design');
#502=PRODUCT_DEFINITION_FORMATION_WITH_SPECIFIED_SOURCE('','',#504,
 .NOT_KNOWN.);
#503=PRODUCT_RELATED_PRODUCT_CATEGORY('','',(#504));
#504=PRODUCT('servo_arm','servo_arm','servo_arm',(#506));
#505=PRODUCT_CATEGORY('','');
#506=PRODUCT_CONTEXT('',#508,'mechanical');
#507=APPLICATION_PROTOCOL_DEFINITION('international standard',
'ap242_managed_model_based_3d_engineering',2020,#508);
#508=APPLICATION_CONTEXT('managed model based 3d engineering');
ENDSEC;
END-ISO-10303-21;
