ISO-10303-21;
HEADER;
/* Generated by software containing ST-Developer
 * from STEP Tools, Inc. (www.steptools.com) 
 */
/* OPTION: using custom renumber hook */

FILE_DESCRIPTION(
/* description */ ('STEP AP242 Edition 2',
'CAx-IF Rec.Pracs.---Representation and Presentation of Product Manufa
cturing Information (PMI)---4.0---2014-10-13',
'CAx-IF Rec.Pracs.---3D Tessellated Geometry---0.4---2014-09-14','2;1',
'CAx-IF Rec.Pracs.---User Defined Attributes---1.5---2016-08-15'),
/* implementation_level */ '2;1');

FILE_NAME(
/* name */ 'Assembly 1 - sides_connectors',
/* time_stamp */ '2026-08-18T11:49:11Z',
/* author */ (''),
/* organization */ (''),
/* preprocessor_version */ 'ST-DEVELOPER v20',
/* originating_system */ 'ONSHAPE BY PTC INC, 1.219',
/* authorisation */ '  ');

FILE_SCHEMA (('AP242_MANAGED_MODEL_BASED_3D_ENGINEERING_MIM_LF { 1 0 10303 442 3 1 4 }'));
ENDSEC;

DATA;
#10=SHAPE_REPRESENTATION_RELATIONSHIP('','',#319,#11);
#11=ADVANCED_BREP_SHAPE_REPRESENTATION('',(#317),#513);
#12=CYLINDRICAL_SURFACE('',#342,0.00155);
#13=CYLINDRICAL_SURFACE('',#343,0.00155);
#14=CYLINDRICAL_SURFACE('',#344,0.00155);
#15=CYLINDRICAL_SURFACE('',#345,0.00155);
#16=CYLINDRICAL_SURFACE('',#346,0.00205);
#17=CYLINDRICAL_SURFACE('',#347,0.00205);
#18=LINE('',#437,#42);
#19=LINE('',#440,#43);
#20=LINE('',#442,#44);
#21=LINE('',#444,#45);
#22=LINE('',#446,#46);
#23=LINE('',#448,#47);
#24=LINE('',#450,#48);
#25=LINE('',#456,#49);
#26=LINE('',#459,#50);
#27=LINE('',#460,#51);
#28=LINE('',#462,#52);
#29=LINE('',#465,#53);
#30=LINE('',#467,#54);
#31=LINE('',#469,#55);
#32=LINE('',#471,#56);
#33=LINE('',#474,#57);
#34=LINE('',#475,#58);
#35=LINE('',#476,#59);
#36=LINE('',#478,#60);
#37=LINE('',#480,#61);
#38=LINE('',#486,#62);
#39=LINE('',#487,#63);
#40=LINE('',#493,#64);
#41=LINE('',#494,#65);
#42=VECTOR('',#357,1.);
#43=VECTOR('',#358,1.);
#44=VECTOR('',#359,1.);
#45=VECTOR('',#360,1.);
#46=VECTOR('',#363,1.);
#47=VECTOR('',#364,1.);
#48=VECTOR('',#365,1.);
#49=VECTOR('',#372,1.);
#50=VECTOR('',#373,1.);
#51=VECTOR('',#374,1.);
#52=VECTOR('',#377,1.);
#53=VECTOR('',#378,1.);
#54=VECTOR('',#379,1.);
#55=VECTOR('',#380,1.);
#56=VECTOR('',#383,1.);
#57=VECTOR('',#384,1.);
#58=VECTOR('',#385,1.);
#59=VECTOR('',#386,1.);
#60=VECTOR('',#387,1.);
#61=VECTOR('',#388,1.);
#62=VECTOR('',#395,1.);
#63=VECTOR('',#396,1.);
#64=VECTOR('',#403,1.);
#65=VECTOR('',#404,1.);
#66=ORIENTED_EDGE('',*,*,#138,.T.);
#67=ORIENTED_EDGE('',*,*,#139,.T.);
#68=ORIENTED_EDGE('',*,*,#140,.F.);
#69=ORIENTED_EDGE('',*,*,#141,.T.);
#70=ORIENTED_EDGE('',*,*,#142,.T.);
#71=ORIENTED_EDGE('',*,*,#143,.F.);
#72=ORIENTED_EDGE('',*,*,#144,.F.);
#73=ORIENTED_EDGE('',*,*,#143,.T.);
#74=ORIENTED_EDGE('',*,*,#145,.T.);
#75=ORIENTED_EDGE('',*,*,#146,.F.);
#76=ORIENTED_EDGE('',*,*,#147,.T.);
#77=ORIENTED_EDGE('',*,*,#148,.T.);
#78=ORIENTED_EDGE('',*,*,#149,.F.);
#79=ORIENTED_EDGE('',*,*,#150,.T.);
#80=ORIENTED_EDGE('',*,*,#146,.T.);
#81=ORIENTED_EDGE('',*,*,#151,.F.);
#82=ORIENTED_EDGE('',*,*,#152,.F.);
#83=ORIENTED_EDGE('',*,*,#153,.T.);
#84=ORIENTED_EDGE('',*,*,#154,.T.);
#85=ORIENTED_EDGE('',*,*,#155,.F.);
#86=ORIENTED_EDGE('',*,*,#156,.F.);
#87=ORIENTED_EDGE('',*,*,#157,.T.);
#88=ORIENTED_EDGE('',*,*,#149,.T.);
#89=ORIENTED_EDGE('',*,*,#158,.F.);
#90=ORIENTED_EDGE('',*,*,#141,.F.);
#91=ORIENTED_EDGE('',*,*,#159,.T.);
#92=ORIENTED_EDGE('',*,*,#160,.T.);
#93=ORIENTED_EDGE('',*,*,#161,.T.);
#94=ORIENTED_EDGE('',*,*,#162,.T.);
#95=ORIENTED_EDGE('',*,*,#163,.T.);
#96=ORIENTED_EDGE('',*,*,#153,.F.);
#97=ORIENTED_EDGE('',*,*,#164,.T.);
#98=ORIENTED_EDGE('',*,*,#156,.T.);
#99=ORIENTED_EDGE('',*,*,#165,.F.);
#100=ORIENTED_EDGE('',*,*,#166,.F.);
#101=ORIENTED_EDGE('',*,*,#167,.F.);
#102=ORIENTED_EDGE('',*,*,#160,.F.);
#103=ORIENTED_EDGE('',*,*,#168,.T.);
#104=ORIENTED_EDGE('',*,*,#155,.T.);
#105=ORIENTED_EDGE('',*,*,#169,.F.);
#106=ORIENTED_EDGE('',*,*,#170,.F.);
#107=ORIENTED_EDGE('',*,*,#171,.F.);
#108=ORIENTED_EDGE('',*,*,#161,.F.);
#109=ORIENTED_EDGE('',*,*,#169,.T.);
#110=ORIENTED_EDGE('',*,*,#154,.F.);
#111=ORIENTED_EDGE('',*,*,#165,.T.);
#112=ORIENTED_EDGE('',*,*,#172,.T.);
#113=ORIENTED_EDGE('',*,*,#173,.T.);
#114=ORIENTED_EDGE('',*,*,#158,.T.);
#115=ORIENTED_EDGE('',*,*,#151,.T.);
#116=ORIENTED_EDGE('',*,*,#145,.F.);
#117=ORIENTED_EDGE('',*,*,#142,.F.);
#118=ORIENTED_EDGE('',*,*,#167,.T.);
#119=ORIENTED_EDGE('',*,*,#138,.F.);
#120=ORIENTED_EDGE('',*,*,#166,.T.);
#121=ORIENTED_EDGE('',*,*,#139,.F.);
#122=ORIENTED_EDGE('',*,*,#148,.F.);
#123=ORIENTED_EDGE('',*,*,#163,.F.);
#124=ORIENTED_EDGE('',*,*,#147,.F.);
#125=ORIENTED_EDGE('',*,*,#162,.F.);
#126=ORIENTED_EDGE('',*,*,#171,.T.);
#127=ORIENTED_EDGE('',*,*,#173,.F.);
#128=ORIENTED_EDGE('',*,*,#170,.T.);
#129=ORIENTED_EDGE('',*,*,#172,.F.);
#130=ORIENTED_EDGE('',*,*,#150,.F.);
#131=ORIENTED_EDGE('',*,*,#157,.F.);
#132=ORIENTED_EDGE('',*,*,#164,.F.);
#133=ORIENTED_EDGE('',*,*,#152,.T.);
#134=ORIENTED_EDGE('',*,*,#168,.F.);
#135=ORIENTED_EDGE('',*,*,#159,.F.);
#136=ORIENTED_EDGE('',*,*,#140,.T.);
#137=ORIENTED_EDGE('',*,*,#144,.T.);
#138=EDGE_CURVE('',#174,#174,#202,.T.);
#139=EDGE_CURVE('',#175,#175,#203,.T.);
#140=EDGE_CURVE('',#176,#177,#18,.T.);
#141=EDGE_CURVE('',#176,#178,#19,.T.);
#142=EDGE_CURVE('',#178,#179,#20,.T.);
#143=EDGE_CURVE('',#177,#179,#21,.T.);
#144=EDGE_CURVE('',#177,#180,#22,.T.);
#145=EDGE_CURVE('',#179,#181,#23,.T.);
#146=EDGE_CURVE('',#180,#181,#24,.T.);
#147=EDGE_CURVE('',#182,#182,#204,.F.);
#148=EDGE_CURVE('',#183,#183,#205,.F.);
#149=EDGE_CURVE('',#184,#185,#25,.T.);
#150=EDGE_CURVE('',#184,#180,#26,.T.);
#151=EDGE_CURVE('',#185,#181,#27,.T.);
#152=EDGE_CURVE('',#186,#187,#28,.T.);
#153=EDGE_CURVE('',#186,#188,#29,.T.);
#154=EDGE_CURVE('',#188,#189,#30,.T.);
#155=EDGE_CURVE('',#187,#189,#31,.T.);
#156=EDGE_CURVE('',#190,#191,#32,.T.);
#157=EDGE_CURVE('',#190,#184,#33,.T.);
#158=EDGE_CURVE('',#178,#185,#34,.T.);
#159=EDGE_CURVE('',#176,#192,#35,.T.);
#160=EDGE_CURVE('',#192,#193,#36,.T.);
#161=EDGE_CURVE('',#193,#191,#37,.T.);
#162=EDGE_CURVE('',#194,#194,#206,.F.);
#163=EDGE_CURVE('',#195,#195,#207,.F.);
#164=EDGE_CURVE('',#186,#190,#38,.T.);
#165=EDGE_CURVE('',#188,#191,#39,.T.);
#166=EDGE_CURVE('',#196,#196,#208,.T.);
#167=EDGE_CURVE('',#197,#197,#209,.T.);
#168=EDGE_CURVE('',#192,#187,#40,.T.);
#169=EDGE_CURVE('',#193,#189,#41,.T.);
#170=EDGE_CURVE('',#198,#198,#210,.T.);
#171=EDGE_CURVE('',#199,#199,#211,.T.);
#172=EDGE_CURVE('',#200,#200,#212,.T.);
#173=EDGE_CURVE('',#201,#201,#213,.T.);
#174=VERTEX_POINT('',#434);
#175=VERTEX_POINT('',#436);
#176=VERTEX_POINT('',#438);
#177=VERTEX_POINT('',#439);
#178=VERTEX_POINT('',#441);
#179=VERTEX_POINT('',#443);
#180=VERTEX_POINT('',#447);
#181=VERTEX_POINT('',#449);
#182=VERTEX_POINT('',#453);
#183=VERTEX_POINT('',#455);
#184=VERTEX_POINT('',#457);
#185=VERTEX_POINT('',#458);
#186=VERTEX_POINT('',#463);
#187=VERTEX_POINT('',#464);
#188=VERTEX_POINT('',#466);
#189=VERTEX_POINT('',#468);
#190=VERTEX_POINT('',#472);
#191=VERTEX_POINT('',#473);
#192=VERTEX_POINT('',#477);
#193=VERTEX_POINT('',#479);
#194=VERTEX_POINT('',#483);
#195=VERTEX_POINT('',#485);
#196=VERTEX_POINT('',#490);
#197=VERTEX_POINT('',#492);
#198=VERTEX_POINT('',#497);
#199=VERTEX_POINT('',#499);
#200=VERTEX_POINT('',#502);
#201=VERTEX_POINT('',#504);
#202=CIRCLE('',#322,0.00155);
#203=CIRCLE('',#323,0.00155);
#204=CIRCLE('',#326,0.00155);
#205=CIRCLE('',#327,0.00155);
#206=CIRCLE('',#331,0.00155);
#207=CIRCLE('',#332,0.00155);
#208=CIRCLE('',#334,0.00155);
#209=CIRCLE('',#335,0.00155);
#210=CIRCLE('',#337,0.00205);
#211=CIRCLE('',#338,0.00205);
#212=CIRCLE('',#340,0.00205);
#213=CIRCLE('',#341,0.00205);
#214=EDGE_LOOP('',(#66));
#215=EDGE_LOOP('',(#67));
#216=EDGE_LOOP('',(#68,#69,#70,#71));
#217=EDGE_LOOP('',(#72,#73,#74,#75));
#218=EDGE_LOOP('',(#76));
#219=EDGE_LOOP('',(#77));
#220=EDGE_LOOP('',(#78,#79,#80,#81));
#221=EDGE_LOOP('',(#82,#83,#84,#85));
#222=EDGE_LOOP('',(#86,#87,#88,#89,#90,#91,#92,#93));
#223=EDGE_LOOP('',(#94));
#224=EDGE_LOOP('',(#95));
#225=EDGE_LOOP('',(#96,#97,#98,#99));
#226=EDGE_LOOP('',(#100));
#227=EDGE_LOOP('',(#101));
#228=EDGE_LOOP('',(#102,#103,#104,#105));
#229=EDGE_LOOP('',(#106));
#230=EDGE_LOOP('',(#107));
#231=EDGE_LOOP('',(#108,#109,#110,#111));
#232=EDGE_LOOP('',(#112));
#233=EDGE_LOOP('',(#113));
#234=EDGE_LOOP('',(#114,#115,#116,#117));
#235=EDGE_LOOP('',(#118));
#236=EDGE_LOOP('',(#119));
#237=EDGE_LOOP('',(#120));
#238=EDGE_LOOP('',(#121));
#239=EDGE_LOOP('',(#122));
#240=EDGE_LOOP('',(#123));
#241=EDGE_LOOP('',(#124));
#242=EDGE_LOOP('',(#125));
#243=EDGE_LOOP('',(#126));
#244=EDGE_LOOP('',(#127));
#245=EDGE_LOOP('',(#128));
#246=EDGE_LOOP('',(#129));
#247=EDGE_LOOP('',(#130,#131,#132,#133,#134,#135,#136,#137));
#248=FACE_BOUND('',#214,.T.);
#249=FACE_BOUND('',#215,.T.);
#250=FACE_BOUND('',#216,.T.);
#251=FACE_BOUND('',#217,.T.);
#252=FACE_BOUND('',#218,.T.);
#253=FACE_BOUND('',#219,.T.);
#254=FACE_BOUND('',#220,.T.);
#255=FACE_BOUND('',#221,.T.);
#256=FACE_BOUND('',#222,.T.);
#257=FACE_BOUND('',#223,.T.);
#258=FACE_BOUND('',#224,.T.);
#259=FACE_BOUND('',#225,.T.);
#260=FACE_BOUND('',#226,.T.);
#261=FACE_BOUND('',#227,.T.);
#262=FACE_BOUND('',#228,.T.);
#263=FACE_BOUND('',#229,.T.);
#264=FACE_BOUND('',#230,.T.);
#265=FACE_BOUND('',#231,.T.);
#266=FACE_BOUND('',#232,.T.);
#267=FACE_BOUND('',#233,.T.);
#268=FACE_BOUND('',#234,.T.);
#269=FACE_BOUND('',#235,.T.);
#270=FACE_BOUND('',#236,.T.);
#271=FACE_BOUND('',#237,.T.);
#272=FACE_BOUND('',#238,.T.);
#273=FACE_BOUND('',#239,.T.);
#274=FACE_BOUND('',#240,.T.);
#275=FACE_BOUND('',#241,.T.);
#276=FACE_BOUND('',#242,.T.);
#277=FACE_BOUND('',#243,.T.);
#278=FACE_BOUND('',#244,.T.);
#279=FACE_BOUND('',#245,.T.);
#280=FACE_BOUND('',#246,.T.);
#281=FACE_BOUND('',#247,.T.);
#282=PLANE('',#321);
#283=PLANE('',#324);
#284=PLANE('',#325);
#285=PLANE('',#328);
#286=PLANE('',#329);
#287=PLANE('',#330);
#288=PLANE('',#333);
#289=PLANE('',#336);
#290=PLANE('',#339);
#291=PLANE('',#348);
#292=ADVANCED_FACE('',(#248,#249,#250),#282,.F.);
#293=ADVANCED_FACE('',(#251),#283,.F.);
#294=ADVANCED_FACE('',(#252,#253,#254),#284,.T.);
#295=ADVANCED_FACE('',(#255),#285,.F.);
#296=ADVANCED_FACE('',(#256),#286,.T.);
#297=ADVANCED_FACE('',(#257,#258,#259),#287,.T.);
#298=ADVANCED_FACE('',(#260,#261,#262),#288,.T.);
#299=ADVANCED_FACE('',(#263,#264,#265),#289,.T.);
#300=ADVANCED_FACE('',(#266,#267,#268),#290,.F.);
#301=ADVANCED_FACE('',(#269,#270),#12,.F.);
#302=ADVANCED_FACE('',(#271,#272),#13,.F.);
#303=ADVANCED_FACE('',(#273,#274),#14,.F.);
#304=ADVANCED_FACE('',(#275,#276),#15,.F.);
#305=ADVANCED_FACE('',(#277,#278),#16,.F.);
#306=ADVANCED_FACE('',(#279,#280),#17,.F.);
#307=ADVANCED_FACE('',(#281),#291,.T.);
#308=CLOSED_SHELL('',(#292,#293,#294,#295,#296,#297,#298,#299,#300,#301,
#302,#303,#304,#305,#306,#307));
#309=STYLED_ITEM('',(#310),#317);
#310=PRESENTATION_STYLE_ASSIGNMENT((#311));
#311=SURFACE_STYLE_USAGE(.BOTH.,#312);
#312=SURFACE_SIDE_STYLE('',(#313));
#313=SURFACE_STYLE_FILL_AREA(#314);
#314=FILL_AREA_STYLE('',(#315));
#315=FILL_AREA_STYLE_COLOUR('',#316);
#316=COLOUR_RGB('',0.654901960784314,0.823529411764706,0.576470588235294);
#317=MANIFOLD_SOLID_BREP('sides_connectors',#308);
#318=SHAPE_DEFINITION_REPRESENTATION(#518,#319);
#319=SHAPE_REPRESENTATION('sides_connectors',(#320),#513);
#320=AXIS2_PLACEMENT_3D('',#431,#349,#350);
#321=AXIS2_PLACEMENT_3D('',#432,#351,#352);
#322=AXIS2_PLACEMENT_3D('',#433,#353,#354);
#323=AXIS2_PLACEMENT_3D('',#435,#355,#356);
#324=AXIS2_PLACEMENT_3D('',#445,#361,#362);
#325=AXIS2_PLACEMENT_3D('',#451,#366,#367);
#326=AXIS2_PLACEMENT_3D('',#452,#368,#369);
#327=AXIS2_PLACEMENT_3D('',#454,#370,#371);
#328=AXIS2_PLACEMENT_3D('',#461,#375,#376);
#329=AXIS2_PLACEMENT_3D('',#470,#381,#382);
#330=AXIS2_PLACEMENT_3D('',#481,#389,#390);
#331=AXIS2_PLACEMENT_3D('',#482,#391,#392);
#332=AXIS2_PLACEMENT_3D('',#484,#393,#394);
#333=AXIS2_PLACEMENT_3D('',#488,#397,#398);
#334=AXIS2_PLACEMENT_3D('',#489,#399,#400);
#335=AXIS2_PLACEMENT_3D('',#491,#401,#402);
#336=AXIS2_PLACEMENT_3D('',#495,#405,#406);
#337=AXIS2_PLACEMENT_3D('',#496,#407,#408);
#338=AXIS2_PLACEMENT_3D('',#498,#409,#410);
#339=AXIS2_PLACEMENT_3D('',#500,#411,#412);
#340=AXIS2_PLACEMENT_3D('',#501,#413,#414);
#341=AXIS2_PLACEMENT_3D('',#503,#415,#416);
#342=AXIS2_PLACEMENT_3D('',#505,#417,#418);
#343=AXIS2_PLACEMENT_3D('',#506,#419,#420);
#344=AXIS2_PLACEMENT_3D('',#507,#421,#422);
#345=AXIS2_PLACEMENT_3D('',#508,#423,#424);
#346=AXIS2_PLACEMENT_3D('',#509,#425,#426);
#347=AXIS2_PLACEMENT_3D('',#510,#427,#428);
#348=AXIS2_PLACEMENT_3D('',#511,#429,#430);
#349=DIRECTION('',(0.,0.,1.));
#350=DIRECTION('',(1.,0.,0.));
#351=DIRECTION('',(-1.,0.,0.));
#352=DIRECTION('',(0.,0.,1.));
#353=DIRECTION('',(-1.,0.,0.));
#354=DIRECTION('',(0.,0.,1.));
#355=DIRECTION('',(-1.,0.,0.));
#356=DIRECTION('',(0.,0.,1.));
#357=DIRECTION('',(0.,1.,0.));
#358=DIRECTION('',(0.,0.,-1.));
#359=DIRECTION('',(0.,1.,0.));
#360=DIRECTION('',(0.,0.,-1.));
#361=DIRECTION('',(1.36056743213867E-16,-1.,0.));
#362=DIRECTION('',(1.,1.36056743213867E-16,0.));
#363=DIRECTION('',(-1.,-1.36056743213867E-16,0.));
#364=DIRECTION('',(-1.,-1.36056743213867E-16,0.));
#365=DIRECTION('',(0.,0.,-1.));
#366=DIRECTION('',(-1.,0.,0.));
#367=DIRECTION('',(0.,0.,1.));
#368=DIRECTION('',(-1.,0.,0.));
#369=DIRECTION('',(0.,0.,1.));
#370=DIRECTION('',(-1.,0.,0.));
#371=DIRECTION('',(0.,0.,1.));
#372=DIRECTION('',(0.,0.,-1.));
#373=DIRECTION('',(0.,1.,0.));
#374=DIRECTION('',(0.,1.,0.));
#375=DIRECTION('',(-1.70070929017334E-16,1.,0.));
#376=DIRECTION('',(-1.,-1.70070929017334E-16,0.));
#377=DIRECTION('',(1.,1.70070929017334E-16,0.));
#378=DIRECTION('',(0.,0.,-1.));
#379=DIRECTION('',(1.,1.70070929017334E-16,0.));
#380=DIRECTION('',(0.,0.,-1.));
#381=DIRECTION('',(1.020425574104E-16,-1.,0.));
#382=DIRECTION('',(1.,1.020425574104E-16,0.));
#383=DIRECTION('',(0.,0.,-1.));
#384=DIRECTION('',(-1.,-1.020425574104E-16,0.));
#385=DIRECTION('',(-1.,-1.020425574104E-16,0.));
#386=DIRECTION('',(-1.,-1.020425574104E-16,0.));
#387=DIRECTION('',(0.,0.,-1.));
#388=DIRECTION('',(-1.,-1.020425574104E-16,0.));
#389=DIRECTION('',(1.,0.,0.));
#390=DIRECTION('',(0.,0.,-1.));
#391=DIRECTION('',(1.,0.,0.));
#392=DIRECTION('',(0.,0.,-1.));
#393=DIRECTION('',(1.,0.,0.));
#394=DIRECTION('',(0.,0.,-1.));
#395=DIRECTION('',(0.,-1.,0.));
#396=DIRECTION('',(0.,-1.,0.));
#397=DIRECTION('',(-1.,0.,0.));
#398=DIRECTION('',(0.,0.,1.));
#399=DIRECTION('',(-1.,0.,0.));
#400=DIRECTION('',(0.,0.,1.));
#401=DIRECTION('',(-1.,0.,0.));
#402=DIRECTION('',(0.,0.,1.));
#403=DIRECTION('',(0.,1.,0.));
#404=DIRECTION('',(0.,1.,0.));
#405=DIRECTION('',(0.,0.,1.));
#406=DIRECTION('',(1.,0.,0.));
#407=DIRECTION('',(0.,0.,1.));
#408=DIRECTION('',(1.,0.,0.));
#409=DIRECTION('',(0.,0.,1.));
#410=DIRECTION('',(1.,0.,0.));
#411=DIRECTION('',(0.,0.,1.));
#412=DIRECTION('',(1.,0.,0.));
#413=DIRECTION('',(0.,0.,1.));
#414=DIRECTION('',(1.,0.,0.));
#415=DIRECTION('',(0.,0.,1.));
#416=DIRECTION('',(1.,0.,0.));
#417=DIRECTION('',(-1.,0.,0.));
#418=DIRECTION('',(0.,0.,1.));
#419=DIRECTION('',(-1.,0.,0.));
#420=DIRECTION('',(0.,0.,1.));
#421=DIRECTION('',(1.,0.,0.));
#422=DIRECTION('',(0.,0.,-1.));
#423=DIRECTION('',(1.,0.,0.));
#424=DIRECTION('',(0.,0.,-1.));
#425=DIRECTION('',(0.,0.,1.));
#426=DIRECTION('',(1.,0.,0.));
#427=DIRECTION('',(0.,0.,1.));
#428=DIRECTION('',(1.,0.,0.));
#429=DIRECTION('',(0.,0.,1.));
#430=DIRECTION('',(1.,0.,0.));
#431=CARTESIAN_POINT('',(0.,0.,0.));
#432=CARTESIAN_POINT('',(0.0255,3.46944695195361E-18,0.003));
#433=CARTESIAN_POINT('',(0.0255,0.0025,0.0065));
#434=CARTESIAN_POINT('',(0.0255,0.0025,0.00805));
#435=CARTESIAN_POINT('',(0.0255,-0.0055,0.0065));
#436=CARTESIAN_POINT('',(0.0255,-0.0055,0.00805));
#437=CARTESIAN_POINT('',(0.0255,3.46944695195361E-18,0.011));
#438=CARTESIAN_POINT('',(0.0255,-0.01,0.011));
#439=CARTESIAN_POINT('',(0.0255,0.01,0.011));
#440=CARTESIAN_POINT('',(0.0255,-0.01,0.003));
#441=CARTESIAN_POINT('',(0.0255,-0.01,0.));
#442=CARTESIAN_POINT('',(0.0255,3.46944695195361E-18,0.));
#443=CARTESIAN_POINT('',(0.0255,0.01,0.));
#444=CARTESIAN_POINT('',(0.0255,0.01,0.003));
#445=CARTESIAN_POINT('',(0.,0.01,0.003));
#446=CARTESIAN_POINT('',(0.,0.01,0.011));
#447=CARTESIAN_POINT('',(-0.0255,0.01,0.011));
#448=CARTESIAN_POINT('',(0.,0.01,0.));
#449=CARTESIAN_POINT('',(-0.0255,0.01,0.));
#450=CARTESIAN_POINT('',(-0.0255,0.01,0.003));
#451=CARTESIAN_POINT('',(-0.0255,-4.33680868994202E-18,0.003));
#452=CARTESIAN_POINT('',(-0.0255,0.0025,0.0065));
#453=CARTESIAN_POINT('',(-0.0255,0.0025,0.00805));
#454=CARTESIAN_POINT('',(-0.0255,-0.0055,0.0065));
#455=CARTESIAN_POINT('',(-0.0255,-0.0055,0.00805));
#456=CARTESIAN_POINT('',(-0.0255,-0.01,0.003));
#457=CARTESIAN_POINT('',(-0.0255,-0.01,0.011));
#458=CARTESIAN_POINT('',(-0.0255,-0.01,0.));
#459=CARTESIAN_POINT('',(-0.0255,-4.33680868994202E-18,0.011));
#460=CARTESIAN_POINT('',(-0.0255,-4.33680868994202E-18,0.));
#461=CARTESIAN_POINT('',(0.,0.007,0.014));
#462=CARTESIAN_POINT('',(0.,0.007,0.011));
#463=CARTESIAN_POINT('',(-0.0225,0.007,0.011));
#464=CARTESIAN_POINT('',(0.0225,0.007,0.011));
#465=CARTESIAN_POINT('',(-0.0225,0.007,0.014));
#466=CARTESIAN_POINT('',(-0.0225,0.007,0.003));
#467=CARTESIAN_POINT('',(0.,0.007,0.003));
#468=CARTESIAN_POINT('',(0.0225,0.007,0.003));
#469=CARTESIAN_POINT('',(0.0225,0.007,0.014));
#470=CARTESIAN_POINT('',(0.,-0.01,0.003));
#471=CARTESIAN_POINT('',(-0.0225,-0.01,0.014));
#472=CARTESIAN_POINT('',(-0.0225,-0.01,0.011));
#473=CARTESIAN_POINT('',(-0.0225,-0.01,0.003));
#474=CARTESIAN_POINT('',(0.,-0.01,0.011));
#475=CARTESIAN_POINT('',(0.,-0.01,0.));
#476=CARTESIAN_POINT('',(0.,-0.01,0.011));
#477=CARTESIAN_POINT('',(0.0225,-0.01,0.011));
#478=CARTESIAN_POINT('',(0.0225,-0.01,0.014));
#479=CARTESIAN_POINT('',(0.0225,-0.01,0.003));
#480=CARTESIAN_POINT('',(0.,-0.01,0.003));
#481=CARTESIAN_POINT('',(-0.0225,-0.0015,0.014));
#482=CARTESIAN_POINT('',(-0.0225,0.0025,0.0065));
#483=CARTESIAN_POINT('',(-0.0225,0.0025,0.00495));
#484=CARTESIAN_POINT('',(-0.0225,-0.0055,0.0065));
#485=CARTESIAN_POINT('',(-0.0225,-0.0055,0.00495));
#486=CARTESIAN_POINT('',(-0.0225,-0.0015,0.011));
#487=CARTESIAN_POINT('',(-0.0225,-0.0015,0.003));
#488=CARTESIAN_POINT('',(0.0225,-0.0015,0.014));
#489=CARTESIAN_POINT('',(0.0225,-0.0055,0.0065));
#490=CARTESIAN_POINT('',(0.0225,-0.0055,0.00805));
#491=CARTESIAN_POINT('',(0.0225,0.0025,0.0065));
#492=CARTESIAN_POINT('',(0.0225,0.0025,0.00805));
#493=CARTESIAN_POINT('',(0.0225,-0.0015,0.011));
#494=CARTESIAN_POINT('',(0.0225,-0.0015,0.003));
#495=CARTESIAN_POINT('',(0.,0.,0.003));
#496=CARTESIAN_POINT('',(-0.015,-0.0015,0.003));
#497=CARTESIAN_POINT('',(-0.01295,-0.0015,0.003));
#498=CARTESIAN_POINT('',(0.015,-0.0015,0.003));
#499=CARTESIAN_POINT('',(0.01705,-0.0015,0.003));
#500=CARTESIAN_POINT('',(0.,0.,0.));
#501=CARTESIAN_POINT('',(-0.015,-0.0015,0.));
#502=CARTESIAN_POINT('',(-0.01295,-0.0015,0.));
#503=CARTESIAN_POINT('',(0.015,-0.0015,0.));
#504=CARTESIAN_POINT('',(0.01705,-0.0015,0.));
#505=CARTESIAN_POINT('',(0.0325,0.0025,0.0065));
#506=CARTESIAN_POINT('',(0.0325,-0.0055,0.0065));
#507=CARTESIAN_POINT('',(-0.0775,-0.0055,0.0065));
#508=CARTESIAN_POINT('',(-0.0775,0.0025,0.0065));
#509=CARTESIAN_POINT('',(0.015,-0.0015,-0.022));
#510=CARTESIAN_POINT('',(-0.015,-0.0015,-0.022));
#511=CARTESIAN_POINT('',(0.,0.,0.011));
#512=MECHANICAL_DESIGN_GEOMETRIC_PRESENTATION_REPRESENTATION('',(#309),
#513);
#513=(
GEOMETRIC_REPRESENTATION_CONTEXT(3)
GLOBAL_UNCERTAINTY_ASSIGNED_CONTEXT((#514))
GLOBAL_UNIT_ASSIGNED_CONTEXT((#517,#516,#515))
REPRESENTATION_CONTEXT('sides_connectors','TOP_LEVEL_ASSEMBLY_PART')
);
#514=UNCERTAINTY_MEASURE_WITH_UNIT(LENGTH_MEASURE(1.E-8),#517,
'DISTANCE_ACCURACY_VALUE','Maximum Tolerance applied to model');
#515=(
NAMED_UNIT(*)
SI_UNIT($,.STERADIAN.)
SOLID_ANGLE_UNIT()
);
#516=(
NAMED_UNIT(*)
PLANE_ANGLE_UNIT()
SI_UNIT($,.RADIAN.)
);
#517=(
LENGTH_UNIT()
NAMED_UNIT(*)
SI_UNIT($,.METRE.)
);
#518=PRODUCT_DEFINITION_SHAPE('','',#519);
#519=PRODUCT_DEFINITION('','',#521,#520);
#520=PRODUCT_DEFINITION_CONTEXT('',#527,'design');
#521=PRODUCT_DEFINITION_FORMATION_WITH_SPECIFIED_SOURCE('','',#523,
 .NOT_KNOWN.);
#522=PRODUCT_RELATED_PRODUCT_CATEGORY('','',(#523));
#523=PRODUCT('sides_connectors','sides_connectors','sides_connectors',(#525));
#524=PRODUCT_CATEGORY('','');
#525=PRODUCT_CONTEXT('',#527,'mechanical');
#526=APPLICATION_PROTOCOL_DEFINITION('international standard',
'ap242_managed_model_based_3d_engineering',2020,#527);
#527=APPLICATION_CONTEXT('managed model based 3d engineering');
ENDSEC;
END-ISO-10303-21;
