ISO-10303-21;
HEADER;
/* Generated by software containing ST-Developer
 * from STEP Tools, Inc. (www.steptools.com) 
 */
/* OPTION: using custom renumber hook */

FILE_DESCRIPTION(
/* description */ ('STEP AP242 Edition 2',
'CAx-IF Rec.Pracs.---Representation and Presentation of Product Manufa
cturing Information (PMI)---4.0---2014-10-13',
'CAx-IF Rec.Pracs.---3D Tessellated Geometry---0.4---2014-09-14','2;1',
'CAx-IF Rec.Pracs.---User Defined Attributes---1.5---2016-08-15'),
/* implementation_level */ '2;1');

FILE_NAME(
/* name */ 'Assembly 1 - sides_middle_connector',
/* time_stamp */ '2026-08-18T11:49:11Z',
/* author */ (''),
/* organization */ (''),
/* preprocessor_version */ 'ST-DEVELOPER v20',
/* originating_system */ 'ONSHAPE BY PTC INC, 1.219',
/* authorisation */ '  ');

FILE_SCHEMA (('AP242_MANAGED_MODEL_BASED_3D_ENGINEERING_MIM_LF { 1 0 10303 442 3 1 4 }'));
ENDSEC;

DATA;
#10=SHAPE_REPRESENTATION_RELATIONSHIP('','',#319,#11);
#11=ADVANCED_BREP_SHAPE_REPRESENTATION('',(#317),#513);
#12=CYLINDRICAL_SURFACE('',#343,0.00155);
#13=CYLINDRICAL_SURFACE('',#344,0.00155);
#14=CYLINDRICAL_SURFACE('',#345,0.00155);
#15=CYLINDRICAL_SURFACE('',#346,0.00155);
#16=CYLINDRICAL_SURFACE('',#347,0.00205);
#17=CYLINDRICAL_SURFACE('',#348,0.00205);
#18=LINE('',#437,#42);
#19=LINE('',#440,#43);
#20=LINE('',#442,#44);
#21=LINE('',#444,#45);
#22=LINE('',#446,#46);
#23=LINE('',#449,#47);
#24=LINE('',#451,#48);
#25=LINE('',#453,#49);
#26=LINE('',#454,#50);
#27=LINE('',#456,#51);
#28=LINE('',#458,#52);
#29=LINE('',#464,#53);
#30=LINE('',#466,#54);
#31=LINE('',#468,#55);
#32=LINE('',#470,#56);
#33=LINE('',#472,#57);
#34=LINE('',#474,#58);
#35=LINE('',#476,#59);
#36=LINE('',#477,#60);
#37=LINE('',#479,#61);
#38=LINE('',#485,#62);
#39=LINE('',#486,#63);
#40=LINE('',#497,#64);
#41=LINE('',#504,#65);
#42=VECTOR('',#357,1.);
#43=VECTOR('',#358,1.);
#44=VECTOR('',#359,1.);
#45=VECTOR('',#360,1.);
#46=VECTOR('',#363,1.);
#47=VECTOR('',#364,1.);
#48=VECTOR('',#365,1.);
#49=VECTOR('',#366,1.);
#50=VECTOR('',#367,1.);
#51=VECTOR('',#368,1.);
#52=VECTOR('',#369,1.);
#53=VECTOR('',#376,1.);
#54=VECTOR('',#377,1.);
#55=VECTOR('',#378,1.);
#56=VECTOR('',#381,1.);
#57=VECTOR('',#382,1.);
#58=VECTOR('',#383,1.);
#59=VECTOR('',#384,1.);
#60=VECTOR('',#385,1.);
#61=VECTOR('',#386,1.);
#62=VECTOR('',#393,1.);
#63=VECTOR('',#394,1.);
#64=VECTOR('',#407,1.);
#65=VECTOR('',#416,1.);
#66=ORIENTED_EDGE('',*,*,#138,.F.);
#67=ORIENTED_EDGE('',*,*,#139,.F.);
#68=ORIENTED_EDGE('',*,*,#140,.T.);
#69=ORIENTED_EDGE('',*,*,#141,.T.);
#70=ORIENTED_EDGE('',*,*,#142,.F.);
#71=ORIENTED_EDGE('',*,*,#143,.F.);
#72=ORIENTED_EDGE('',*,*,#144,.F.);
#73=ORIENTED_EDGE('',*,*,#145,.F.);
#74=ORIENTED_EDGE('',*,*,#146,.T.);
#75=ORIENTED_EDGE('',*,*,#147,.T.);
#76=ORIENTED_EDGE('',*,*,#142,.T.);
#77=ORIENTED_EDGE('',*,*,#148,.F.);
#78=ORIENTED_EDGE('',*,*,#149,.T.);
#79=ORIENTED_EDGE('',*,*,#150,.T.);
#80=ORIENTED_EDGE('',*,*,#151,.F.);
#81=ORIENTED_EDGE('',*,*,#152,.F.);
#82=ORIENTED_EDGE('',*,*,#153,.T.);
#83=ORIENTED_EDGE('',*,*,#154,.F.);
#84=ORIENTED_EDGE('',*,*,#155,.F.);
#85=ORIENTED_EDGE('',*,*,#145,.T.);
#86=ORIENTED_EDGE('',*,*,#156,.T.);
#87=ORIENTED_EDGE('',*,*,#157,.F.);
#88=ORIENTED_EDGE('',*,*,#158,.F.);
#89=ORIENTED_EDGE('',*,*,#159,.T.);
#90=ORIENTED_EDGE('',*,*,#140,.F.);
#91=ORIENTED_EDGE('',*,*,#160,.F.);
#92=ORIENTED_EDGE('',*,*,#161,.F.);
#93=ORIENTED_EDGE('',*,*,#154,.T.);
#94=ORIENTED_EDGE('',*,*,#162,.F.);
#95=ORIENTED_EDGE('',*,*,#163,.F.);
#96=ORIENTED_EDGE('',*,*,#164,.F.);
#97=ORIENTED_EDGE('',*,*,#150,.F.);
#98=ORIENTED_EDGE('',*,*,#165,.T.);
#99=ORIENTED_EDGE('',*,*,#157,.T.);
#100=ORIENTED_EDGE('',*,*,#166,.T.);
#101=ORIENTED_EDGE('',*,*,#167,.T.);
#102=ORIENTED_EDGE('',*,*,#144,.T.);
#103=ORIENTED_EDGE('',*,*,#164,.T.);
#104=ORIENTED_EDGE('',*,*,#156,.F.);
#105=ORIENTED_EDGE('',*,*,#153,.F.);
#106=ORIENTED_EDGE('',*,*,#168,.F.);
#107=ORIENTED_EDGE('',*,*,#169,.F.);
#108=ORIENTED_EDGE('',*,*,#143,.T.);
#109=ORIENTED_EDGE('',*,*,#147,.F.);
#110=ORIENTED_EDGE('',*,*,#170,.F.);
#111=ORIENTED_EDGE('',*,*,#160,.T.);
#112=ORIENTED_EDGE('',*,*,#161,.T.);
#113=ORIENTED_EDGE('',*,*,#170,.T.);
#114=ORIENTED_EDGE('',*,*,#146,.F.);
#115=ORIENTED_EDGE('',*,*,#155,.T.);
#116=ORIENTED_EDGE('',*,*,#171,.F.);
#117=ORIENTED_EDGE('',*,*,#172,.F.);
#118=ORIENTED_EDGE('',*,*,#141,.F.);
#119=ORIENTED_EDGE('',*,*,#159,.F.);
#120=ORIENTED_EDGE('',*,*,#173,.T.);
#121=ORIENTED_EDGE('',*,*,#148,.T.);
#122=ORIENTED_EDGE('',*,*,#173,.F.);
#123=ORIENTED_EDGE('',*,*,#158,.T.);
#124=ORIENTED_EDGE('',*,*,#165,.F.);
#125=ORIENTED_EDGE('',*,*,#149,.F.);
#126=ORIENTED_EDGE('',*,*,#163,.T.);
#127=ORIENTED_EDGE('',*,*,#172,.T.);
#128=ORIENTED_EDGE('',*,*,#162,.T.);
#129=ORIENTED_EDGE('',*,*,#171,.T.);
#130=ORIENTED_EDGE('',*,*,#169,.T.);
#131=ORIENTED_EDGE('',*,*,#152,.T.);
#132=ORIENTED_EDGE('',*,*,#168,.T.);
#133=ORIENTED_EDGE('',*,*,#151,.T.);
#134=ORIENTED_EDGE('',*,*,#139,.T.);
#135=ORIENTED_EDGE('',*,*,#167,.F.);
#136=ORIENTED_EDGE('',*,*,#138,.T.);
#137=ORIENTED_EDGE('',*,*,#166,.F.);
#138=EDGE_CURVE('',#174,#174,#202,.T.);
#139=EDGE_CURVE('',#175,#175,#203,.T.);
#140=EDGE_CURVE('',#176,#177,#18,.T.);
#141=EDGE_CURVE('',#177,#178,#19,.T.);
#142=EDGE_CURVE('',#179,#178,#20,.T.);
#143=EDGE_CURVE('',#176,#179,#21,.T.);
#144=EDGE_CURVE('',#180,#181,#22,.T.);
#145=EDGE_CURVE('',#182,#180,#23,.T.);
#146=EDGE_CURVE('',#182,#183,#24,.T.);
#147=EDGE_CURVE('',#183,#179,#25,.T.);
#148=EDGE_CURVE('',#184,#178,#26,.T.);
#149=EDGE_CURVE('',#184,#185,#27,.T.);
#150=EDGE_CURVE('',#185,#181,#28,.T.);
#151=EDGE_CURVE('',#186,#186,#204,.F.);
#152=EDGE_CURVE('',#187,#187,#205,.F.);
#153=EDGE_CURVE('',#180,#188,#29,.T.);
#154=EDGE_CURVE('',#189,#188,#30,.T.);
#155=EDGE_CURVE('',#182,#189,#31,.T.);
#156=EDGE_CURVE('',#188,#190,#32,.T.);
#157=EDGE_CURVE('',#191,#190,#33,.T.);
#158=EDGE_CURVE('',#192,#191,#34,.T.);
#159=EDGE_CURVE('',#192,#177,#35,.T.);
#160=EDGE_CURVE('',#193,#176,#36,.T.);
#161=EDGE_CURVE('',#189,#193,#37,.T.);
#162=EDGE_CURVE('',#194,#194,#206,.T.);
#163=EDGE_CURVE('',#195,#195,#207,.T.);
#164=EDGE_CURVE('',#181,#190,#38,.T.);
#165=EDGE_CURVE('',#185,#191,#39,.T.);
#166=EDGE_CURVE('',#196,#196,#208,.T.);
#167=EDGE_CURVE('',#197,#197,#209,.T.);
#168=EDGE_CURVE('',#198,#198,#210,.F.);
#169=EDGE_CURVE('',#199,#199,#211,.F.);
#170=EDGE_CURVE('',#193,#183,#40,.T.);
#171=EDGE_CURVE('',#200,#200,#212,.T.);
#172=EDGE_CURVE('',#201,#201,#213,.T.);
#173=EDGE_CURVE('',#192,#184,#41,.T.);
#174=VERTEX_POINT('',#434);
#175=VERTEX_POINT('',#436);
#176=VERTEX_POINT('',#438);
#177=VERTEX_POINT('',#439);
#178=VERTEX_POINT('',#441);
#179=VERTEX_POINT('',#443);
#180=VERTEX_POINT('',#447);
#181=VERTEX_POINT('',#448);
#182=VERTEX_POINT('',#450);
#183=VERTEX_POINT('',#452);
#184=VERTEX_POINT('',#455);
#185=VERTEX_POINT('',#457);
#186=VERTEX_POINT('',#461);
#187=VERTEX_POINT('',#463);
#188=VERTEX_POINT('',#465);
#189=VERTEX_POINT('',#467);
#190=VERTEX_POINT('',#471);
#191=VERTEX_POINT('',#473);
#192=VERTEX_POINT('',#475);
#193=VERTEX_POINT('',#478);
#194=VERTEX_POINT('',#482);
#195=VERTEX_POINT('',#484);
#196=VERTEX_POINT('',#489);
#197=VERTEX_POINT('',#491);
#198=VERTEX_POINT('',#494);
#199=VERTEX_POINT('',#496);
#200=VERTEX_POINT('',#501);
#201=VERTEX_POINT('',#503);
#202=CIRCLE('',#322,0.00205);
#203=CIRCLE('',#323,0.00205);
#204=CIRCLE('',#326,0.00155);
#205=CIRCLE('',#327,0.00155);
#206=CIRCLE('',#330,0.00155);
#207=CIRCLE('',#331,0.00155);
#208=CIRCLE('',#333,0.00205);
#209=CIRCLE('',#334,0.00205);
#210=CIRCLE('',#336,0.00155);
#211=CIRCLE('',#337,0.00155);
#212=CIRCLE('',#340,0.00155);
#213=CIRCLE('',#341,0.00155);
#214=EDGE_LOOP('',(#66));
#215=EDGE_LOOP('',(#67));
#216=EDGE_LOOP('',(#68,#69,#70,#71));
#217=EDGE_LOOP('',(#72,#73,#74,#75,#76,#77,#78,#79));
#218=EDGE_LOOP('',(#80));
#219=EDGE_LOOP('',(#81));
#220=EDGE_LOOP('',(#82,#83,#84,#85));
#221=EDGE_LOOP('',(#86,#87,#88,#89,#90,#91,#92,#93));
#222=EDGE_LOOP('',(#94));
#223=EDGE_LOOP('',(#95));
#224=EDGE_LOOP('',(#96,#97,#98,#99));
#225=EDGE_LOOP('',(#100));
#226=EDGE_LOOP('',(#101));
#227=EDGE_LOOP('',(#102,#103,#104,#105));
#228=EDGE_LOOP('',(#106));
#229=EDGE_LOOP('',(#107));
#230=EDGE_LOOP('',(#108,#109,#110,#111));
#231=EDGE_LOOP('',(#112,#113,#114,#115));
#232=EDGE_LOOP('',(#116));
#233=EDGE_LOOP('',(#117));
#234=EDGE_LOOP('',(#118,#119,#120,#121));
#235=EDGE_LOOP('',(#122,#123,#124,#125));
#236=EDGE_LOOP('',(#126));
#237=EDGE_LOOP('',(#127));
#238=EDGE_LOOP('',(#128));
#239=EDGE_LOOP('',(#129));
#240=EDGE_LOOP('',(#130));
#241=EDGE_LOOP('',(#131));
#242=EDGE_LOOP('',(#132));
#243=EDGE_LOOP('',(#133));
#244=EDGE_LOOP('',(#134));
#245=EDGE_LOOP('',(#135));
#246=EDGE_LOOP('',(#136));
#247=EDGE_LOOP('',(#137));
#248=FACE_BOUND('',#214,.T.);
#249=FACE_BOUND('',#215,.T.);
#250=FACE_BOUND('',#216,.T.);
#251=FACE_BOUND('',#217,.T.);
#252=FACE_BOUND('',#218,.T.);
#253=FACE_BOUND('',#219,.T.);
#254=FACE_BOUND('',#220,.T.);
#255=FACE_BOUND('',#221,.T.);
#256=FACE_BOUND('',#222,.T.);
#257=FACE_BOUND('',#223,.T.);
#258=FACE_BOUND('',#224,.T.);
#259=FACE_BOUND('',#225,.T.);
#260=FACE_BOUND('',#226,.T.);
#261=FACE_BOUND('',#227,.T.);
#262=FACE_BOUND('',#228,.T.);
#263=FACE_BOUND('',#229,.T.);
#264=FACE_BOUND('',#230,.T.);
#265=FACE_BOUND('',#231,.T.);
#266=FACE_BOUND('',#232,.T.);
#267=FACE_BOUND('',#233,.T.);
#268=FACE_BOUND('',#234,.T.);
#269=FACE_BOUND('',#235,.T.);
#270=FACE_BOUND('',#236,.T.);
#271=FACE_BOUND('',#237,.T.);
#272=FACE_BOUND('',#238,.T.);
#273=FACE_BOUND('',#239,.T.);
#274=FACE_BOUND('',#240,.T.);
#275=FACE_BOUND('',#241,.T.);
#276=FACE_BOUND('',#242,.T.);
#277=FACE_BOUND('',#243,.T.);
#278=FACE_BOUND('',#244,.T.);
#279=FACE_BOUND('',#245,.T.);
#280=FACE_BOUND('',#246,.T.);
#281=FACE_BOUND('',#247,.T.);
#282=PLANE('',#321);
#283=PLANE('',#324);
#284=PLANE('',#325);
#285=PLANE('',#328);
#286=PLANE('',#329);
#287=PLANE('',#332);
#288=PLANE('',#335);
#289=PLANE('',#338);
#290=PLANE('',#339);
#291=PLANE('',#342);
#292=ADVANCED_FACE('',(#248,#249,#250),#282,.T.);
#293=ADVANCED_FACE('',(#251),#283,.T.);
#294=ADVANCED_FACE('',(#252,#253,#254),#284,.F.);
#295=ADVANCED_FACE('',(#255),#285,.F.);
#296=ADVANCED_FACE('',(#256,#257,#258),#286,.T.);
#297=ADVANCED_FACE('',(#259,#260,#261),#287,.F.);
#298=ADVANCED_FACE('',(#262,#263,#264),#288,.F.);
#299=ADVANCED_FACE('',(#265),#289,.T.);
#300=ADVANCED_FACE('',(#266,#267,#268),#290,.T.);
#301=ADVANCED_FACE('',(#269),#291,.T.);
#302=ADVANCED_FACE('',(#270,#271),#12,.F.);
#303=ADVANCED_FACE('',(#272,#273),#13,.F.);
#304=ADVANCED_FACE('',(#274,#275),#14,.F.);
#305=ADVANCED_FACE('',(#276,#277),#15,.F.);
#306=ADVANCED_FACE('',(#278,#279),#16,.F.);
#307=ADVANCED_FACE('',(#280,#281),#17,.F.);
#308=CLOSED_SHELL('',(#292,#293,#294,#295,#296,#297,#298,#299,#300,#301,
#302,#303,#304,#305,#306,#307));
#309=STYLED_ITEM('',(#310),#317);
#310=PRESENTATION_STYLE_ASSIGNMENT((#311));
#311=SURFACE_STYLE_USAGE(.BOTH.,#312);
#312=SURFACE_SIDE_STYLE('',(#313));
#313=SURFACE_STYLE_FILL_AREA(#314);
#314=FILL_AREA_STYLE('',(#315));
#315=FILL_AREA_STYLE_COLOUR('',#316);
#316=COLOUR_RGB('',0.513725490196078,0.737254901960784,0.407843137254902);
#317=MANIFOLD_SOLID_BREP('sides_middle_connector',#308);
#318=SHAPE_DEFINITION_REPRESENTATION(#518,#319);
#319=SHAPE_REPRESENTATION('sides_middle_connector',(#320),#513);
#320=AXIS2_PLACEMENT_3D('',#431,#349,#350);
#321=AXIS2_PLACEMENT_3D('',#432,#351,#352);
#322=AXIS2_PLACEMENT_3D('',#433,#353,#354);
#323=AXIS2_PLACEMENT_3D('',#435,#355,#356);
#324=AXIS2_PLACEMENT_3D('',#445,#361,#362);
#325=AXIS2_PLACEMENT_3D('',#459,#370,#371);
#326=AXIS2_PLACEMENT_3D('',#460,#372,#373);
#327=AXIS2_PLACEMENT_3D('',#462,#374,#375);
#328=AXIS2_PLACEMENT_3D('',#469,#379,#380);
#329=AXIS2_PLACEMENT_3D('',#480,#387,#388);
#330=AXIS2_PLACEMENT_3D('',#481,#389,#390);
#331=AXIS2_PLACEMENT_3D('',#483,#391,#392);
#332=AXIS2_PLACEMENT_3D('',#487,#395,#396);
#333=AXIS2_PLACEMENT_3D('',#488,#397,#398);
#334=AXIS2_PLACEMENT_3D('',#490,#399,#400);
#335=AXIS2_PLACEMENT_3D('',#492,#401,#402);
#336=AXIS2_PLACEMENT_3D('',#493,#403,#404);
#337=AXIS2_PLACEMENT_3D('',#495,#405,#406);
#338=AXIS2_PLACEMENT_3D('',#498,#408,#409);
#339=AXIS2_PLACEMENT_3D('',#499,#410,#411);
#340=AXIS2_PLACEMENT_3D('',#500,#412,#413);
#341=AXIS2_PLACEMENT_3D('',#502,#414,#415);
#342=AXIS2_PLACEMENT_3D('',#505,#417,#418);
#343=AXIS2_PLACEMENT_3D('',#506,#419,#420);
#344=AXIS2_PLACEMENT_3D('',#507,#421,#422);
#345=AXIS2_PLACEMENT_3D('',#508,#423,#424);
#346=AXIS2_PLACEMENT_3D('',#509,#425,#426);
#347=AXIS2_PLACEMENT_3D('',#510,#427,#428);
#348=AXIS2_PLACEMENT_3D('',#511,#429,#430);
#349=DIRECTION('',(0.,0.,1.));
#350=DIRECTION('',(1.,0.,0.));
#351=DIRECTION('',(0.,0.,1.));
#352=DIRECTION('',(1.,0.,0.));
#353=DIRECTION('',(0.,0.,1.));
#354=DIRECTION('',(1.,0.,0.));
#355=DIRECTION('',(0.,0.,1.));
#356=DIRECTION('',(1.,0.,0.));
#357=DIRECTION('',(-1.,-1.36056743213867E-16,0.));
#358=DIRECTION('',(0.,-1.,0.));
#359=DIRECTION('',(-1.,-1.020425574104E-16,0.));
#360=DIRECTION('',(3.46944695195362E-16,-1.,0.));
#361=DIRECTION('',(1.020425574104E-16,-1.,0.));
#362=DIRECTION('',(1.,1.020425574104E-16,0.));
#363=DIRECTION('',(-1.,-1.020425574104E-16,0.));
#364=DIRECTION('',(0.,0.,-1.));
#365=DIRECTION('',(-1.,-1.020425574104E-16,0.));
#366=DIRECTION('',(0.,0.,-1.));
#367=DIRECTION('',(0.,0.,-1.));
#368=DIRECTION('',(-1.,-1.020425574104E-16,0.));
#369=DIRECTION('',(0.,0.,-1.));
#370=DIRECTION('',(-1.,0.,0.));
#371=DIRECTION('',(0.,0.,1.));
#372=DIRECTION('',(-1.,0.,0.));
#373=DIRECTION('',(0.,0.,1.));
#374=DIRECTION('',(-1.,0.,0.));
#375=DIRECTION('',(0.,0.,1.));
#376=DIRECTION('',(0.,1.,0.));
#377=DIRECTION('',(0.,0.,-1.));
#378=DIRECTION('',(0.,1.,0.));
#379=DIRECTION('',(1.36056743213867E-16,-1.,0.));
#380=DIRECTION('',(1.,1.36056743213867E-16,0.));
#381=DIRECTION('',(-1.,-1.36056743213867E-16,0.));
#382=DIRECTION('',(0.,0.,-1.));
#383=DIRECTION('',(-1.,-1.36056743213867E-16,0.));
#384=DIRECTION('',(0.,0.,-1.));
#385=DIRECTION('',(0.,0.,-1.));
#386=DIRECTION('',(-1.,-1.36056743213867E-16,0.));
#387=DIRECTION('',(-1.,0.,0.));
#388=DIRECTION('',(0.,0.,1.));
#389=DIRECTION('',(-1.,0.,0.));
#390=DIRECTION('',(0.,0.,1.));
#391=DIRECTION('',(-1.,0.,0.));
#392=DIRECTION('',(0.,0.,1.));
#393=DIRECTION('',(0.,1.,0.));
#394=DIRECTION('',(0.,1.,0.));
#395=DIRECTION('',(0.,0.,1.));
#396=DIRECTION('',(1.,0.,0.));
#397=DIRECTION('',(0.,0.,1.));
#398=DIRECTION('',(1.,0.,0.));
#399=DIRECTION('',(0.,0.,1.));
#400=DIRECTION('',(1.,0.,0.));
#401=DIRECTION('',(1.,3.46944695195362E-16,0.));
#402=DIRECTION('',(-3.46944695195362E-16,1.,0.));
#403=DIRECTION('',(1.,3.46944695195362E-16,0.));
#404=DIRECTION('',(-3.46944695195362E-16,1.,0.));
#405=DIRECTION('',(1.,3.46944695195362E-16,0.));
#406=DIRECTION('',(-3.46944695195362E-16,1.,0.));
#407=DIRECTION('',(3.46944695195362E-16,-1.,0.));
#408=DIRECTION('',(0.,0.,1.));
#409=DIRECTION('',(1.,0.,0.));
#410=DIRECTION('',(1.,0.,0.));
#411=DIRECTION('',(0.,0.,-1.));
#412=DIRECTION('',(1.,0.,0.));
#413=DIRECTION('',(0.,0.,-1.));
#414=DIRECTION('',(1.,0.,0.));
#415=DIRECTION('',(0.,0.,-1.));
#416=DIRECTION('',(0.,-1.,0.));
#417=DIRECTION('',(0.,0.,1.));
#418=DIRECTION('',(1.,0.,0.));
#419=DIRECTION('',(1.,0.,0.));
#420=DIRECTION('',(0.,0.,-1.));
#421=DIRECTION('',(1.,0.,0.));
#422=DIRECTION('',(0.,0.,-1.));
#423=DIRECTION('',(-1.,0.,0.));
#424=DIRECTION('',(0.,0.,1.));
#425=DIRECTION('',(-1.,0.,0.));
#426=DIRECTION('',(0.,0.,1.));
#427=DIRECTION('',(0.,0.,1.));
#428=DIRECTION('',(1.,0.,0.));
#429=DIRECTION('',(0.,0.,1.));
#430=DIRECTION('',(1.,0.,0.));
#431=CARTESIAN_POINT('',(0.,0.,0.));
#432=CARTESIAN_POINT('',(0.,0.,0.003));
#433=CARTESIAN_POINT('',(-0.015,1.25526296912604E-19,0.003));
#434=CARTESIAN_POINT('',(-0.01295,1.25526296912604E-19,0.003));
#435=CARTESIAN_POINT('',(0.015,1.25526296912604E-19,0.003));
#436=CARTESIAN_POINT('',(0.01705,1.25526296912604E-19,0.003));
#437=CARTESIAN_POINT('',(0.,0.01,0.003));
#438=CARTESIAN_POINT('',(0.0225,0.01,0.003));
#439=CARTESIAN_POINT('',(-0.0225,0.01,0.003));
#440=CARTESIAN_POINT('',(-0.0225,-3.46944695195361E-18,0.003));
#441=CARTESIAN_POINT('',(-0.0225,-0.01,0.003));
#442=CARTESIAN_POINT('',(0.,-0.01,0.003));
#443=CARTESIAN_POINT('',(0.0225,-0.01,0.003));
#444=CARTESIAN_POINT('',(0.0225,4.33680868994202E-18,0.003));
#445=CARTESIAN_POINT('',(0.,-0.01,0.003));
#446=CARTESIAN_POINT('',(0.,-0.01,0.));
#447=CARTESIAN_POINT('',(0.0255,-0.01,0.));
#448=CARTESIAN_POINT('',(-0.0255,-0.01,0.));
#449=CARTESIAN_POINT('',(0.0255,-0.01,0.003));
#450=CARTESIAN_POINT('',(0.0255,-0.01,0.014));
#451=CARTESIAN_POINT('',(0.,-0.01,0.014));
#452=CARTESIAN_POINT('',(0.0225,-0.01,0.014));
#453=CARTESIAN_POINT('',(0.0225,-0.01,0.014));
#454=CARTESIAN_POINT('',(-0.0225,-0.01,0.014));
#455=CARTESIAN_POINT('',(-0.0225,-0.01,0.014));
#456=CARTESIAN_POINT('',(0.,-0.01,0.014));
#457=CARTESIAN_POINT('',(-0.0255,-0.01,0.014));
#458=CARTESIAN_POINT('',(-0.0255,-0.01,0.003));
#459=CARTESIAN_POINT('',(0.0255,3.46944695195361E-18,0.003));
#460=CARTESIAN_POINT('',(0.0255,-0.004,0.0085));
#461=CARTESIAN_POINT('',(0.0255,-0.004,0.01005));
#462=CARTESIAN_POINT('',(0.0255,0.004,0.0085));
#463=CARTESIAN_POINT('',(0.0255,0.004,0.01005));
#464=CARTESIAN_POINT('',(0.0255,3.46944695195361E-18,0.));
#465=CARTESIAN_POINT('',(0.0255,0.01,0.));
#466=CARTESIAN_POINT('',(0.0255,0.01,0.003));
#467=CARTESIAN_POINT('',(0.0255,0.01,0.014));
#468=CARTESIAN_POINT('',(0.0255,3.46944695195361E-18,0.014));
#469=CARTESIAN_POINT('',(0.,0.01,0.003));
#470=CARTESIAN_POINT('',(0.,0.01,0.));
#471=CARTESIAN_POINT('',(-0.0255,0.01,0.));
#472=CARTESIAN_POINT('',(-0.0255,0.01,0.003));
#473=CARTESIAN_POINT('',(-0.0255,0.01,0.014));
#474=CARTESIAN_POINT('',(0.,0.01,0.014));
#475=CARTESIAN_POINT('',(-0.0225,0.01,0.014));
#476=CARTESIAN_POINT('',(-0.0225,0.01,0.014));
#477=CARTESIAN_POINT('',(0.0225,0.01,0.014));
#478=CARTESIAN_POINT('',(0.0225,0.01,0.014));
#479=CARTESIAN_POINT('',(0.,0.01,0.014));
#480=CARTESIAN_POINT('',(-0.0255,-3.46944695195361E-18,0.003));
#481=CARTESIAN_POINT('',(-0.0255,-0.004,0.0085));
#482=CARTESIAN_POINT('',(-0.0255,-0.004,0.01005));
#483=CARTESIAN_POINT('',(-0.0255,0.004,0.0085));
#484=CARTESIAN_POINT('',(-0.0255,0.004,0.01005));
#485=CARTESIAN_POINT('',(-0.0255,-3.46944695195361E-18,0.));
#486=CARTESIAN_POINT('',(-0.0255,-3.46944695195361E-18,0.014));
#487=CARTESIAN_POINT('',(0.,0.,0.));
#488=CARTESIAN_POINT('',(-0.015,1.25526296912604E-19,0.));
#489=CARTESIAN_POINT('',(-0.01295,1.25526296912604E-19,0.));
#490=CARTESIAN_POINT('',(0.015,1.25526296912604E-19,0.));
#491=CARTESIAN_POINT('',(0.01705,1.25526296912604E-19,0.));
#492=CARTESIAN_POINT('',(0.0225,4.33680868994202E-18,0.014));
#493=CARTESIAN_POINT('',(0.0225,-0.004,0.0085));
#494=CARTESIAN_POINT('',(0.0225,-0.00245,0.0085));
#495=CARTESIAN_POINT('',(0.0225,0.004,0.0085));
#496=CARTESIAN_POINT('',(0.0225,0.00555,0.0085));
#497=CARTESIAN_POINT('',(0.0225,4.33680868994202E-18,0.014));
#498=CARTESIAN_POINT('',(3.46944695195361E-18,0.,0.014));
#499=CARTESIAN_POINT('',(-0.0225,-3.46944695195361E-18,0.014));
#500=CARTESIAN_POINT('',(-0.0225,-0.004,0.0085));
#501=CARTESIAN_POINT('',(-0.0225,-0.004,0.00695));
#502=CARTESIAN_POINT('',(-0.0225,0.004,0.0085));
#503=CARTESIAN_POINT('',(-0.0225,0.004,0.00695));
#504=CARTESIAN_POINT('',(-0.0225,-3.46944695195361E-18,0.014));
#505=CARTESIAN_POINT('',(3.46944695195361E-18,0.,0.014));
#506=CARTESIAN_POINT('',(-0.0475,0.004,0.0085));
#507=CARTESIAN_POINT('',(-0.0475,-0.004,0.0085));
#508=CARTESIAN_POINT('',(0.0825,0.004,0.0085));
#509=CARTESIAN_POINT('',(0.0825,-0.004,0.0085));
#510=CARTESIAN_POINT('',(0.015,1.25526296912604E-19,-0.022));
#511=CARTESIAN_POINT('',(-0.015,1.25526296912604E-19,-0.022));
#512=MECHANICAL_DESIGN_GEOMETRIC_PRESENTATION_REPRESENTATION('',(#309),
#513);
#513=(
GEOMETRIC_REPRESENTATION_CONTEXT(3)
GLOBAL_UNCERTAINTY_ASSIGNED_CONTEXT((#514))
GLOBAL_UNIT_ASSIGNED_CONTEXT((#517,#516,#515))
REPRESENTATION_CONTEXT('sides_middle_connector',
'TOP_LEVEL_ASSEMBLY_PART')
);
#514=UNCERTAINTY_MEASURE_WITH_UNIT(LENGTH_MEASURE(1.E-8),#517,
'DISTANCE_ACCURACY_VALUE','Maximum Tolerance applied to model');
#515=(
NAMED_UNIT(*)
SI_UNIT($,.STERADIAN.)
SOLID_ANGLE_UNIT()
);
#516=(
NAMED_UNIT(*)
PLANE_ANGLE_UNIT()
SI_UNIT($,.RADIAN.)
);
#517=(
LENGTH_UNIT()
NAMED_UNIT(*)
SI_UNIT($,.METRE.)
);
#518=PRODUCT_DEFINITION_SHAPE('','',#519);
#519=PRODUCT_DEFINITION('','',#521,#520);
#520=PRODUCT_DEFINITION_CONTEXT('',#527,'design');
#521=PRODUCT_DEFINITION_FORMATION_WITH_SPECIFIED_SOURCE('','',#523,
 .NOT_KNOWN.);
#522=PRODUCT_RELATED_PRODUCT_CATEGORY('','',(#523));
#523=PRODUCT('sides_middle_connector','sides_middle_connector',
'sides_middle_connector',(#525));
#524=PRODUCT_CATEGORY('','');
#525=PRODUCT_CONTEXT('',#527,'mechanical');
#526=APPLICATION_PROTOCOL_DEFINITION('international standard',
'ap242_managed_model_based_3d_engineering',2020,#527);
#527=APPLICATION_CONTEXT('managed model based 3d engineering');
ENDSEC;
END-ISO-10303-21;
